<svg viewBox="-1066.5 -515 2133 1030" width="2133" height="1030" style="background-color: rgb(255, 255, 255);" xmlns="http://www.w3.org/2000/svg"><path d="M452.9571419642658,234.20067940369378L389.0524461422547,230.14919077246793M389.0524461422547,-351.92141596724633L389.0524461422547,230.14919077246793M389.0524461422547,230.14919077246793L253.21275078691144,392.64033513459646M452.9571419642658,-347.8699273360204L452.9571419642658,234.20067940369378M452.9571419642658,234.20067940369378L317.11744660892253,396.69182376582233M601.8075802371566,243.63763627608512L550.6838249863316,240.39644546029302M550.6838249863316,-341.67416127942124L550.6838249863316,240.39644546029302M550.6838249863316,240.39644546029302L414.8441296309882,402.88758982242155M601.8075802371566,-338.4329704636291L601.8075802371566,243.63763627608512M601.8075802371566,243.63763627608512L465.96788488181335,406.1287806382137" style="fill:none;stroke:rgb(0,0,0);stroke-width:1;stroke-linecap:round"></path><path d="M452.9571419642659,234.2006794036938L389.0524461422548,230.14919077246793L389.0524461422548,-351.92141596724633z" style="fill:rgb(238,238,238); fill-opacity: 0.4"></path><path d="M700.4562140758784,249.8918530177895L698.6123143766456,249.77495177019776M698.6123143766456,-332.29565496951653L698.6123143766456,249.77495177019776M698.6123143766456,249.77495177019776L562.7726190213023,412.26609613232625M700.4562140758784,-332.17875372192475L700.4562140758784,249.8918530177895M700.4562140758784,249.8918530177895L564.616518720535,412.382997379918" style="fill:none;stroke:rgb(0,0,0);stroke-width:1;stroke-linecap:round"></path><path d="M601.8075802371567,243.63763627608515L550.6838249863315,240.39644546029302L550.6838249863315,-341.67416127942124z" style="fill:rgb(238,238,238); fill-opacity: 0.4"></path><path d="M82.95352083313011,108.0010066795227L6.2678914738520985,103.13922067880594M6.2678914738520985,-187.8960826910512L6.2678914738520985,103.13922067880594M6.2678914738520985,103.13922067880594L-61.651956203819566,184.3847928598702" style="fill:none;stroke:rgb(0,0,0);stroke-width:1;stroke-linecap:round"></path><path d="M452.9571419642659,-347.86992733602045L452.9571419642659,234.2006794036938L389.0524461422548,-351.92141596724633z" style="fill:rgb(238,238,238); fill-opacity: 0.4"></path><path d="M82.95352083313011,-183.03429669033443L82.95352083313011,108.0010066795227M82.95352083313011,108.0010066795227L15.033673155458459,189.24657886058696M-282.8510719158547,33.43846938305894L-346.75576773786577,29.38698075183306M-346.75576773786577,-116.13067093309552L-346.75576773786577,29.38698075183306M-346.75576773786577,29.38698075183306L-380.7156915767016,70.00976684236518" style="fill:none;stroke:rgb(0,0,0);stroke-width:1;stroke-linecap:round"></path><path d="M700.4562140758784,249.8918530177895L698.6123143766455,249.7749517701978L698.6123143766455,-332.29565496951653z" style="fill:rgb(238,238,238); fill-opacity: 0.4"></path><path d="M-282.8510719158547,-112.07918230186962L-282.8510719158547,33.43846938305894M-282.8510719158547,33.43846938305894L-316.81099575469045,74.06125547359107" style="fill:none;stroke:rgb(0,0,0);stroke-width:1;stroke-linecap:round"></path><path d="M82.95352083313013,108.0010066795227L6.267891473852098,103.13922067880596L6.267891473852098,-187.8960826910512zM-282.8510719158546,33.43846938305894L-346.75576773786577,29.38698075183306L-346.75576773786577,-116.1306709330955z" style="fill:rgb(238,238,238); fill-opacity: 0.4"></path><path d="M257.3658375579934,119.05855901221312L180.68020819871538,114.19677301149636M180.68020819871538,-176.83853035836077L180.68020819871538,114.19677301149636M180.68020819871538,114.19677301149636L112.76036052104372,195.4423451925606" style="fill:none;stroke:rgb(0,0,0);stroke-width:1;stroke-linecap:round"></path><path d="M601.8075802371567,-338.43297046362915L601.8075802371567,243.63763627608515L550.6838249863315,-341.67416127942124z" style="fill:rgb(238,238,238); fill-opacity: 0.4"></path><path d="M-108.43875781115109,44.496021549634065L-185.12438717042915,39.6342355489173M-185.12438717042915,-105.88341613601126L-185.12438717042915,39.6342355489173M-185.12438717042915,39.6342355489173L-219.08431100926498,80.25702163944943" style="fill:none;stroke:rgb(0,0,0);stroke-width:1;stroke-linecap:round"></path><path d="M-282.8510719158546,-112.07918230186962L-282.8510719158546,33.43846938305894L-346.75576773786577,-116.1306709330955z" style="fill:rgb(238,238,238); fill-opacity: 0.4"></path><path d="M257.3658375579934,-171.976744357644L257.3658375579934,119.05855901221312M257.3658375579934,119.05855901221312L189.44598988032172,200.30413119327736M-282.8510719158547,-112.07918230186962L-346.75576773786577,-116.13067093309552M-346.75576773786577,-116.13067093309552L-380.7156915767016,-75.50788484256337M452.9571419642658,-347.8699273360204L389.0524461422547,-351.92141596724633M389.0524461422547,-351.92141596724633L253.21275078691144,-189.4302716051178" style="fill:none;stroke:rgb(0,0,0);stroke-width:1;stroke-linecap:round"></path><path d="M82.95352083313013,-183.03429669033443L82.95352083313013,108.0010066795227L6.267891473852098,-187.8960826910512z" style="fill:rgb(238,238,238); fill-opacity: 0.4"></path><path d="M242.63022494662027,54.288355526908845L358.30772724568516,107.58905043844182M242.63022494662027,59.74526746509366L358.30772724568516,107.58905043844182M241.35672780266393,61.26862194348862L358.30772724568516,107.58905043844182M241.35672780266393,55.8117100053038L358.30772724568516,107.58905043844182" style="fill:none;stroke:rgb(0,0,0);stroke-width:1;stroke-linecap:round"></path><path d="M-380.71569157670166,70.0097668423652L-346.75576773786577,29.38698075183306L-282.8510719158546,33.43846938305894z" style="fill:rgb(238,238,238); fill-opacity: 0.4"></path><path d="M-108.43875781115109,-101.0216301352945L-108.43875781115109,44.496021549634065M-108.43875781115109,44.496021549634065L-142.39868164998694,85.1188076401662M-293.00178076927267,8.189705400937248L-356.90647659128376,4.138216769711369M-356.90647659128376,-1.3186951684734514L-356.90647659128376,4.138216769711369M-356.90647659128376,4.138216769711369L-358.17997373524014,5.661571248106324M-293.00178076927267,2.7327934627524275L-356.90647659128376,-1.3186951684734514M-356.90647659128376,-1.3186951684734514L-358.17997373524014,0.20465930992150388" style="fill:none;stroke:rgb(0,0,0);stroke-width:1;stroke-linecap:round"></path><path d="M257.3658375579934,119.05855901221312L180.68020819871538,114.19677301149636L180.68020819871538,-176.83853035836074zM-108.43875781115108,44.496021549634065L-185.12438717042915,39.6342355489173L-185.12438717042915,-105.88341613601126z" style="fill:rgb(238,238,238); fill-opacity: 0.4"></path><path d="M-282.8510719158547,-112.07918230186962L-316.81099575469045,-71.45639621133749" style="fill:none;stroke:rgb(0,0,0);stroke-width:1;stroke-linecap:round"></path><path d="M-356.90647659128376,-1.3186951684734514L-356.90647659128376,4.138216769711368L-358.17997373524014,0.20465930992150388z" style="fill:rgb(153,221,255); fill-opacity: 0.4"></path><path d="M700.4562140758784,-332.17875372192475L700.4562140758784,249.8918530177895L698.6123143766455,-332.29565496951653z" style="fill:rgb(238,238,238); fill-opacity: 0.4"></path><path d="M-356.90647659128376,4.138216769711368L-358.17997373524014,5.661571248106323L-358.17997373524014,0.20465930992150388z" style="fill:rgb(153,221,255); fill-opacity: 0.4"></path><path d="M452.9571419642658,-347.8699273360204L317.11744660892253,-185.37878297389196" style="fill:none;stroke:rgb(0,0,0);stroke-width:1;stroke-linecap:round"></path><path d="M-293.0017807692726,8.189705400937248L-356.90647659128376,4.138216769711368L-356.90647659128376,-1.3186951684734514z" style="fill:rgb(153,221,255); fill-opacity: 0.4"></path><path d="M-358.17997373524014,0.20465930992150388L-358.17997373524014,5.661571248106324M-358.17997373524014,5.661571248106324L-294.275277913229,9.713059879332203" style="fill:none;stroke:rgb(0,0,0);stroke-width:1;stroke-linecap:round"></path><path d="M-358.17997373524014,5.661571248106323L-356.90647659128376,4.138216769711368L-293.0017807692726,8.189705400937248z" style="fill:rgb(153,221,255); fill-opacity: 0.4"></path><path d="M-358.17997373524014,0.20465930992150388L-294.275277913229,4.256147941147383" style="fill:none;stroke:rgb(0,0,0);stroke-width:1;stroke-linecap:round"></path><path d="M-358.17997373524014,0.20465930992150388L-294.27527791322893,4.2561479411473835L-356.90647659128376,-1.3186951684734514zM-293.0017807692726,2.7327934627524284L-293.0017807692726,8.189705400937248L-356.90647659128376,-1.3186951684734514zM-358.17997373524014,0.20465930992150388L-358.17997373524014,5.661571248106323L-294.27527791322893,4.2561479411473835zM-294.27527791322893,4.2561479411473835L-293.0017807692726,2.7327934627524284L-356.90647659128376,-1.3186951684734514z" style="fill:rgb(153,221,255); fill-opacity: 0.4"></path><path d="M82.95352083313011,-183.03429669033443L6.2678914738520985,-187.8960826910512M6.2678914738520985,-187.8960826910512L-61.651956203819566,-106.65051050998693" style="fill:none;stroke:rgb(0,0,0);stroke-width:1;stroke-linecap:round"></path><path d="M-294.27527791322893,9.713059879332203L-358.17997373524014,5.661571248106323L-293.0017807692726,8.189705400937248z" style="fill:rgb(153,221,255); fill-opacity: 0.4"></path><path d="M-293.0017917994088,2.732792086096706L-293.0017917994088,8.189704024281525M-293.0017917994088,8.189704024281525L-294.2752889433652,9.713058502676477M-293.0017917994088,8.189704024281525L-195.91184224420354,12.418692308633947M-293.00178076927267,2.7327934627524275L-293.00178076927267,8.189705400937248M-293.00178076927267,8.189705400937248L-294.275277913229,9.713059879332203" style="fill:none;stroke:rgb(0,0,0);stroke-width:1;stroke-linecap:round"></path><path d="M-358.17997373524014,5.661571248106323L-294.27527791322893,9.713059879332203L-294.27527791322893,4.2561479411473835z" style="fill:rgb(153,221,255); fill-opacity: 0.4"></path><path d="M-293.0017917994088,2.732792086096706L-294.2752889433652,4.256146564491658M-293.0017917994088,2.732792086096706L-195.91184224420354,12.418692308633947M-293.00178076927267,2.7327934627524275L-294.275277913229,4.256147941147383" style="fill:none;stroke:rgb(0,0,0);stroke-width:1;stroke-linecap:round"></path><path d="M-293.0017817363123,2.7327934014431547L-293.0017817363123,8.189705339627974L-294.2752788802687,9.713059818022929z" style="fill:rgb(255,187,187); fill-opacity: 0.4"></path><path d="M-294.27527791322893,9.713059879332203L-293.0017807692726,8.189705400937248L-293.0017807692726,2.7327934627524284z" style="fill:rgb(153,221,255); fill-opacity: 0.4"></path><path d="M253.21275078691147,392.64033513459646L389.0524461422548,230.14919077246793L452.9571419642659,234.2006794036938z" style="fill:rgb(238,238,238); fill-opacity: 0.4"></path><path d="M-293.0017817363123,2.7327934014431547L-294.2752788802687,9.713059818022929L-294.2752788802687,4.25614787983811z" style="fill:rgb(255,187,187); fill-opacity: 0.4"></path><path d="M-294.27527791322893,4.2561479411473835L-294.27527791322893,9.713059879332203L-293.0017807692726,2.7327934627524284z" style="fill:rgb(153,221,255); fill-opacity: 0.4"></path><path d="M-294.2752889433652,9.713058502676477L-294.2752889433652,4.256146564491658M-294.2752889433652,9.713058502676477L-195.91184224420354,12.418692308633947M-294.275277913229,4.256147941147383L-294.275277913229,9.713059879332203M-294.2752889433652,4.256146564491658L-195.91184224420354,12.418692308633947" style="fill:none;stroke:rgb(0,0,0);stroke-width:1;stroke-linecap:round"></path><path d="M-108.43875781115108,-101.0216301352945L-108.43875781115108,44.496021549634065L-185.12438717042915,-105.88341613601126zM-346.75576773786577,-116.1306709330955L-346.75576773786577,29.38698075183306L-380.71569157670166,-75.50788484256337zM-316.81099575469045,74.06125547359107L-282.8510719158546,33.43846938305894L-282.8510719158546,-112.07918230186962z" style="fill:rgb(238,238,238); fill-opacity: 0.4"></path><path d="M-293.0017817363123,8.189705339627974L-293.0017817363123,2.7327934014431547L-195.91184624894535,12.418692732094659zM-294.2752788802687,9.713059818022929L-293.0017817363123,8.189705339627974L-195.91184624894535,12.418692732094659z" style="fill:rgb(255,187,187); fill-opacity: 0.4"></path><path d="M-108.43875781115109,-101.0216301352945L-185.12438717042915,-105.88341613601126M-185.12438717042915,-105.88341613601126L-219.08431100926498,-65.26063004547913" style="fill:none;stroke:rgb(0,0,0);stroke-width:1;stroke-linecap:round"></path><path d="M-293.0017817363123,2.7327934014431547L-294.2752788802687,4.25614787983811L-195.91184624894535,12.418692732094659z" style="fill:rgb(255,187,187); fill-opacity: 0.4"></path><path d="M601.8075802371566,-338.4329704636291L550.6838249863316,-341.67416127942124M550.6838249863316,-341.67416127942124L414.8441296309882,-179.18301691729272" style="fill:none;stroke:rgb(0,0,0);stroke-width:1;stroke-linecap:round"></path><path d="M-294.2752788802687,4.25614787983811L-294.2752788802687,9.713059818022929L-195.91184624894535,12.418692732094659z" style="fill:rgb(255,187,187); fill-opacity: 0.4"></path><path d="M-61.65195620381957,184.3847928598702L6.267891473852098,103.13922067880596L82.95352083313013,108.0010066795227z" style="fill:rgb(238,238,238); fill-opacity: 0.4"></path><path d="M82.95352083313011,-183.03429669033443L15.033673155458459,-101.78872450927017" style="fill:none;stroke:rgb(0,0,0);stroke-width:1;stroke-linecap:round"></path><path d="M257.3658375579934,-171.976744357644L257.3658375579934,119.05855901221312L180.68020819871538,-176.83853035836074zM-219.08431100926495,80.25702163944943L-185.12438717042915,39.6342355489173L-108.43875781115108,44.496021549634065z" style="fill:rgb(238,238,238); fill-opacity: 0.4"></path><path d="M601.8075802371566,-338.4329704636291L465.96788488181335,-175.94182610150062M-108.43875781115109,-101.0216301352945L-142.39868164998694,-60.39884404476237" style="fill:none;stroke:rgb(0,0,0);stroke-width:1;stroke-linecap:round"></path><path d="M-316.81099575469045,-71.45639621133749L-282.8510719158546,-112.07918230186962L-346.75576773786577,-116.1306709330955z" style="fill:rgb(238,238,238); fill-opacity: 0.4"></path><path d="M242.63023096980677,59.74526607452191L242.63023096980677,54.28835413633709L358.3077334827248,107.58904728899287zM241.35673382585043,61.268620552916865L242.63023096980677,59.74526607452191L358.3077334827248,107.58904728899287zM242.63023096980677,54.28835413633709L241.35673382585043,55.81170861473204L358.3077334827248,107.58904728899287zM241.35673382585043,55.81170861473204L241.35673382585043,61.268620552916865L358.3077334827248,107.58904728899287z" style="fill:rgb(255,187,187); fill-opacity: 0.4"></path><path d="M-316.81099575469045,74.06125547359107L-380.71569157670166,70.0097668423652L-282.8510719158546,33.43846938305894z" style="fill:rgb(238,238,238); fill-opacity: 0.4"></path><path d="M257.3658375579934,-171.976744357644L180.68020819871538,-176.83853035836077M180.68020819871538,-176.83853035836077L112.76036052104372,-95.59295817729651M242.63022931668675,59.74526596971589L165.9445999574087,54.883479968999126M165.9445999574087,49.42656803081431L165.9445999574087,54.883479968999126M165.9445999574087,54.883479968999126L164.67110281345236,56.40683444739409" style="fill:none;stroke:rgb(0,0,0);stroke-width:1;stroke-linecap:round"></path><path d="M414.8441296309882,402.88758982242155L550.6838249863315,240.39644546029302L601.8075802371567,243.63763627608515z" style="fill:rgb(238,238,238); fill-opacity: 0.4"></path><path d="M242.63022931668675,54.28835403153107L165.9445999574087,49.42656803081431M165.9445999574087,49.42656803081431L164.67110281345236,50.949922509209266" style="fill:none;stroke:rgb(0,0,0);stroke-width:1;stroke-linecap:round"></path><path d="M165.94459995740874,49.42656803081431L165.94459995740874,54.883479968999126L164.67110281345236,50.94992250920926z" style="fill:rgb(153,221,255); fill-opacity: 0.4"></path><path d="M-346.75576773786577,29.38698075183306L-380.71569157670166,70.0097668423652L-380.71569157670166,-75.50788484256337z" style="fill:rgb(238,238,238); fill-opacity: 0.4"></path><path d="M165.94459995740874,54.883479968999126L164.67110281345236,56.40683444739408L164.67110281345236,50.94992250920926z" style="fill:rgb(153,221,255); fill-opacity: 0.4"></path><path d="M164.67110281345236,50.949922509209266L164.67110281345236,56.40683444739409M164.67110281345236,56.40683444739409L241.35673217273043,61.26862044811085" style="fill:none;stroke:rgb(0,0,0);stroke-width:1;stroke-linecap:round"></path><path d="M-185.12438717042915,-105.88341613601126L-185.12438717042915,39.6342355489173L-219.08431100926495,-65.26063004547913z" style="fill:rgb(238,238,238); fill-opacity: 0.4"></path><path d="M242.63022931668678,59.74526596971589L165.94459995740874,54.883479968999126L165.94459995740874,49.42656803081431z" style="fill:rgb(153,221,255); fill-opacity: 0.4"></path><path d="M700.4562140758784,-332.17875372192475L698.6123143766456,-332.29565496951653M698.6123143766456,-332.29565496951653L562.7726190213023,-169.80451060738798M164.67110281345236,50.949922509209266L241.35673217273043,55.81170850992603M700.4562140758784,-332.17875372192475L564.616518720535,-169.68760935979626" style="fill:none;stroke:rgb(0,0,0);stroke-width:1;stroke-linecap:round"></path><path d="M164.67110281345236,56.40683444739408L165.94459995740874,54.883479968999126L242.63022931668678,59.74526596971589z" style="fill:rgb(153,221,255); fill-opacity: 0.4"></path><path d="M-142.39868164998694,85.1188076401662L-108.43875781115108,44.496021549634065L-108.43875781115108,-101.0216301352945z" style="fill:rgb(238,238,238); fill-opacity: 0.4"></path><path d="M164.67110281345236,50.94992250920926L241.35673217273043,55.81170850992602L165.94459995740874,49.42656803081431zM164.67110281345236,50.94992250920926L164.67110281345236,56.40683444739408L241.35673217273043,55.81170850992602zM242.63022931668678,54.28835403153107L242.63022931668678,59.74526596971589L165.94459995740874,49.42656803081431z" style="fill:rgb(153,221,255); fill-opacity: 0.4"></path><path d="M-120.456541274792,-55.92721307851242L-197.14217063407006,-60.788999079229185M-197.14217063407006,-66.245911017414L-197.14217063407006,-60.788999079229185M-197.14217063407006,-60.788999079229185L-198.41566777802637,-59.26564460083423" style="fill:none;stroke:rgb(0,0,0);stroke-width:1;stroke-linecap:round"></path><path d="M241.35673217273043,55.81170850992602L242.63022931668678,54.28835403153107L165.94459995740874,49.42656803081431zM241.35673217273043,61.268620448110845L164.67110281345236,56.40683444739408L242.63022931668678,59.74526596971589z" style="fill:rgb(153,221,255); fill-opacity: 0.4"></path><path d="M-120.456541274792,-61.38412501669725L-197.14217063407006,-66.245911017414M-197.14217063407006,-66.245911017414L-198.41566777802637,-64.72255653901905" style="fill:none;stroke:rgb(0,0,0);stroke-width:1;stroke-linecap:round"></path><path d="M112.76036052104374,195.44234519256062L180.68020819871538,114.19677301149636L257.3658375579934,119.05855901221312z" style="fill:rgb(238,238,238); fill-opacity: 0.4"></path><path d="M257.3658375579934,-171.976744357644L189.44598988032172,-90.73117217657975" style="fill:none;stroke:rgb(0,0,0);stroke-width:1;stroke-linecap:round"></path><path d="M-197.14217063407003,-66.24591101741399L-197.14217063407003,-60.78899907922917L-198.41566777802637,-64.72255653901905z" style="fill:rgb(153,221,255); fill-opacity: 0.4"></path><path d="M242.63022494662027,54.288355526908845L242.63022494662027,59.74526746509366M242.63022494662027,59.74526746509366L241.35672780266393,61.26862194348862M242.63022931668675,54.28835403153107L242.63022931668675,59.74526596971589M242.63022931668675,59.74526596971589L241.35673217273043,61.26862044811085" style="fill:none;stroke:rgb(0,0,0);stroke-width:1;stroke-linecap:round"></path><path d="M15.033673155458459,189.24657886058696L82.95352083313013,108.0010066795227L82.95352083313013,-183.03429669033443z" style="fill:rgb(238,238,238); fill-opacity: 0.4"></path><path d="M164.67110281345236,56.40683444739408L241.35673217273043,61.268620448110845L241.35673217273043,55.81170850992602zM-197.14217063407003,-60.78899907922917L-198.41566777802637,-59.26564460083422L-198.41566777802637,-64.72255653901905z" style="fill:rgb(153,221,255); fill-opacity: 0.4"></path><path d="M242.63022494662027,54.288355526908845L241.35672780266393,55.8117100053038M242.63022931668675,54.28835403153107L241.35673217273043,55.81170850992603" style="fill:none;stroke:rgb(0,0,0);stroke-width:1;stroke-linecap:round"></path><path d="M241.35673217273043,61.268620448110845L242.63022931668678,59.74526596971589L242.63022931668678,54.28835403153107z" style="fill:rgb(153,221,255); fill-opacity: 0.4"></path><path d="M242.63023096980677,54.28835413633709L242.63023096980677,59.74526607452191L241.35673382585043,61.268620552916865z" style="fill:rgb(255,187,187); fill-opacity: 0.4"></path><path d="M-198.41566777802637,-64.72255653901905L-198.41566777802637,-59.26564460083423M-198.41566777802637,-59.26564460083423L-121.73003841874834,-54.403858600117466" style="fill:none;stroke:rgb(0,0,0);stroke-width:1;stroke-linecap:round"></path><path d="M-120.45654127479197,-55.92721307851241L-197.14217063407003,-60.78899907922917L-197.14217063407003,-66.24591101741399z" style="fill:rgb(153,221,255); fill-opacity: 0.4"></path><path d="M-198.41566777802637,-64.72255653901905L-121.73003841874834,-59.86077053830229" style="fill:none;stroke:rgb(0,0,0);stroke-width:1;stroke-linecap:round"></path><path d="M-198.41566777802637,-59.26564460083422L-197.14217063407003,-60.78899907922917L-120.45654127479197,-55.92721307851241zM241.35673217273043,55.81170850992602L241.35673217273043,61.268620448110845L242.63022931668678,54.28835403153107z" style="fill:rgb(153,221,255); fill-opacity: 0.4"></path><path d="M242.63023096980677,54.28835413633709L241.35673382585043,61.268620552916865L241.35673382585043,55.81170861473204z" style="fill:rgb(255,187,187); fill-opacity: 0.4"></path><path d="M241.35672780266393,61.26862194348862L241.35672780266393,55.8117100053038M241.35673217273043,55.81170850992603L241.35673217273043,61.26862044811085" style="fill:none;stroke:rgb(0,0,0);stroke-width:1;stroke-linecap:round"></path><path d="M-198.41566777802637,-64.72255653901905L-121.73003841874832,-59.86077053830229L-197.14217063407003,-66.24591101741399zM-198.41566777802637,-64.72255653901905L-198.41566777802637,-59.26564460083422L-121.73003841874832,-59.86077053830229zM-120.45654127479197,-61.38412501669724L-120.45654127479197,-55.92721307851241L-197.14217063407003,-66.24591101741399z" style="fill:rgb(153,221,255); fill-opacity: 0.4"></path><path d="M6.267891473852098,-187.8960826910512L6.267891473852098,103.13922067880596L-61.65195620381957,-106.65051050998692z" style="fill:rgb(238,238,238); fill-opacity: 0.4"></path><path d="M-121.73003841874832,-59.86077053830229L-120.45654127479197,-61.38412501669724L-197.14217063407003,-66.24591101741399zM-121.73003841874832,-54.40385860011746L-198.41566777802637,-59.26564460083422L-120.45654127479197,-55.92721307851241z" style="fill:rgb(153,221,255); fill-opacity: 0.4"></path><path d="M562.7726190213023,412.26609613232625L698.6123143766455,249.7749517701978L700.4562140758784,249.8918530177895zM317.11744660892253,396.6918237658223L452.9571419642659,234.2006794036938L452.9571419642659,-347.86992733602045z" style="fill:rgb(238,238,238); fill-opacity: 0.4"></path><path d="M-120.456541274792,-61.38412501669725L-120.456541274792,-55.92721307851242M-120.456541274792,-55.92721307851242L-121.73003841874834,-54.403858600117466M-120.45653895308176,-61.3841254298207L-120.45653895308176,-55.927213491635875M-120.45653895308176,-55.927213491635875L-121.7300360970381,-54.40385901324092M-120.45653895308176,-55.927213491635875L-19.04117371647249,-101.64080722886052" style="fill:none;stroke:rgb(0,0,0);stroke-width:1;stroke-linecap:round"></path><path d="M-198.41566777802637,-59.26564460083422L-121.73003841874832,-54.40385860011746L-121.73003841874832,-59.86077053830229z" style="fill:rgb(153,221,255); fill-opacity: 0.4"></path><path d="M-142.39868164998694,-60.39884404476237L-108.43875781115108,-101.0216301352945L-185.12438717042915,-105.88341613601126zM-316.81099575469045,-71.45639621133749L-316.81099575469045,74.06125547359107L-282.8510719158546,-112.07918230186962z" style="fill:rgb(238,238,238); fill-opacity: 0.4"></path><path d="M-120.456541274792,-61.38412501669725L-121.73003841874834,-59.86077053830229M-120.45653895308176,-61.3841254298207L-121.7300360970381,-59.86077095142575M-120.45653895308176,-61.3841254298207L-19.04117371647249,-101.64080722886052" style="fill:none;stroke:rgb(0,0,0);stroke-width:1;stroke-linecap:round"></path><path d="M-121.73003841874832,-54.40385860011746L-120.45654127479197,-55.92721307851241L-120.45654127479197,-61.38412501669724z" style="fill:rgb(153,221,255); fill-opacity: 0.4"></path><path d="M-120.45653962167192,-61.38412491189122L-120.45653962167192,-55.92721297370639L-121.73003676562828,-54.40385849531144z" style="fill:rgb(255,187,187); fill-opacity: 0.4"></path><path d="M-121.73003841874832,-59.86077053830229L-121.73003841874832,-54.40385860011746L-120.45654127479197,-61.38412501669724z" style="fill:rgb(153,221,255); fill-opacity: 0.4"></path><path d="M-120.45653962167192,-61.38412491189122L-121.73003676562828,-54.40385849531144L-121.73003676562828,-59.86077043349626z" style="fill:rgb(255,187,187); fill-opacity: 0.4"></path><path d="M-380.71569157670166,-75.50788484256337L-316.81099575469045,-71.45639621133749L-346.75576773786577,-116.1306709330955z" style="fill:rgb(238,238,238); fill-opacity: 0.4"></path><path d="M-121.73003841874834,-59.86077053830229L-121.73003841874834,-54.403858600117466M-121.7300360970381,-54.40385901324092L-121.7300360970381,-59.86077095142575M-121.7300360970381,-54.40385901324092L-19.04117371647249,-101.64080722886052" style="fill:none;stroke:rgb(0,0,0);stroke-width:1;stroke-linecap:round"></path><path d="M-142.39868164998694,85.1188076401662L-219.08431100926495,80.25702163944943L-108.43875781115108,44.496021549634065z" style="fill:rgb(238,238,238); fill-opacity: 0.4"></path><path d="M-380.7156915767016,-75.50788484256337L-380.7156915767016,70.00976684236518M-380.7156915767016,70.00976684236518L-316.81099575469045,74.06125547359107M-121.7300360970381,-59.86077095142575L-19.04117371647249,-101.64080722886052" style="fill:none;stroke:rgb(0,0,0);stroke-width:1;stroke-linecap:round"></path><path d="M-120.45653962167192,-55.92721297370639L-120.45653962167192,-61.38412491189122L-19.041174250506074,-101.64080614208292zM-121.73003676562828,-54.40385849531144L-120.45653962167192,-55.92721297370639L-19.041174250506074,-101.64080614208292z" style="fill:rgb(255,187,187); fill-opacity: 0.4"></path><path d="M-185.12438717042915,39.6342355489173L-219.08431100926495,80.25702163944943L-219.08431100926495,-65.26063004547913z" style="fill:rgb(238,238,238); fill-opacity: 0.4"></path><path d="M-120.45653962167192,-61.38412491189122L-121.73003676562828,-59.86077043349626L-19.041174250506074,-101.64080614208292zM-121.73003676562828,-59.86077043349626L-121.73003676562828,-54.40385849531144L-19.041174250506074,-101.64080614208292z" style="fill:rgb(255,187,187); fill-opacity: 0.4"></path><path d="M-316.81099575469045,-71.45639621133749L-316.81099575469045,74.06125547359107" style="fill:none;stroke:rgb(0,0,0);stroke-width:1;stroke-linecap:round"></path><path d="M189.44598988032175,200.30413119327736L257.3658375579934,119.05855901221312L257.3658375579934,-171.976744357644zM-380.71569157670166,70.0097668423652L-316.81099575469045,74.06125547359107L-316.81099575469045,-71.45639621133749zM465.96788488181335,406.12878063821364L601.8075802371567,243.63763627608515L601.8075802371567,-338.43297046362915zM180.68020819871538,-176.83853035836074L180.68020819871538,114.19677301149636L112.76036052104374,-95.59295817729651zM15.033673155458459,-101.78872450927017L82.95352083313013,-183.03429669033443L6.267891473852098,-187.8960826910512zM-380.71569157670166,-75.50788484256337L-380.71569157670166,70.0097668423652L-316.81099575469045,-71.45639621133749zM-142.39868164998694,-60.39884404476237L-142.39868164998694,85.1188076401662L-108.43875781115108,-101.0216301352945zM389.0524461422548,-351.92141596724633L389.0524461422548,230.14919077246793L253.21275078691147,-189.4302716051178z" style="fill:rgb(238,238,238); fill-opacity: 0.4"></path><path d="M-219.08431100926498,-65.26063004547913L-219.08431100926498,80.25702163944943M-219.08431100926498,80.25702163944943L-142.39868164998694,85.1188076401662" style="fill:none;stroke:rgb(0,0,0);stroke-width:1;stroke-linecap:round"></path><path d="M-219.08431100926495,-65.26063004547913L-142.39868164998694,-60.39884404476237L-185.12438717042915,-105.88341613601126zM15.033673155458459,189.24657886058696L-61.65195620381957,184.3847928598702L82.95352083313013,108.0010066795227z" style="fill:rgb(238,238,238); fill-opacity: 0.4"></path><path d="M-380.7156915767016,-75.50788484256337L-316.81099575469045,-71.45639621133749" style="fill:none;stroke:rgb(0,0,0);stroke-width:1;stroke-linecap:round"></path><path d="M564.6165187205352,412.382997379918L700.4562140758784,249.8918530177895L700.4562140758784,-332.17875372192475z" style="fill:rgb(238,238,238); fill-opacity: 0.4"></path><path d="M-142.39868164998694,-60.39884404476237L-142.39868164998694,85.1188076401662" style="fill:none;stroke:rgb(0,0,0);stroke-width:1;stroke-linecap:round"></path><path d="M6.267891473852098,103.13922067880596L-61.65195620381957,184.3847928598702L-61.65195620381957,-106.65051050998692zM-219.08431100926495,80.25702163944943L-142.39868164998694,85.1188076401662L-142.39868164998694,-60.39884404476237zM189.44598988032175,-90.73117217657975L257.3658375579934,-171.976744357644L180.68020819871538,-176.83853035836074zM-219.08431100926495,-65.26063004547913L-219.08431100926495,80.25702163944943L-142.39868164998694,-60.39884404476237zM550.6838249863315,-341.67416127942124L550.6838249863315,240.39644546029302L414.8441296309882,-179.18301691729272z" style="fill:rgb(238,238,238); fill-opacity: 0.4"></path><path d="M-219.08431100926498,-65.26063004547913L-142.39868164998694,-60.39884404476237" style="fill:none;stroke:rgb(0,0,0);stroke-width:1;stroke-linecap:round"></path><path d="M189.44598988032175,200.30413119327736L112.76036052104374,195.44234519256062L257.3658375579934,119.05855901221312zM180.68020819871538,114.19677301149636L112.76036052104374,195.44234519256062L112.76036052104374,-95.59295817729651zM317.11744660892253,-185.37878297389193L452.9571419642659,-347.86992733602045L389.0524461422548,-351.92141596724633zM15.033673155458459,-101.78872450927017L15.033673155458459,189.24657886058696L82.95352083313013,-183.03429669033443zM698.6123143766455,-332.29565496951653L698.6123143766455,249.7749517701978L562.7726190213023,-169.80451060738795z" style="fill:rgb(238,238,238); fill-opacity: 0.4"></path><path d="M33.119767243182416,-75.07492296984498L-43.565862116095616,-79.93670897056174M-43.565862116095616,-85.39362090874656L-43.565862116095616,-79.93670897056174M-43.565862116095616,-79.93670897056174L-44.83935926005196,-78.41335449216677" style="fill:none;stroke:rgb(0,0,0);stroke-width:1;stroke-linecap:round"></path><path d="M-61.65195620381957,-106.65051050998692L15.033673155458459,-101.78872450927017L6.267891473852098,-187.8960826910512z" style="fill:rgb(238,238,238); fill-opacity: 0.4"></path><path d="M33.119767243182416,-80.5318349080298L-43.565862116095616,-85.39362090874656M-43.565862116095616,-85.39362090874656L-44.83935926005196,-83.87026643035159" style="fill:none;stroke:rgb(0,0,0);stroke-width:1;stroke-linecap:round"></path><path d="M-43.56586211609561,-85.39362090874654L-43.56586211609561,-79.93670897056172L-44.839359260051964,-83.87026643035158z" style="fill:rgb(153,221,255); fill-opacity: 0.4"></path><path d="M317.11744660892253,396.6918237658223L253.21275078691147,392.64033513459646L452.9571419642659,234.2006794036938z" style="fill:rgb(238,238,238); fill-opacity: 0.4"></path><path d="M-43.56586211609561,-79.93670897056172L-44.839359260051964,-78.41335449216676L-44.839359260051964,-83.87026643035158z" style="fill:rgb(153,221,255); fill-opacity: 0.4"></path><path d="M-44.83935926005196,-83.87026643035159L-44.83935926005196,-78.41335449216677M-44.83935926005196,-78.41335449216677L31.846270099226075,-73.55156849145001M-61.651956203819566,-106.65051050998693L-61.651956203819566,184.3847928598702M-61.651956203819566,184.3847928598702L15.033673155458459,189.24657886058696" style="fill:none;stroke:rgb(0,0,0);stroke-width:1;stroke-linecap:round"></path><path d="M33.119767243182416,-75.07492296984498L-43.56586211609561,-79.93670897056172L-43.56586211609561,-85.39362090874654z" style="fill:rgb(153,221,255); fill-opacity: 0.4"></path><path d="M-44.83935926005196,-83.87026643035159L31.846270099226075,-79.00848042963483" style="fill:none;stroke:rgb(0,0,0);stroke-width:1;stroke-linecap:round"></path><path d="M-44.839359260051964,-78.41335449216676L-43.56586211609561,-79.93670897056172L33.119767243182416,-75.07492296984498zM-44.839359260051964,-83.87026643035158L31.84627009922607,-79.00848042963483L-43.56586211609561,-85.39362090874654zM-44.839359260051964,-83.87026643035158L-44.839359260051964,-78.41335449216676L31.84627009922607,-79.00848042963483zM33.119767243182416,-80.5318349080298L33.119767243182416,-75.07492296984498L-43.56586211609561,-85.39362090874654zM31.84627009922607,-79.00848042963483L33.119767243182416,-80.5318349080298L-43.56586211609561,-85.39362090874654zM31.84627009922607,-73.55156849145001L-44.839359260051964,-78.41335449216676L33.119767243182416,-75.07492296984498z" style="fill:rgb(153,221,255); fill-opacity: 0.4"></path><path d="M465.96788488181335,-175.9418261015006L601.8075802371567,-338.43297046362915L550.6838249863315,-341.67416127942124z" style="fill:rgb(238,238,238); fill-opacity: 0.4"></path><path d="M33.11977009926854,-80.53183522773686L33.11977009926854,-75.07492328955203M33.11977009926854,-75.07492328955203L31.8462729553122,-73.55156881115708M33.11977009926854,-75.07492328955203L130.209702069676,-70.84593612005679M33.119767243182416,-80.5318349080298L33.119767243182416,-75.07492296984498M33.119767243182416,-75.07492296984498L31.846270099226075,-73.55156849145001" style="fill:none;stroke:rgb(0,0,0);stroke-width:1;stroke-linecap:round"></path><path d="M-44.839359260051964,-78.41335449216676L31.84627009922607,-73.55156849145001L31.84627009922607,-79.00848042963483z" style="fill:rgb(153,221,255); fill-opacity: 0.4"></path><path d="M33.11977009926854,-80.53183522773686L31.8462729553122,-79.0084807493419M33.11977009926854,-80.53183522773686L130.209702069676,-70.84593612005679M33.119767243182416,-80.5318349080298L31.846270099226075,-79.00848042963483" style="fill:none;stroke:rgb(0,0,0);stroke-width:1;stroke-linecap:round"></path><path d="M31.84627009922607,-73.55156849145001L33.119767243182416,-75.07492296984498L33.119767243182416,-80.5318349080298z" style="fill:rgb(153,221,255); fill-opacity: 0.4"></path><path d="M33.11976889630246,-80.53183480322376L33.11976889630246,-75.07492286503894L31.846271752346112,-73.55156838664398z" style="fill:rgb(255,187,187); fill-opacity: 0.4"></path><path d="M31.84627009922607,-79.00848042963483L31.84627009922607,-73.55156849145001L33.119767243182416,-80.5318349080298z" style="fill:rgb(153,221,255); fill-opacity: 0.4"></path><path d="M33.11976889630246,-80.53183480322376L31.846271752346112,-73.55156838664398L31.846271752346112,-79.00848032482881z" style="fill:rgb(255,187,187); fill-opacity: 0.4"></path><path d="M31.8462729553122,-73.55156881115708L31.8462729553122,-79.0084807493419M31.8462729553122,-73.55156881115708L130.209702069676,-70.84593612005679M31.846270099226075,-79.00848042963483L31.846270099226075,-73.55156849145001" style="fill:none;stroke:rgb(0,0,0);stroke-width:1;stroke-linecap:round"></path><path d="M189.44598988032175,-90.73117217657975L189.44598988032175,200.30413119327736L257.3658375579934,-171.976744357644z" style="fill:rgb(238,238,238); fill-opacity: 0.4"></path><path d="M15.033673155458459,-101.78872450927017L15.033673155458459,189.24657886058696M31.8462729553122,-79.0084807493419L130.209702069676,-70.84593612005679" style="fill:none;stroke:rgb(0,0,0);stroke-width:1;stroke-linecap:round"></path><path d="M33.11976889630246,-75.07492286503894L33.11976889630246,-80.53183480322376L130.20970438366948,-70.84593547257226zM31.846271752346112,-73.55156838664398L33.11976889630246,-75.07492286503894L130.20970438366948,-70.84593547257226zM33.11976889630246,-80.53183480322376L31.846271752346112,-79.00848032482881L130.20970438366948,-70.84593547257226zM31.846271752346112,-79.00848032482881L31.846271752346112,-73.55156838664398L130.20970438366948,-70.84593547257226z" style="fill:rgb(255,187,187); fill-opacity: 0.4"></path><path d="M465.96788488181335,406.12878063821364L414.8441296309882,402.88758982242155L601.8075802371567,243.63763627608515zM112.76036052104374,-95.59295817729651L189.44598988032175,-90.73117217657975L180.68020819871538,-176.83853035836074zM564.6165187205352,-169.68760935979626L700.4562140758784,-332.17875372192475L698.6123143766455,-332.29565496951653z" style="fill:rgb(238,238,238); fill-opacity: 0.4"></path><path d="M112.76036052104372,-95.59295817729651L112.76036052104372,195.4423451925606M112.76036052104372,195.4423451925606L189.44598988032172,200.30413119327736" style="fill:none;stroke:rgb(0,0,0);stroke-width:1;stroke-linecap:round"></path><path d="M-61.65195620381957,184.3847928598702L15.033673155458459,189.24657886058696L15.033673155458459,-101.78872450927017zM389.0524461422548,230.14919077246793L253.21275078691147,392.64033513459646L253.21275078691147,-189.4302716051178z" style="fill:rgb(238,238,238); fill-opacity: 0.4"></path><path d="M189.44598988032172,-90.73117217657975L189.44598988032172,200.30413119327736" style="fill:none;stroke:rgb(0,0,0);stroke-width:1;stroke-linecap:round"></path><path d="M564.6165187205352,412.382997379918L562.7726190213023,412.26609613232625L700.4562140758784,249.8918530177895zM-61.65195620381957,-106.65051050998692L-61.65195620381957,184.3847928598702L15.033673155458459,-101.78872450927017zM112.76036052104374,195.44234519256062L189.44598988032175,200.30413119327736L189.44598988032175,-90.73117217657975zM550.6838249863315,240.39644546029302L414.8441296309882,402.88758982242155L414.8441296309882,-179.18301691729272z" style="fill:rgb(238,238,238); fill-opacity: 0.4"></path><path d="M-61.651956203819566,-106.65051050998693L15.033673155458459,-101.78872450927017" style="fill:none;stroke:rgb(0,0,0);stroke-width:1;stroke-linecap:round"></path><path d="M112.76036052104374,-95.59295817729651L112.76036052104374,195.44234519256062L189.44598988032175,-90.73117217657975zM698.6123143766455,249.7749517701978L562.7726190213023,412.26609613232625L562.7726190213023,-169.80451060738795zM317.11744660892253,-185.37878297389193L317.11744660892253,396.6918237658223L452.9571419642659,-347.86992733602045z" style="fill:rgb(238,238,238); fill-opacity: 0.4"></path><path d="M112.76036052104372,-95.59295817729651L189.44598988032172,-90.73117217657975" style="fill:none;stroke:rgb(0,0,0);stroke-width:1;stroke-linecap:round"></path><path d="M465.96788488181335,-175.9418261015006L465.96788488181335,406.12878063821364L601.8075802371567,-338.43297046362915zM253.21275078691147,-189.4302716051178L317.11744660892253,-185.37878297389193L389.0524461422548,-351.92141596724633zM564.6165187205352,-169.68760935979626L564.6165187205352,412.382997379918L700.4562140758784,-332.17875372192475z" style="fill:rgb(238,238,238); fill-opacity: 0.4"></path><path d="M253.21275078691144,-189.4302716051178L253.21275078691144,392.64033513459646M253.21275078691144,392.64033513459646L317.11744660892253,396.69182376582233M317.11744660892253,-185.37878297389196L317.11744660892253,396.69182376582233" style="fill:none;stroke:rgb(0,0,0);stroke-width:1;stroke-linecap:round"></path><path d="M414.8441296309882,-179.18301691729272L465.96788488181335,-175.9418261015006L550.6838249863315,-341.67416127942124z" style="fill:rgb(238,238,238); fill-opacity: 0.4"></path><path d="M414.8441296309882,-179.18301691729272L414.8441296309882,402.88758982242155M414.8441296309882,402.88758982242155L465.96788488181335,406.1287806382137" style="fill:none;stroke:rgb(0,0,0);stroke-width:1;stroke-linecap:round"></path><path d="M562.7726190213023,-169.80451060738795L564.6165187205352,-169.68760935979626L698.6123143766455,-332.29565496951653z" style="fill:rgb(238,238,238); fill-opacity: 0.4"></path><path d="M465.96788488181335,-175.94182610150062L465.96788488181335,406.1287806382137" style="fill:none;stroke:rgb(0,0,0);stroke-width:1;stroke-linecap:round"></path><path d="M253.21275078691147,392.64033513459646L317.11744660892253,396.6918237658223L317.11744660892253,-185.37878297389193z" style="fill:rgb(238,238,238); fill-opacity: 0.4"></path><path d="M335.5898387021987,-122.70570189580536L271.6851428801876,-126.75719052703124M271.6851428801876,-132.2141024652161L271.6851428801876,-126.75719052703124M271.6851428801876,-126.75719052703124L270.41164573623126,-125.23383604863629M335.5898387021987,-128.16261383399018L271.6851428801876,-132.2141024652161M271.6851428801876,-132.2141024652161L270.41164573623126,-130.69074798682112" style="fill:none;stroke:rgb(0,0,0);stroke-width:1;stroke-linecap:round"></path><path d="M271.68514288018764,-132.2141024652161L271.68514288018764,-126.75719052703126L270.4116457362313,-130.69074798682112z" style="fill:rgb(153,221,255); fill-opacity: 0.4"></path><path d="M562.7726190213023,-169.80451060738798L562.7726190213023,412.26609613232625M562.7726190213023,412.26609613232625L564.616518720535,412.382997379918M564.616518720535,-169.68760935979626L564.616518720535,412.382997379918" style="fill:none;stroke:rgb(0,0,0);stroke-width:1;stroke-linecap:round"></path><path d="M271.68514288018764,-126.75719052703126L270.4116457362313,-125.23383604863629L270.4116457362313,-130.69074798682112zM335.5898387021988,-122.70570189580538L271.68514288018764,-126.75719052703126L271.68514288018764,-132.2141024652161z" style="fill:rgb(153,221,255); fill-opacity: 0.4"></path><path d="M488.49222979523483,-70.79282561455886L437.36847454440976,-74.03401643035099M437.36847454440976,-79.49092836853582L437.36847454440976,-74.03401643035099M437.36847454440976,-74.03401643035099L436.09497740045344,-72.51066195195604M270.41164573623126,-130.69074798682112L270.41164573623126,-125.23383604863629M270.41164573623126,-125.23383604863629L334.31634155824236,-121.1823474174104" style="fill:none;stroke:rgb(0,0,0);stroke-width:1;stroke-linecap:round"></path><path d="M270.4116457362313,-125.23383604863629L271.68514288018764,-126.75719052703126L335.5898387021988,-122.70570189580538z" style="fill:rgb(153,221,255); fill-opacity: 0.4"></path><path d="M488.49222979523483,-76.24973755274368L437.36847454440976,-79.49092836853582M437.36847454440976,-79.49092836853582L436.09497740045344,-77.96757389014086M270.41164573623126,-130.69074798682112L334.31634155824236,-126.63925935559524" style="fill:none;stroke:rgb(0,0,0);stroke-width:1;stroke-linecap:round"></path><path d="M437.36847454440976,-79.49092836853582L437.36847454440976,-74.03401643035099L436.09497740045344,-77.96757389014086zM437.36847454440976,-74.03401643035099L436.09497740045344,-72.51066195195604L436.09497740045344,-77.96757389014086zM488.4922297952349,-70.79282561455888L437.36847454440976,-74.03401643035099L437.36847454440976,-79.49092836853582zM270.4116457362313,-130.69074798682112L334.3163415582424,-126.63925935559524L271.68514288018764,-132.2141024652161zM335.5898387021988,-128.1626138339902L335.5898387021988,-122.70570189580538L271.68514288018764,-132.2141024652161z" style="fill:rgb(153,221,255); fill-opacity: 0.4"></path><path d="M436.09497740045344,-77.96757389014086L436.09497740045344,-72.51066195195604M436.09497740045344,-72.51066195195604L487.21873265127846,-69.2694711361639" style="fill:none;stroke:rgb(0,0,0);stroke-width:1;stroke-linecap:round"></path><path d="M436.09497740045344,-72.51066195195604L437.36847454440976,-74.03401643035099L488.4922297952349,-70.79282561455888zM270.4116457362313,-130.69074798682112L270.4116457362313,-125.23383604863629L334.3163415582424,-126.63925935559524z" style="fill:rgb(153,221,255); fill-opacity: 0.4"></path><path d="M436.09497740045344,-77.96757389014086L487.21873265127846,-74.72638307434872" style="fill:none;stroke:rgb(0,0,0);stroke-width:1;stroke-linecap:round"></path><path d="M334.3163415582424,-126.63925935559524L335.5898387021988,-128.1626138339902L271.68514288018764,-132.2141024652161zM334.3163415582424,-121.18234741741041L270.4116457362313,-125.23383604863629L335.5898387021988,-122.70570189580538zM488.4922297952349,-76.2497375527437L488.4922297952349,-70.79282561455888L437.36847454440976,-79.49092836853582z" style="fill:rgb(153,221,255); fill-opacity: 0.4"></path><path d="M335.5898420042712,-128.16261166794885L335.5898420042712,-122.70569972976402M335.5898420042712,-122.70569972976402L334.3163448603149,-121.18234525136907M335.5898420042712,-122.70569972976402L432.6797774916382,-118.47671233729733M335.5898387021987,-128.16261383399018L335.5898387021987,-122.70570189580536M335.5898387021987,-122.70570189580536L334.31634155824236,-121.1823474174104" style="fill:none;stroke:rgb(0,0,0);stroke-width:1;stroke-linecap:round"></path><path d="M436.09497740045344,-77.96757389014086L487.2187326512785,-74.72638307434873L437.36847454440976,-79.49092836853582zM270.4116457362313,-125.23383604863629L334.3163415582424,-121.18234741741041L334.3163415582424,-126.63925935559524zM436.09497740045344,-77.96757389014086L436.09497740045344,-72.51066195195604L487.2187326512785,-74.72638307434873z" style="fill:rgb(153,221,255); fill-opacity: 0.4"></path><path d="M335.5898420042712,-128.16261166794885L334.3163448603149,-126.63925718955389M335.5898420042712,-128.16261166794885L432.6797774916382,-118.47671233729733M335.5898387021987,-128.16261383399018L334.31634155824236,-126.63925935559524" style="fill:none;stroke:rgb(0,0,0);stroke-width:1;stroke-linecap:round"></path><path d="M487.2187326512785,-74.72638307434873L488.4922297952349,-76.2497375527437L437.36847454440976,-79.49092836853582zM487.2187326512785,-69.26947113616392L436.09497740045344,-72.51066195195604L488.4922297952349,-70.79282561455888z" style="fill:rgb(153,221,255); fill-opacity: 0.4"></path><path d="M335.58983773515905,-128.16261389529947L335.58983773515905,-122.70570195711466L334.31634059120273,-121.18234747871969z" style="fill:rgb(255,187,187); fill-opacity: 0.4"></path><path d="M334.3163415582424,-121.18234741741041L335.5898387021988,-122.70570189580538L335.5898387021988,-128.1626138339902z" style="fill:rgb(153,221,255); fill-opacity: 0.4"></path><path d="M488.492241098905,-76.24973954719276L488.492241098905,-70.79282760900794M488.492241098905,-70.79282760900794L487.2187439549487,-69.269473130613M488.492241098905,-70.79282760900794L585.5821765862721,-66.56384021654125M488.49222979523483,-76.24973755274368L488.49222979523483,-70.79282561455886M488.49222979523483,-70.79282561455886L487.21873265127846,-69.2694711361639M488.492241098905,-76.24973954719276L487.2187439549487,-74.72638506879781M488.492241098905,-76.24973954719276L585.5821765862721,-66.56384021654125M488.49222979523483,-76.24973755274368L487.21873265127846,-74.72638307434872" style="fill:none;stroke:rgb(0,0,0);stroke-width:1;stroke-linecap:round"></path><path d="M436.09497740045344,-72.51066195195604L487.2187326512785,-69.26947113616392L487.2187326512785,-74.72638307434873z" style="fill:rgb(153,221,255); fill-opacity: 0.4"></path><path d="M335.58983773515905,-128.16261389529947L334.31634059120273,-121.18234747871969L334.31634059120273,-126.63925941690451z" style="fill:rgb(255,187,187); fill-opacity: 0.4"></path><path d="M334.3163415582424,-126.63925935559524L334.3163415582424,-121.18234741741041L335.5898387021988,-128.1626138339902z" style="fill:rgb(153,221,255); fill-opacity: 0.4"></path><path d="M488.49222972499496,-76.24973755719681L488.49222972499496,-70.79282561901199L487.21873258103864,-69.26947114061703z" style="fill:rgb(255,187,187); fill-opacity: 0.4"></path><path d="M487.2187326512785,-69.26947113616392L488.4922297952349,-70.79282561455888L488.4922297952349,-76.2497375527437z" style="fill:rgb(153,221,255); fill-opacity: 0.4"></path><path d="M334.3163448603149,-121.18234525136907L334.3163448603149,-126.63925718955389M334.3163448603149,-121.18234525136907L432.6797774916382,-118.47671233729733M334.31634155824236,-126.63925935559524L334.31634155824236,-121.1823474174104M334.3163448603149,-126.63925718955389L432.6797774916382,-118.47671233729733" style="fill:none;stroke:rgb(0,0,0);stroke-width:1;stroke-linecap:round"></path><path d="M488.49222972499496,-76.24973755719681L487.21873258103864,-69.26947114061703L487.21873258103864,-74.72638307880185z" style="fill:rgb(255,187,187); fill-opacity: 0.4"></path><path d="M487.2187326512785,-74.72638307434873L487.2187326512785,-69.26947113616392L488.4922297952349,-76.2497375527437z" style="fill:rgb(153,221,255); fill-opacity: 0.4"></path><path d="M487.2187439549487,-69.269473130613L487.2187439549487,-74.72638506879781M487.2187439549487,-69.269473130613L585.5821765862721,-66.56384021654125M487.21873265127846,-74.72638307434872L487.21873265127846,-69.2694711361639" style="fill:none;stroke:rgb(0,0,0);stroke-width:1;stroke-linecap:round"></path><path d="M335.58983773515905,-122.70570195711466L335.58983773515905,-128.16261389529947L432.6797732225261,-118.47671456464796z" style="fill:rgb(255,187,187); fill-opacity: 0.4"></path><path d="M487.2187439549487,-74.72638506879781L585.5821765862721,-66.56384021654125" style="fill:none;stroke:rgb(0,0,0);stroke-width:1;stroke-linecap:round"></path><path d="M334.31634059120273,-121.18234747871969L335.58983773515905,-122.70570195711466L432.6797732225261,-118.47671456464796zM335.58983773515905,-128.16261389529947L334.31634059120273,-126.63925941690451L432.6797732225261,-118.47671456464796zM488.49222972499496,-70.79282561901199L488.49222972499496,-76.24973755719681L585.5821652123619,-66.56383822654531zM334.31634059120273,-126.63925941690451L334.31634059120273,-121.18234747871969L432.6797732225261,-118.47671456464796zM487.21873258103864,-69.26947114061703L488.49222972499496,-70.79282561901199L585.5821652123619,-66.56383822654531zM488.49222972499496,-76.24973755719681L487.21873258103864,-74.72638307880185L585.5821652123619,-66.56383822654531zM487.21873258103864,-74.72638307880185L487.21873258103864,-69.26947114061703L585.5821652123619,-66.56383822654531z" style="fill:rgb(255,187,187); fill-opacity: 0.4"></path><path d="M414.8441296309882,402.88758982242155L465.96788488181335,406.12878063821364L465.96788488181335,-175.9418261015006zM253.21275078691147,-189.4302716051178L253.21275078691147,392.64033513459646L317.11744660892253,-185.37878297389193zM562.7726190213023,412.26609613232625L564.6165187205352,412.382997379918L564.6165187205352,-169.68760935979626zM414.8441296309882,-179.18301691729272L414.8441296309882,402.88758982242155L465.96788488181335,-175.9418261015006z" style="fill:rgb(238,238,238); fill-opacity: 0.4"></path><path d="M253.21275078691144,-189.4302716051178L317.11744660892253,-185.37878297389196" style="fill:none;stroke:rgb(0,0,0);stroke-width:1;stroke-linecap:round"></path><path d="M562.7726190213023,-169.80451060738795L562.7726190213023,412.26609613232625L564.6165187205352,-169.68760935979626z" style="fill:rgb(238,238,238); fill-opacity: 0.4"></path><path d="M414.8441296309882,-179.18301691729272L465.96788488181335,-175.94182610150062M562.7726190213023,-169.80451060738798L564.616518720535,-169.68760935979626" style="fill:none;stroke:rgb(0,0,0);stroke-width:1;stroke-linecap:round"></path></svg>