<?xml version="1.0" encoding="UTF-8" standalone="no"?>
<svg
   viewBox="-1280 -643.5 467.41351 346.62607"
   width="467.41351"
   height="346.62607"
   version="1.1"
   id="svg184"
   sodipodi:docname="nn.svg"
   inkscape:export-filename="nn.png"
   inkscape:export-xdpi="100"
   inkscape:export-ydpi="100"
   inkscape:version="1.3 (0e150ed6c4, 2023-07-21)"
   xmlns:inkscape="http://www.inkscape.org/namespaces/inkscape"
   xmlns:sodipodi="http://sodipodi.sourceforge.net/DTD/sodipodi-0.dtd"
   xmlns="http://www.w3.org/2000/svg"
   xmlns:svg="http://www.w3.org/2000/svg">
  <defs
     id="defs184" />
  <sodipodi:namedview
     id="namedview184"
     pagecolor="#ffffff"
     bordercolor="#000000"
     borderopacity="0.25"
     inkscape:showpageshadow="2"
     inkscape:pageopacity="0.0"
     inkscape:pagecheckerboard="0"
     inkscape:deskcolor="#d1d1d1"
     inkscape:zoom="1.309375"
     inkscape:cx="140.1432"
     inkscape:cy="147.78043"
     inkscape:window-width="1920"
     inkscape:window-height="1011"
     inkscape:window-x="0"
     inkscape:window-y="0"
     inkscape:window-maximized="1"
     inkscape:current-layer="svg184" />
  <path
     d="m -1220.9021,-372.41708 -0.6927,-0.0576 m 0,-200.3818 v 200.38176 m 0,0 -58.2186,70.21821 m 58.9113,-270.54238 v 200.38181 m 0,0 -58.2186,70.21821 m 119.978,-65.07988 -24.0072,-1.99738 m 0,-200.38181 v 200.38181 m 0,0 -58.2186,70.21821 m 82.2258,-268.60263 v 200.3818 m 0,0 -58.2186,70.21821"
     style="fill:none;stroke:#000000;stroke-width:0.373202;stroke-linecap:round"
     id="path1" />
  <path
     d="m -1220.9021,-372.41708 -0.6927,-0.0576 v -200.38184 z m 61.7594,5.13833 -24.0072,-1.99738 v -200.38181 z m -61.7594,-205.52014 v 200.38181 l -0.6927,-200.43944 z m 61.7594,5.13834 v 200.3818 l -24.0072,-202.37919 z m -120.6707,265.40404 58.2186,-70.21821 0.6927,0.0576 z"
     style="fill:#eeeeee;fill-opacity:0.4;stroke-width:0.373202"
     id="path2" />
  <path
     d="m -1220.9021,-572.79889 -0.6927,-0.0576 m 0,0 -58.2186,70.21821 m 58.9113,-70.16058 -58.2186,70.21821"
     style="fill:none;stroke:#000000;stroke-width:0.373202;stroke-linecap:round"
     id="path3" />
  <path
     d="m -1241.3685,-299.05792 58.2186,-70.21821 24.0072,1.99738 z"
     style="fill:#eeeeee;fill-opacity:0.4;stroke-width:0.373202"
     id="path4" />
  <path
     d="m -1159.1427,-567.66055 -24.0072,-1.99739 m 0,0 -58.2186,70.21822 m 82.2258,-68.22083 -58.2186,70.21821"
     style="fill:none;stroke:#000000;stroke-width:0.373202;stroke-linecap:round"
     id="path5" />
  <path
     d="m -1279.1207,-302.19887 58.2186,-70.21821 v -200.38181 z"
     style="fill:#eeeeee;fill-opacity:0.4;stroke-width:0.373202"
     id="path6" />
  <path
     d="m -1111.5916,-394.65249 -24.0072,-1.99738 m 0,-100.19091 v 100.19091 m 0,0 -29.1093,35.1091 m 53.1165,-133.30263 v 100.19091 m 0,0 -29.1093,35.1091"
     style="fill:none;stroke:#000000;stroke-width:0.373202;stroke-linecap:round"
     id="path7" />
  <path
     d="m -1217.3613,-297.06054 58.2186,-70.21821 v -200.3818 z m 105.7697,-97.59195 -24.0072,-1.99738 v -100.19091 z"
     style="fill:#eeeeee;fill-opacity:0.4;stroke-width:0.373202"
     id="path8" />
  <path
     d="m -1044.6844,-389.08586 -28.8086,-2.39686 m 0,-100.19091 v 100.19091 m 0,0 -29.1093,35.10911 m 57.9179,-132.90316 v 100.19091 m 0,0 -29.1093,35.1091"
     style="fill:none;stroke:#000000;stroke-width:0.373202;stroke-linecap:round"
     id="path9" />
  <path
     d="m -1221.5948,-572.85652 v 200.3818 l -58.2186,-130.16359 z m 110.0032,78.01312 v 100.19091 l -24.0072,-102.18829 z m 66.9072,105.75754 -28.8086,-2.39686 v -100.19091 z m -138.4655,-180.57208 v 200.38181 l -58.2186,-130.16359 z"
     style="fill:#eeeeee;fill-opacity:0.4;stroke-width:0.373202"
     id="path10" />
  <path
     d="m -1245.8928,-450.43699 -0.6927,-0.0576 m 0,-1.87858 v 1.87858 m 0,0 -0.5458,0.6583 m 0.8922,-2.50806 v 1.87858 m 0,0 -0.5458,0.65829 m 0.5458,-0.65829 37.8256,2.55963 m -37.4793,-4.4094 v 1.87858 m 0,0 -0.5458,0.6583"
     style="fill:none;stroke:#000000;stroke-width:0.373202;stroke-linecap:round"
     id="path11" />
  <path
     d="m -1245.8928,-450.43699 -0.6927,-0.0576 v -1.87858 z m 0,-1.87858 v 1.87858 l -0.6927,-1.93621 z m -1.2385,2.47925 0.5458,-0.6583 0.6927,0.0576 z"
     style="fill:#99ddff;fill-opacity:0.4;stroke-width:0.373202"
     id="path12" />
  <path
     d="m -1245.8928,-452.31557 -0.6927,-0.0576 m 0,0 -0.5458,0.65829 m 0.8922,-0.62947 -0.5458,0.65829 m 0.5458,-0.65829 37.8256,4.43821 m -37.4793,-4.4094 -0.5458,0.6583"
     style="fill:none;stroke:#000000;stroke-width:0.373202;stroke-linecap:round"
     id="path13" />
  <path
     d="m -1246.2391,-452.34438 v 1.87857 l -0.5458,0.6583 z"
     style="fill:#ffbbbb;fill-opacity:0.4;stroke-width:0.373202"
     id="path14" />
  <path
     d="m -1246.4386,-449.77869 0.5458,-0.6583 v -1.87858 z m -0.1469,-2.59451 v 1.87858 l -0.5458,-1.22029 z m 0.1469,2.59451 -0.6927,-0.0576 1.2385,-0.60067 z m 0,-1.87859 0.5458,-0.65829 -0.6927,-0.0576 z m -0.1469,1.16266 -0.5458,0.6583 v -1.87859 z"
     style="fill:#99ddff;fill-opacity:0.4;stroke-width:0.373202"
     id="path15" />
  <path
     d="m -1164.7081,-361.54077 29.1093,-35.1091 24.0072,1.99738 z"
     style="fill:#eeeeee;fill-opacity:0.4;stroke-width:0.373202"
     id="path16" />
  <path
     d="m -1246.2391,-452.34438 -0.5458,2.53687 v -1.87858 z"
     style="fill:#ffbbbb;fill-opacity:0.4;stroke-width:0.373202"
     id="path17" />
  <path
     d="m -1247.1313,-451.71491 v 1.87859 m 0,0 0.6927,0.0576"
     style="fill:none;stroke:#000000;stroke-width:0.373202;stroke-linecap:round"
     id="path18" />
  <path
     d="m -1246.4386,-451.65728 v 1.87859 l 0.5458,-2.53688 z"
     style="fill:#99ddff;fill-opacity:0.4;stroke-width:0.373202"
     id="path19" />
  <path
     d="m -1246.7849,-449.80751 v -1.87858 m 0,1.87858 38.3714,1.90134"
     style="fill:none;stroke:#000000;stroke-width:0.373202;stroke-linecap:round"
     id="path20" />
  <path
     d="m -1247.1313,-451.71491 0.6927,0.0576 -0.1469,-0.71592 z"
     style="fill:#99ddff;fill-opacity:0.4;stroke-width:0.373202"
     id="path21" />
  <path
     d="m -1246.4386,-451.65728 v 1.87859"
     style="fill:none;stroke:#000000;stroke-width:0.373202;stroke-linecap:round"
     id="path22" />
  <path
     d="m -1247.1313,-449.83632 0.6927,0.0576 v -1.87859 z m 0,-1.87859 v 1.87859 l 0.6927,-1.82096 z"
     style="fill:#99ddff;fill-opacity:0.4;stroke-width:0.373202"
     id="path23" />
  <path
     d="m -1247.1313,-451.71491 0.6927,0.0576 m -0.3463,-0.0288 38.3714,3.77992 m 96.8219,-46.93723 -24.0072,-1.99738 m 0,0 -29.1093,35.10911"
     style="fill:none;stroke:#000000;stroke-width:0.373202;stroke-linecap:round"
     id="path24" />
  <path
     d="m -1246.2391,-450.46581 v -1.87857 l 37.8256,4.43821 z m -0.5458,0.6583 0.5458,-0.6583 37.8256,2.55964 z m 0.5458,-2.53687 -0.5458,0.65829 38.3714,3.77992 z m -0.5458,0.65829 v 1.87858 l 38.3714,1.90134 z"
     style="fill:#ffbbbb;fill-opacity:0.4;stroke-width:0.373202"
     id="path25" />
  <path
     d="m -1279.1207,-302.19887 -0.6927,-0.0576 58.9113,-70.16058 z"
     style="fill:#eeeeee;fill-opacity:0.4;stroke-width:0.373202"
     id="path26" />
  <path
     d="m -1111.5916,-494.8434 -29.1093,35.10911"
     style="fill:none;stroke:#000000;stroke-width:0.373202;stroke-linecap:round"
     id="path27" />
  <path
     d="m -1044.6844,-489.27677 v 100.19091 l -28.8086,-102.58777 z m -234.4363,-13.30391 58.2186,-70.21821 -0.6927,-0.0576 z m 176.5184,146.20707 29.1093,-35.10911 28.8086,2.39686 z m -38.0986,-3.16978 29.1093,-35.1091 V -494.8434 Z"
     style="fill:#eeeeee;fill-opacity:0.4;stroke-width:0.373202"
     id="path28" />
  <path
     d="m -1044.6844,-489.27677 -28.8086,-2.39686 m 0,0 -29.1093,35.10911"
     style="fill:none;stroke:#000000;stroke-width:0.373202;stroke-linecap:round"
     id="path29" />
  <path
     d="m -1217.3613,-297.06054 -24.0072,-1.99738 82.2258,-68.22083 z m 81.7625,-199.78024 v 100.19091 l -29.1093,-65.0818 z"
     style="fill:#eeeeee;fill-opacity:0.4;stroke-width:0.373202"
     id="path30" />
  <path
     d="m -1044.6844,-489.27677 -29.1093,35.10911"
     style="fill:none;stroke:#000000;stroke-width:0.373202;stroke-linecap:round"
     id="path31" />
  <path
     d="m -1217.3613,-497.44234 58.2186,-70.21821 -24.0072,-1.99739 z"
     style="fill:#eeeeee;fill-opacity:0.4;stroke-width:0.373202"
     id="path32" />
  <path
     d="m -985.05451,-399.78968 -28.80859,-2.39686 m 0,-50.09545 v 50.09545 m 0,0 -14.5547,17.55455"
     style="fill:none;stroke:#000000;stroke-width:0.373202;stroke-linecap:round"
     id="path33" />
  <path
     d="m -1221.5948,-372.47472 -58.2186,70.21821 v -200.3818 z m 147.8011,18.49796 29.1093,-35.1091 v -100.19091 z m -66.9072,-5.56663 -24.0072,-1.99738 53.1165,-33.11172 z"
     style="fill:#eeeeee;fill-opacity:0.4;stroke-width:0.373202"
     id="path34" />
  <path
     d="m -985.05451,-449.88514 v 50.09546 m 0,0 -14.55465,17.55455"
     style="fill:none;stroke:#000000;stroke-width:0.373202;stroke-linecap:round"
     id="path35" />
  <path
     d="m -1073.493,-491.67363 v 100.19091 l -29.1093,-65.0818 z"
     style="fill:#eeeeee;fill-opacity:0.4;stroke-width:0.373202"
     id="path36" />
  <path
     d="m -1127.999,-420.49989 -24.0072,-1.99738 m 0,-1.87858 v 1.87858 m 0,0 -0.5458,0.65829"
     style="fill:none;stroke:#000000;stroke-width:0.373202;stroke-linecap:round"
     id="path37" />
  <path
     d="m -985.05451,-399.78968 -28.80859,-2.39686 v -50.09545 z"
     style="fill:#eeeeee;fill-opacity:0.4;stroke-width:0.373202"
     id="path38" />
  <path
     d="m -1127.999,-422.37847 -24.0072,-1.99738 m 0,0 -0.5458,0.65829"
     style="fill:none;stroke:#000000;stroke-width:0.373202;stroke-linecap:round"
     id="path39" />
  <path
     d="m -1152.0062,-424.37585 v 1.87858 l -0.5458,-1.22029 z"
     style="fill:#99ddff;fill-opacity:0.4;stroke-width:0.373202"
     id="path40" />
  <path
     d="m -1140.7009,-459.73429 29.1093,-35.10911 -24.0072,-1.99738 z m -42.449,90.45816 -58.2186,70.21821 v -200.3818 z"
     style="fill:#eeeeee;fill-opacity:0.4;stroke-width:0.373202"
     id="path41" />
  <path
     d="m -1152.0062,-422.49727 -0.5458,0.65829 v -1.87858 z"
     style="fill:#99ddff;fill-opacity:0.4;stroke-width:0.373202"
     id="path42" />
  <path
     d="m -1152.552,-423.71756 v 1.87858 m 0,0 24.0072,1.99738"
     style="fill:none;stroke:#000000;stroke-width:0.373202;stroke-linecap:round"
     id="path43" />
  <path
     d="m -1127.999,-420.49989 -24.0072,-1.99738 v -1.87858 z m -24.553,-1.33909 0.5458,-0.65829 24.0072,1.99738 z"
     style="fill:#99ddff;fill-opacity:0.4;stroke-width:0.373202"
     id="path44" />
  <path
     d="m -1152.552,-423.71756 24.0072,1.99738"
     style="fill:none;stroke:#000000;stroke-width:0.373202;stroke-linecap:round"
     id="path45" />
  <path
     d="m -1152.552,-423.71756 24.0072,1.99738 -23.4614,-2.65567 z m 0,0 v 1.87858 l 24.0072,0.1188 z m 24.553,1.33909 v 1.87858 l -24.0072,-3.87596 z m -0.5458,2.53687 -24.0072,-1.99738 24.553,1.33909 z m 0,-1.87858 0.5458,-0.65829 -24.0072,-1.99738 z"
     style="fill:#99ddff;fill-opacity:0.4;stroke-width:0.373202"
     id="path46" />
  <path
     d="m -1127.999,-422.37847 v 1.87858 m 0,0 -0.5458,0.65829 m 0.5458,-2.53687 v 1.87858 m 0,0 -0.5458,0.65829 m 0.5458,-0.65829 37.8257,2.55962"
     style="fill:none;stroke:#000000;stroke-width:0.373202;stroke-linecap:round"
     id="path47" />
  <path
     d="m -1135.5988,-396.64987 -29.1093,35.1091 v -100.1909 z"
     style="fill:#eeeeee;fill-opacity:0.4;stroke-width:0.373202"
     id="path48" />
  <path
     d="m -1152.552,-421.83898 24.0072,1.99738 v -1.87858 z"
     style="fill:#99ddff;fill-opacity:0.4;stroke-width:0.373202"
     id="path49" />
  <path
     d="m -1127.999,-422.37847 -0.5458,0.65829 m 0.5458,-0.65829 -0.5458,0.65829 m 0.5458,-0.65829 37.8257,4.4382"
     style="fill:none;stroke:#000000;stroke-width:0.373202;stroke-linecap:round"
     id="path50" />
  <path
     d="m -1127.999,-422.37847 v 1.87858 l -0.5458,0.65829 z"
     style="fill:#ffbbbb;fill-opacity:0.4;stroke-width:0.373202"
     id="path51" />
  <path
     d="m -1128.5448,-419.8416 0.5458,-0.65829 v -1.87858 z"
     style="fill:#99ddff;fill-opacity:0.4;stroke-width:0.373202"
     id="path52" />
  <path
     d="m -918.14731,-394.22306 -28.80864,-2.39686 m 0,-50.09545 v 50.09545 m 0,0 -14.55463,17.55456"
     style="fill:none;stroke:#000000;stroke-width:0.373202;stroke-linecap:round"
     id="path53" />
  <path
     d="m -1127.999,-422.37847 -0.5458,2.53687 v -1.87858 z"
     style="fill:#ffbbbb;fill-opacity:0.4;stroke-width:0.373202"
     id="path54" />
  <path
     d="m -1128.5448,-421.72018 v 1.87858 l 0.5458,-2.53687 z"
     style="fill:#99ddff;fill-opacity:0.4;stroke-width:0.373202"
     id="path55" />
  <path
     d="m -1128.5448,-421.72018 v 1.87858 m 0,0 v -1.87858 m 0,1.87858 38.3715,1.90133 m -38.3715,-3.77991 38.3715,3.77991"
     style="fill:none;stroke:#000000;stroke-width:0.373202;stroke-linecap:round"
     id="path56" />
  <path
     d="m -985.05451,-449.88514 v 50.09546 l -28.80859,-52.49231 z"
     style="fill:#eeeeee;fill-opacity:0.4;stroke-width:0.373202"
     id="path57" />
  <path
     d="m -1127.999,-420.49989 v -1.87858 l 37.8257,4.4382 z m -0.5458,0.65829 0.5458,-0.65829 37.8257,2.55962 z m 0.5458,-2.53687 -0.5458,0.65829 38.3715,3.77991 z"
     style="fill:#ffbbbb;fill-opacity:0.4;stroke-width:0.373202"
     id="path58" />
  <path
     d="m -985.05451,-449.88514 -28.80859,-2.39685 m 0,0 -14.5547,17.55454"
     style="fill:none;stroke:#000000;stroke-width:0.373202;stroke-linecap:round"
     id="path59" />
  <path
     d="m -1028.4178,-384.63199 14.5547,-17.55455 28.80859,2.39686 z"
     style="fill:#eeeeee;fill-opacity:0.4;stroke-width:0.373202"
     id="path60" />
  <path
     d="m -1128.5448,-421.72018 v 1.87858 l 38.3715,1.90133 z"
     style="fill:#ffbbbb;fill-opacity:0.4;stroke-width:0.373202"
     id="path61" />
  <path
     d="m -986.69808,-434.44457 -28.80862,-2.39685 m 0,-1.87858 v 1.87858 m 0,0 -0.5458,0.65829 m 29.35442,-0.14002 -28.80862,-2.39685 m 0,0 -0.5458,0.6583"
     style="fill:none;stroke:#000000;stroke-width:0.373202;stroke-linecap:round"
     id="path62" />
  <path
     d="m -1015.5067,-438.72 v 1.87858 l -0.5458,-1.22028 z m 0,1.87858 -0.5458,0.65829 v -1.87857 z"
     style="fill:#99ddff;fill-opacity:0.4;stroke-width:0.373202"
     id="path63" />
  <path
     d="m -1073.7937,-353.97676 -28.8086,-2.39685 57.9179,-32.71225 z"
     style="fill:#eeeeee;fill-opacity:0.4;stroke-width:0.373202"
     id="path64" />
  <path
     d="m -1016.0525,-438.0617 v 1.87857 m 0,0 28.80863,2.39686"
     style="fill:none;stroke:#000000;stroke-width:0.373202;stroke-linecap:round"
     id="path65" />
  <path
     d="m -986.69808,-434.44457 -28.80862,-2.39685 V -438.72 Z"
     style="fill:#99ddff;fill-opacity:0.4;stroke-width:0.373202"
     id="path66" />
  <path
     d="m -1016.0525,-438.0617 28.80863,2.39685"
     style="fill:none;stroke:#000000;stroke-width:0.373202;stroke-linecap:round"
     id="path67" />
  <path
     d="m -1016.0525,-436.18313 0.5458,-0.65829 28.80862,2.39685 z"
     style="fill:#99ddff;fill-opacity:0.4;stroke-width:0.373202"
     id="path68" />
  <path
     d="m -918.14731,-444.31851 v 50.09545 m 0,0 -14.55464,17.55456"
     style="fill:none;stroke:#000000;stroke-width:0.373202;stroke-linecap:round"
     id="path69" />
  <path
     d="m -1016.0525,-438.0617 28.80863,2.39685 -28.26283,-3.05515 z m 0,0 v 1.87857 l 28.80863,0.51828 z m 29.35442,1.73855 v 1.87858 l -28.80862,-4.27543 z"
     style="fill:#99ddff;fill-opacity:0.4;stroke-width:0.373202"
     id="path70" />
  <path
     d="m -918.14731,-394.22306 -28.80864,-2.39686 v -50.09545 z m -155.64639,-59.9446 29.1093,-35.10911 -28.8086,-2.39686 z"
     style="fill:#eeeeee;fill-opacity:0.4;stroke-width:0.373202"
     id="path71" />
  <path
     d="m -987.24387,-433.78627 -28.80863,-2.39686 29.35442,1.73856 z m 0,-1.87858 0.54579,-0.6583 -28.80862,-2.39685 z"
     style="fill:#99ddff;fill-opacity:0.4;stroke-width:0.373202"
     id="path72" />
  <path
     d="m -985.05451,-449.88514 -14.55465,17.55455"
     style="fill:none;stroke:#000000;stroke-width:0.373202;stroke-linecap:round"
     id="path73" />
  <path
     d="m -1279.1207,-502.58068 v 200.38181 l 58.2186,-270.60002 z"
     style="fill:#eeeeee;fill-opacity:0.4;stroke-width:0.373202"
     id="path74" />
  <path
     d="m -1016.0525,-436.18313 28.80863,2.39686 v -1.87858 z"
     style="fill:#99ddff;fill-opacity:0.4;stroke-width:0.373202"
     id="path75" />
  <path
     d="m -986.69808,-436.32315 v 1.87858 m 0,0 -0.5458,0.6583 m 0.5458,-0.6583 37.82568,2.55964 m -37.82568,-4.43822 v 1.87858 m 0,0 -0.54579,0.6583 m 0.54579,-2.53688 -0.5458,0.6583 m 0.5458,-0.6583 37.82568,4.43822 m -37.82568,-4.43822 -0.54579,0.6583"
     style="fill:none;stroke:#000000;stroke-width:0.373202;stroke-linecap:round"
     id="path76" />
  <path
     d="m -987.24387,-433.78627 0.54579,-0.6583 v -1.87858 z"
     style="fill:#99ddff;fill-opacity:0.4;stroke-width:0.373202"
     id="path77" />
  <path
     d="m -986.69808,-436.32314 v 1.87857 l -0.54579,0.6583 z"
     style="fill:#ffbbbb;fill-opacity:0.4;stroke-width:0.373202"
     id="path78" />
  <path
     d="m -987.24387,-435.66485 v 1.87858 l 0.54579,-2.53688 z"
     style="fill:#99ddff;fill-opacity:0.4;stroke-width:0.373202"
     id="path79" />
  <path
     d="m -986.69808,-436.32314 -0.54579,2.53687 v -1.87858 z"
     style="fill:#ffbbbb;fill-opacity:0.4;stroke-width:0.373202"
     id="path80" />
  <path
     d="m -987.24388,-433.78627 v -1.87858 m 0,1.87858 38.37148,1.90134 m -38.37147,-3.77992 v 1.87858 m -10e-6,-1.87858 38.37148,3.77992"
     style="fill:none;stroke:#000000;stroke-width:0.373202;stroke-linecap:round"
     id="path81" />
  <path
     d="m -1073.493,-391.48272 -29.1093,35.10911 v -100.19091 z m 59.6299,-60.79927 v 50.09545 l -14.5547,-32.54091 z m 14.25394,70.04686 14.55465,-17.55455 v -50.09546 z"
     style="fill:#eeeeee;fill-opacity:0.4;stroke-width:0.373202"
     id="path82" />
  <path
     d="m -986.69808,-434.44457 v -1.87857 l 37.82567,4.4382 z m -0.54579,0.6583 0.54579,-0.6583 37.82567,2.55963 z m 0.54579,-2.53687 -0.54579,0.65829 38.37146,3.77991 z m -0.54579,0.65829 v 1.87858 l 38.37146,1.90133 z"
     style="fill:#ffbbbb;fill-opacity:0.4;stroke-width:0.373202"
     id="path83" />
  <path
     d="m -1140.7009,-459.73429 v 100.1909 l 29.1093,-135.30001 z m 222.55359,15.41578 v 50.09545 l -28.80864,-52.49231 z"
     style="fill:#eeeeee;fill-opacity:0.4;stroke-width:0.373202"
     id="path84" />
  <path
     d="m -918.14731,-444.31851 -28.80864,-2.39686 m 0,0 -14.55463,17.55456"
     style="fill:none;stroke:#000000;stroke-width:0.373202;stroke-linecap:round"
     id="path85" />
  <path
     d="m -961.51058,-379.06536 14.55463,-17.55456 28.80864,2.39686 z"
     style="fill:#eeeeee;fill-opacity:0.4;stroke-width:0.373202"
     id="path86" />
  <path
     d="m -1164.7081,-461.73167 v 100.1909 m 0,0 24.0072,1.99738 m 75.253,-45.71317 -28.8086,-2.39685 m 0,-1.87858 v 1.87858 m 0,0 -0.5458,0.65829 m 29.3544,-0.14001 -28.8086,-2.39686 m 0,0 -0.5458,0.65829"
     style="fill:none;stroke:#000000;stroke-width:0.373202;stroke-linecap:round"
     id="path87" />
  <path
     d="m -1094.2565,-409.53199 v 1.87858 l -0.5458,-1.22029 z"
     style="fill:#99ddff;fill-opacity:0.4;stroke-width:0.373202"
     id="path88" />
  <path
     d="m -999.60916,-382.23513 -28.80864,-2.39686 43.36329,-15.15769 z"
     style="fill:#eeeeee;fill-opacity:0.4;stroke-width:0.373202"
     id="path89" />
  <path
     d="m -1094.2565,-407.65341 -0.5458,0.65829 v -1.87858 z"
     style="fill:#99ddff;fill-opacity:0.4;stroke-width:0.373202"
     id="path90" />
  <path
     d="m -1207.2782,-417.61779 47.4752,-3.56739 m -47.4752,5.44596 47.4752,-5.44596 m -48.021,6.10426 48.021,-6.10426 m -48.021,4.22568 48.021,-4.22568 m 65.0007,12.31148 v 1.87858 m 0,0 28.8086,2.39686"
     style="fill:none;stroke:#000000;stroke-width:0.373202;stroke-linecap:round"
     id="path91" />
  <path
     d="m -1065.4479,-405.25656 -28.8086,-2.39685 v -1.87858 z"
     style="fill:#99ddff;fill-opacity:0.4;stroke-width:0.373202"
     id="path92" />
  <path
     d="m -1094.8023,-408.8737 28.8086,2.39686"
     style="fill:none;stroke:#000000;stroke-width:0.373202;stroke-linecap:round"
     id="path93" />
  <path
     d="m -1094.8023,-406.99512 0.5458,-0.65829 28.8086,2.39685 z"
     style="fill:#99ddff;fill-opacity:0.4;stroke-width:0.373202"
     id="path94" />
  <path
     d="m -1013.8631,-402.18654 -14.5547,17.55455 v -50.09546 z m 14.25394,-30.14405 14.55465,-17.55455 -28.80859,-2.39685 z m -217.75214,-65.11175 v 200.3818 l 58.2186,-270.60001 z"
     style="fill:#eeeeee;fill-opacity:0.4;stroke-width:0.373202"
     id="path95" />
  <path
     d="m -1094.8023,-408.8737 28.8086,2.39686 -28.2628,-3.05515 z"
     style="fill:#99ddff;fill-opacity:0.4;stroke-width:0.373202"
     id="path96" />
  <path
     d="m -1140.7009,-459.73429 v 100.1909"
     style="fill:none;stroke:#000000;stroke-width:0.373202;stroke-linecap:round"
     id="path97" />
  <path
     d="m -1164.7081,-461.73167 24.0072,1.99738 5.1021,-37.10649 z"
     style="fill:#eeeeee;fill-opacity:0.4;stroke-width:0.373202"
     id="path98" />
  <path
     d="m -1094.8023,-408.8737 v 1.87858 l 28.8086,0.51828 z"
     style="fill:#99ddff;fill-opacity:0.4;stroke-width:0.373202"
     id="path99" />
  <path
     d="m -918.14731,-444.31851 -14.55464,17.55455"
     style="fill:none;stroke:#000000;stroke-width:0.373202;stroke-linecap:round"
     id="path100" />
  <path
     d="m -1065.4479,-407.13513 v 1.87857 l -28.8086,-4.27543 z m -0.5458,2.53687 -28.8086,-2.39686 29.3544,1.73856 z m 0,-1.87858 0.5458,-0.65829 -28.8086,-2.39686 z"
     style="fill:#99ddff;fill-opacity:0.4;stroke-width:0.373202"
     id="path101" />
  <path
     d="m -1279.8134,-502.63831 v 200.3818 m 0,0 0.6927,0.0576 m 0,-200.3818 v 200.38184"
     style="fill:none;stroke:#000000;stroke-width:0.373202;stroke-linecap:round"
     id="path102" />
  <path
     d="m -1094.8023,-406.99512 28.8086,2.39686 v -1.87858 z"
     style="fill:#99ddff;fill-opacity:0.4;stroke-width:0.373202"
     id="path103" />
  <path
     d="m -1065.4479,-407.13513 v 1.87857 m 0,0 -0.5458,0.6583 m 0.5458,-0.6583 41.0666,-5.3204 m -41.0666,3.44183 v 1.87857 m 0,0 -0.5458,0.6583"
     style="fill:none;stroke:#000000;stroke-width:0.373202;stroke-linecap:round"
     id="path104" />
  <path
     d="m -1065.4479,-405.25656 v -1.87857 l 41.0666,-3.44183 z"
     style="fill:#ffbbbb;fill-opacity:0.4;stroke-width:0.373202"
     id="path105" />
  <path
     d="m -1065.4479,-407.13513 41.0666,-3.44183 m -41.6124,5.9787 41.6124,-5.9787 m -41.6124,4.10012 41.6124,-4.10012 m -41.0666,3.44183 -0.5458,0.65829 m 0.5458,-0.65829 -0.5458,0.65829"
     style="fill:none;stroke:#000000;stroke-width:0.373202;stroke-linecap:round"
     id="path106" />
  <path
     d="m -1065.9937,-404.59826 0.5458,-0.6583 41.0666,-5.3204 z"
     style="fill:#ffbbbb;fill-opacity:0.4;stroke-width:0.373202"
     id="path107" />
  <path
     d="m -1065.9937,-404.59826 0.5458,-0.6583 v -1.87857 z"
     style="fill:#99ddff;fill-opacity:0.4;stroke-width:0.373202"
     id="path108" />
  <path
     d="m -1065.4479,-407.13513 v 1.87857 l -0.5458,0.6583 z m 0,0 -0.5458,0.65829 41.6124,-4.10012 z"
     style="fill:#ffbbbb;fill-opacity:0.4;stroke-width:0.373202"
     id="path109" />
  <path
     d="m -946.95595,-446.71537 v 50.09545 l -14.55463,-32.54089 z"
     style="fill:#eeeeee;fill-opacity:0.4;stroke-width:0.373202"
     id="path110" />
  <path
     d="m -1065.9937,-406.47684 v 1.87858 l 41.6124,-5.9787 z"
     style="fill:#ffbbbb;fill-opacity:0.4;stroke-width:0.373202"
     id="path111" />
  <path
     d="m -1065.9937,-406.47684 v 1.87858 l 0.5458,-2.53687 z"
     style="fill:#99ddff;fill-opacity:0.4;stroke-width:0.373202"
     id="path112" />
  <path
     d="m -1065.4479,-407.13513 -0.5458,2.53687 v -1.87858 z"
     style="fill:#ffbbbb;fill-opacity:0.4;stroke-width:0.373202"
     id="path113" />
  <path
     d="m -1065.9937,-404.59826 v -1.87858 m 0,0 v 1.87858"
     style="fill:none;stroke:#000000;stroke-width:0.373202;stroke-linecap:round"
     id="path114" />
  <path
     d="m -932.70195,-376.6685 14.55464,-17.55456 v -50.09545 z m -141.09175,-77.49916 v 100.1909 l 29.1093,-135.30001 z"
     style="fill:#eeeeee;fill-opacity:0.4;stroke-width:0.373202"
     id="path115" />
  <path
     d="m -1102.6023,-456.56452 v 100.19091 m 0,0 28.8086,2.39685 m 45.3759,-80.75069 v 50.09546 m 0,0 28.80864,2.39686"
     style="fill:none;stroke:#000000;stroke-width:0.373202;stroke-linecap:round"
     id="path116" />
  <path
     d="m -1279.8134,-502.63831 0.6927,0.0576 57.5259,-70.27584 z m 115.1053,141.09754 24.0072,1.99738 v -100.1909 z"
     style="fill:#eeeeee;fill-opacity:0.4;stroke-width:0.373202"
     id="path117" />
  <path
     d="m -1241.3685,-499.43972 v 200.3818 m 0,0 24.0072,1.99738 m 352.63561,-84.68591 -13.85403,-1.15264 m 0,-52.08528 v 52.08528 m 0,0 -3.63866,4.38864"
     style="fill:none;stroke:#000000;stroke-width:0.373202;stroke-linecap:round"
     id="path118" />
  <path
     d="m -999.60916,-432.33059 v 50.09546 l 14.55465,-67.65001 z m 66.90721,55.66209 -28.80863,-2.39686 43.36327,-15.1577 z m -95.71585,-58.05895 28.80864,2.39686 -14.25394,-19.9514 z"
     style="fill:#eeeeee;fill-opacity:0.4;stroke-width:0.373202"
     id="path119" />
  <path
     d="m -1207.2782,-415.73922 v -1.87858 l 47.4752,-3.56738 z"
     style="fill:#ffbbbb;fill-opacity:0.4;stroke-width:0.373202"
     id="path120" />
  <path
     d="m -864.72569,-433.83173 v 52.08528 m 0,0 -3.63866,4.38864"
     style="fill:none;stroke:#000000;stroke-width:0.373202;stroke-linecap:round"
     id="path121" />
  <path
     d="m -1207.824,-415.08092 0.5458,-0.6583 47.4752,-5.44596 z"
     style="fill:#ffbbbb;fill-opacity:0.4;stroke-width:0.373202"
     id="path122" />
  <path
     d="m -946.95595,-396.61992 -14.55463,17.55456 v -50.09545 z"
     style="fill:#eeeeee;fill-opacity:0.4;stroke-width:0.373202"
     id="path123" />
  <path
     d="m -1207.2782,-417.6178 -0.5458,0.6583 48.021,-4.22568 z"
     style="fill:#ffbbbb;fill-opacity:0.4;stroke-width:0.373202"
     id="path124" />
  <path
     d="m -932.70195,-426.76396 14.55464,-17.55455 -28.80864,-2.39686 z"
     style="fill:#eeeeee;fill-opacity:0.4;stroke-width:0.373202"
     id="path125" />
  <path
     d="m -1207.824,-416.9595 v 1.87858 l 48.021,-6.10426 z"
     style="fill:#ffbbbb;fill-opacity:0.4;stroke-width:0.373202"
     id="path126" />
  <path
     d="m -1102.6023,-456.56452 28.8086,2.39686 0.3007,-37.50597 z"
     style="fill:#eeeeee;fill-opacity:0.4;stroke-width:0.373202"
     id="path127" />
  <path
     d="m -1073.7937,-454.16766 v 100.1909 m -133.4845,-61.76246 -24.0072,-1.99738 m 0,-1.87858 v 1.87858 m 0,0 -0.5458,0.6583 m 232.22204,-15.25229 v 50.09546"
     style="fill:none;stroke:#000000;stroke-width:0.373202;stroke-linecap:round"
     id="path128" />
  <path
     d="m -882.21838,-378.51045 3.63866,-4.38864 13.85403,1.15264 z"
     style="fill:#eeeeee;fill-opacity:0.4;stroke-width:0.373202"
     id="path129" />
  <path
     d="m -1217.3613,-497.44234 v 200.3818 m 10.0831,-120.55726 -24.0072,-1.99738 m 0,0 -0.5458,0.6583"
     style="fill:none;stroke:#000000;stroke-width:0.373202;stroke-linecap:round"
     id="path130" />
  <path
     d="m -1231.2854,-419.61518 v 1.87858 l -0.5458,-1.22028 z m 0,1.87858 -0.5458,0.6583 v -1.87858 z"
     style="fill:#99ddff;fill-opacity:0.4;stroke-width:0.373202"
     id="path131" />
  <path
     d="m -1231.8312,-418.95688 v 1.87858 m 0,0 24.0072,1.99738 m 290.01909,5.22137 24.01364,1.99792"
     style="fill:none;stroke:#000000;stroke-width:0.373202;stroke-linecap:round"
     id="path132" />
  <path
     d="m -1207.2782,-415.73922 -24.0072,-1.99738 v -1.87858 z"
     style="fill:#99ddff;fill-opacity:0.4;stroke-width:0.373202"
     id="path133" />
  <path
     d="m -864.72569,-381.74645 -13.85403,-1.15264 v -52.08528 z"
     style="fill:#eeeeee;fill-opacity:0.4;stroke-width:0.373202"
     id="path134" />
  <path
     d="m -1231.8312,-417.0783 0.5458,-0.6583 24.0072,1.99738 z"
     style="fill:#99ddff;fill-opacity:0.4;stroke-width:0.373202"
     id="path135" />
  <path
     d="m -1231.8312,-418.95688 24.0072,1.99738"
     style="fill:none;stroke:#000000;stroke-width:0.373202;stroke-linecap:round"
     id="path136" />
  <path
     d="m -1231.8312,-418.95688 24.0072,1.99738 -23.4614,-2.65568 z"
     style="fill:#99ddff;fill-opacity:0.4;stroke-width:0.373202"
     id="path137" />
  <path
     d="m -1028.4178,-384.63199 28.80864,2.39686 v -50.09546 z"
     style="fill:#eeeeee;fill-opacity:0.4;stroke-width:0.373202"
     id="path138" />
  <path
     d="m -1231.8312,-418.95688 v 1.87858 l 24.0072,0.1188 z m 24.553,1.33908 v 1.87858 l -24.0072,-3.87596 z"
     style="fill:#99ddff;fill-opacity:0.4;stroke-width:0.373202"
     id="path139" />
  <path
     d="m -1241.3685,-499.43972 24.0072,1.99738 34.2114,-72.2156 z"
     style="fill:#eeeeee;fill-opacity:0.4;stroke-width:0.373202"
     id="path140" />
  <path
     d="m -1207.824,-415.08092 -24.0072,-1.99738 24.553,1.33908 z m 0,-1.87858 0.5458,-0.6583 -24.0072,-1.99738 z"
     style="fill:#99ddff;fill-opacity:0.4;stroke-width:0.373202"
     id="path141" />
  <path
     d="m -1164.7081,-461.73167 v 100.1909 l 24.0072,-98.19352 z m 296.34375,84.37386 -13.85403,-1.15264 17.49269,-3.236 z"
     style="fill:#eeeeee;fill-opacity:0.4;stroke-width:0.373202"
     id="path142" />
  <path
     d="m -1207.2782,-417.6178 v 1.87858 m 0,0 -0.5458,0.6583 m 0.5458,-2.53687 v 1.87857 m 0,0 -0.5458,0.6583"
     style="fill:none;stroke:#000000;stroke-width:0.373202;stroke-linecap:round"
     id="path143" />
  <path
     d="m -1231.8312,-417.0783 24.0072,1.99738 v -1.87858 z"
     style="fill:#99ddff;fill-opacity:0.4;stroke-width:0.373202"
     id="path144" />
  <path
     d="m -1207.2782,-417.6178 -0.5458,0.6583 m 0.5458,-0.65829 -0.5458,0.65829"
     style="fill:none;stroke:#000000;stroke-width:0.373202;stroke-linecap:round"
     id="path145" />
  <path
     d="m -1207.2782,-417.6178 v 1.87858 l -0.5458,0.6583 z"
     style="fill:#ffbbbb;fill-opacity:0.4;stroke-width:0.373202"
     id="path146" />
  <path
     d="m -1207.824,-415.08092 0.5458,-0.6583 v -1.87858 z"
     style="fill:#99ddff;fill-opacity:0.4;stroke-width:0.373202"
     id="path147" />
  <path
     d="m -1207.2782,-417.6178 -0.5458,2.53688 v -1.87858 z"
     style="fill:#ffbbbb;fill-opacity:0.4;stroke-width:0.373202"
     id="path148" />
  <path
     d="m -1207.824,-416.9595 v 1.87858 l 0.5458,-2.53688 z"
     style="fill:#99ddff;fill-opacity:0.4;stroke-width:0.373202"
     id="path149" />
  <path
     d="m -882.21838,-430.59573 v 52.08528 m 0,0 13.85403,1.15264 M -1207.824,-416.9595 v 1.87858 m 0,0 v -1.87858"
     style="fill:none;stroke:#000000;stroke-width:0.373202;stroke-linecap:round"
     id="path150" />
  <path
     d="m -1028.4178,-434.72745 v 50.09546 l 28.80864,-47.6986 z m 160.05345,57.36964 3.63866,-4.38864 v -52.08528 z"
     style="fill:#eeeeee;fill-opacity:0.4;stroke-width:0.373202"
     id="path151" />
  <path
     d="m -894.22384,-406.85615 0.43257,0.56 12.69952,-0.5089 z"
     style="fill:#000000;stroke-width:0.373202"
     id="path152" />
  <path
     d="m -961.51058,-429.16081 v 50.09545 m 0,0 28.80863,2.39686"
     style="fill:none;stroke:#000000;stroke-width:0.373202;stroke-linecap:round"
     id="path153" />
  <path
     d="m -893.52393,-409.45059 -0.53468,0.6449 12.96686,2.00064 z m -0.53468,0.6449 -0.16523,1.94954 13.13209,0.0511 z"
     style="fill:#000000;stroke-width:0.373202"
     id="path154" />
  <path
     d="m -878.57972,-382.89909 -3.63866,4.38864 v -52.08528 z"
     style="fill:#eeeeee;fill-opacity:0.4;stroke-width:0.373202"
     id="path155" />
  <path
     d="m -812.7731,-384.7076 -13.85402,-1.15264 m 0,-37.51815 v 37.51815 m 0,0 -3.63866,4.38863"
     style="fill:none;stroke:#000000;stroke-width:0.373202;stroke-linecap:round"
     id="path156" />
  <path
     d="m -1102.6023,-356.37361 28.8086,2.39685 v -100.1909 z m 237.87661,-77.45812 v 52.08528 l -13.85403,-53.23792 z"
     style="fill:#eeeeee;fill-opacity:0.4;stroke-width:0.373202"
     id="path157" />
  <path
     d="m -868.36435,-429.4431 v 52.08529"
     style="fill:none;stroke:#000000;stroke-width:0.373202;stroke-linecap:round"
     id="path158" />
  <path
     d="m -1279.8134,-302.25651 0.6927,0.0576 v -200.38177 z m 347.11145,-124.50745 v 50.09546 l 14.55464,-67.65001 z"
     style="fill:#eeeeee;fill-opacity:0.4;stroke-width:0.373202"
     id="path159" />
  <path
     d="m -1028.4178,-434.72745 28.80864,2.39686"
     style="fill:none;stroke:#000000;stroke-width:0.373202;stroke-linecap:round"
     id="path160" />
  <path
     d="m -878.57972,-434.98437 v 52.08528 l -3.63866,-47.69664 z"
     style="fill:#eeeeee;fill-opacity:0.4;stroke-width:0.373202"
     id="path161" />
  <path
     d="m -812.7731,-422.22574 v 37.51814 m 0,0 -3.63866,4.38864"
     style="fill:none;stroke:#000000;stroke-width:0.373202;stroke-linecap:round"
     id="path162" />
  <path
     d="m -961.51058,-429.16081 28.80863,2.39685 -14.254,-19.95141 z"
     style="fill:#eeeeee;fill-opacity:0.4;stroke-width:0.373202"
     id="path163" />
  <path
     d="m -865.85232,-405.53714 24.01364,1.99792 m -22.88701,-30.29251 -13.85403,-1.15264 m 0,0 -3.63866,4.38864"
     style="fill:none;stroke:#000000;stroke-width:0.373202;stroke-linecap:round"
     id="path164" />
  <path
     d="m -830.26578,-381.47161 3.63866,-4.38863 13.85402,1.15264 z"
     style="fill:#eeeeee;fill-opacity:0.4;stroke-width:0.373202"
     id="path165" />
  <path
     d="m -1164.7081,-461.73167 24.0072,1.99738"
     style="fill:none;stroke:#000000;stroke-width:0.373202;stroke-linecap:round"
     id="path166" />
  <path
     d="m -812.7731,-384.7076 -13.85402,-1.15264 v -37.51815 z"
     style="fill:#eeeeee;fill-opacity:0.4;stroke-width:0.373202"
     id="path167" />
  <path
     d="m -932.70195,-426.76396 v 50.09546"
     style="fill:none;stroke:#000000;stroke-width:0.373202;stroke-linecap:round"
     id="path168" />
  <path
     d="m -882.21838,-378.51045 13.85403,1.15264 v -52.08529 z"
     style="fill:#eeeeee;fill-opacity:0.4;stroke-width:0.373202"
     id="path169" />
  <path
     d="m -864.72569,-433.83173 -3.63866,4.38863"
     style="fill:none;stroke:#000000;stroke-width:0.373202;stroke-linecap:round"
     id="path170" />
  <path
     d="m -868.36435,-429.4431 v 52.08529 l 3.63866,-56.47392 z m -93.14623,50.37774 28.80863,2.39686 v -50.09546 z m -141.09172,-77.49916 v 100.19091 l 28.8086,-97.79405 z m 286.19054,76.24556 -13.85402,-1.15265 17.49268,-3.23599 z m -51.95259,-49.12414 3.63866,-4.38863 -13.85403,-1.15264 z"
     style="fill:#eeeeee;fill-opacity:0.4;stroke-width:0.373202"
     id="path171" />
  <path
     d="m -842.27125,-402.53373 0.43257,0.55999 12.69952,-0.50889 z m 0.69991,-2.59444 -0.53468,0.64489 12.96686,2.00065 z"
     style="fill:#000000;stroke-width:0.373202"
     id="path172" />
  <path
     d="m -812.7731,-422.22574 v 37.51814 l -13.85402,-38.67079 z m -69.44528,-8.36999 v 52.08528 l 13.85403,-50.93265 z"
     style="fill:#eeeeee;fill-opacity:0.4;stroke-width:0.373202"
     id="path173" />
  <path
     d="m -842.10602,-404.48328 -0.16523,1.94955 13.13209,0.0511 z"
     style="fill:#000000;stroke-width:0.373202"
     id="path174" />
  <path
     d="m -816.41176,-380.31896 3.63866,-4.38864 v -37.51814 z"
     style="fill:#eeeeee;fill-opacity:0.4;stroke-width:0.373202"
     id="path175" />
  <path
     d="m -830.26578,-418.98975 v 37.51814 m 0,0 13.85402,1.15265"
     style="fill:none;stroke:#000000;stroke-width:0.373202;stroke-linecap:round"
     id="path176" />
  <path
     d="m -826.62712,-385.86024 -3.63866,4.38863 v -37.51814 z m 0,-37.51815 v 37.51815 l -3.63866,-33.12951 z m -414.74138,124.32047 24.0072,1.99738 v -200.3818 z m 279.85792,-130.10289 v 50.09545 l 28.80863,-47.6986 z m 79.2922,-1.43492 13.85403,1.15263 -10.21537,-5.54127 z"
     style="fill:#eeeeee;fill-opacity:0.4;stroke-width:0.373202"
     id="path177" />
  <path
     d="m -812.7731,-422.22574 -13.85402,-1.15265 m 0,0 -3.63866,4.38864 m 13.85402,1.15265 v 37.51814 m -65.80662,-50.27677 13.85403,1.15263 m 55.59125,7.21736 -3.63866,4.38864 m -145.09882,-11.32371 28.80863,2.39685"
     style="fill:none;stroke:#000000;stroke-width:0.373202;stroke-linecap:round"
     id="path178" />
  <path
     d="m -830.26578,-381.47161 13.85402,1.15265 v -37.51814 z m 13.85402,-36.36549 3.63866,-4.38864 -13.85402,-1.15265 z"
     style="fill:#eeeeee;fill-opacity:0.4;stroke-width:0.373202"
     id="path179" />
  <path
     d="m -1102.6023,-456.56452 28.8086,2.39686"
     style="fill:none;stroke:#000000;stroke-width:0.373202;stroke-linecap:round"
     id="path180" />
  <path
     d="m -816.41176,-417.8371 v 37.51814 l 3.63866,-41.90678 z m -13.85402,-1.15265 v 37.51814 l 13.85402,-36.36549 z m 0,0 13.85402,1.15265 -10.21536,-5.54129 z m -449.54762,-83.64856 v 200.3818 l 0.6927,-200.32417 z"
     style="fill:#eeeeee;fill-opacity:0.4;stroke-width:0.373202"
     id="path181" />
  <path
     d="m -830.26578,-418.98975 13.85402,1.15265"
     style="fill:none;stroke:#000000;stroke-width:0.373202;stroke-linecap:round"
     id="path182" />
  <path
     d="m -1241.3685,-499.43972 v 200.3818 l 24.0072,-198.38442 z"
     style="fill:#eeeeee;fill-opacity:0.4;stroke-width:0.373202"
     id="path183" />
  <path
     d="m -1279.8134,-502.63831 0.6927,0.0576 m 37.7522,3.14096 24.0072,1.99738"
     style="fill:none;stroke:#000000;stroke-width:0.373202;stroke-linecap:round"
     id="path184" />
  <text
     xml:space="preserve"
     style="font-size:21.3333px;font-family:Carlito;-inkscape-font-specification:Carlito;fill:#000000;fill-opacity:1;stroke:#000000;stroke-width:0;stroke-miterlimit:3;stroke-dasharray:none;font-weight:normal;font-style:normal;font-stretch:normal;font-variant:normal"
     x="-1128.1271"
     y="-627.28668"
     id="text185"><tspan
       sodipodi:role="line"
       id="tspan185"
       x="-1128.1271"
       y="-627.28668">Encoder visualization</tspan></text>
</svg>
