<?xml version="1.0" encoding="utf-8" standalone="no"?>
<!DOCTYPE svg PUBLIC "-//W3C//DTD SVG 1.1//EN"
  "http://www.w3.org/Graphics/SVG/1.1/DTD/svg11.dtd">
<svg xmlns:xlink="http://www.w3.org/1999/xlink" width="1080pt" height="720pt" viewBox="0 0 1080 720" xmlns="http://www.w3.org/2000/svg" version="1.1">
 <metadata>
  <rdf:RDF xmlns:dc="http://purl.org/dc/elements/1.1/" xmlns:cc="http://creativecommons.org/ns#" xmlns:rdf="http://www.w3.org/1999/02/22-rdf-syntax-ns#">
   <cc:Work>
    <dc:type rdf:resource="http://purl.org/dc/dcmitype/StillImage"/>
    <dc:date>2024-06-01T11:31:10.893417</dc:date>
    <dc:format>image/svg+xml</dc:format>
    <dc:creator>
     <cc:Agent>
      <dc:title>Matplotlib v3.8.0, https://matplotlib.org/</dc:title>
     </cc:Agent>
    </dc:creator>
   </cc:Work>
  </rdf:RDF>
 </metadata>
 <defs>
  <style type="text/css">*{stroke-linejoin: round; stroke-linecap: butt}</style>
 </defs>
 <g id="figure_1">
  <g id="patch_1">
   <path d="M 0 720 
L 1080 720 
L 1080 0 
L 0 0 
z
" style="fill: #ffffff"/>
  </g>
  <g id="axes_1">
   <g id="patch_2">
    <path d="M 135 322.690909 
L 515.454545 322.690909 
L 515.454545 57.6 
L 135 57.6 
z
" style="fill: #ffffff"/>
   </g>
   <g id="PathCollection_1">
    <path d="M 152.293388 76.29583 
C 153.088998 76.29583 153.852128 75.979732 154.414709 75.417151 
C 154.97729 74.85457 155.293388 74.09144 155.293388 73.29583 
C 155.293388 72.500221 154.97729 71.737091 154.414709 71.17451 
C 153.852128 70.611929 153.088998 70.29583 152.293388 70.29583 
C 151.497779 70.29583 150.734649 70.611929 150.172068 71.17451 
C 149.609487 71.737091 149.293388 72.500221 149.293388 73.29583 
C 149.293388 74.09144 149.609487 74.85457 150.172068 75.417151 
C 150.734649 75.979732 151.497779 76.29583 152.293388 76.29583 
z
" clip-path="url(#peb57be9732)" style="fill: #1f77b4; fill-opacity: 0.5; stroke: #ffffff; stroke-opacity: 0.5; stroke-width: 0.48"/>
    <path d="M 149.293388 72.649587 
L 155.293388 72.649587 
L 155.293388 66.649587 
L 149.293388 66.649587 
z
" clip-path="url(#peb57be9732)" style="fill: #ff7f0e; fill-opacity: 0.5; stroke: #ffffff; stroke-opacity: 0.5; stroke-width: 0.48"/>
    <path d="M 152.293388 81.833291 
L 155.293388 75.833291 
L 149.293388 75.833291 
z
" clip-path="url(#peb57be9732)" style="fill: #2ca02c; fill-opacity: 0.5; stroke: #ffffff; stroke-opacity: 0.5; stroke-width: 0.48"/>
    <path d="M 186.880165 88.539297 
C 187.675775 88.539297 188.438905 88.223198 189.001486 87.660618 
C 189.564066 87.098037 189.880165 86.334907 189.880165 85.539297 
C 189.880165 84.743688 189.564066 83.980558 189.001486 83.417977 
C 188.438905 82.855396 187.675775 82.539297 186.880165 82.539297 
C 186.084556 82.539297 185.321426 82.855396 184.758845 83.417977 
C 184.196264 83.980558 183.880165 84.743688 183.880165 85.539297 
C 183.880165 86.334907 184.196264 87.098037 184.758845 87.660618 
C 185.321426 88.223198 186.084556 88.539297 186.880165 88.539297 
z
" clip-path="url(#peb57be9732)" style="fill: #1f77b4; fill-opacity: 0.5; stroke: #ffffff; stroke-opacity: 0.5; stroke-width: 0.48"/>
    <path d="M 183.880165 89.667277 
L 189.880165 89.667277 
L 189.880165 83.667277 
L 183.880165 83.667277 
z
" clip-path="url(#peb57be9732)" style="fill: #ff7f0e; fill-opacity: 0.5; stroke: #ffffff; stroke-opacity: 0.5; stroke-width: 0.48"/>
    <path d="M 186.880165 102.259103 
L 189.880165 96.259103 
L 183.880165 96.259103 
z
" clip-path="url(#peb57be9732)" style="fill: #2ca02c; fill-opacity: 0.5; stroke: #ffffff; stroke-opacity: 0.5; stroke-width: 0.48"/>
    <path d="M 221.466942 112.60825 
C 222.262551 112.60825 223.025682 112.292151 223.588262 111.729571 
C 224.150843 111.16699 224.466942 110.40386 224.466942 109.60825 
C 224.466942 108.812641 224.150843 108.049511 223.588262 107.48693 
C 223.025682 106.924349 222.262551 106.60825 221.466942 106.60825 
C 220.671333 106.60825 219.908203 106.924349 219.345622 107.48693 
C 218.783041 108.049511 218.466942 108.812641 218.466942 109.60825 
C 218.466942 110.40386 218.783041 111.16699 219.345622 111.729571 
C 219.908203 112.292151 220.671333 112.60825 221.466942 112.60825 
z
" clip-path="url(#peb57be9732)" style="fill: #1f77b4; fill-opacity: 0.5; stroke: #ffffff; stroke-opacity: 0.5; stroke-width: 0.48"/>
    <path d="M 218.466942 106.636419 
L 224.466942 106.636419 
L 224.466942 100.636419 
L 218.466942 100.636419 
z
" clip-path="url(#peb57be9732)" style="fill: #ff7f0e; fill-opacity: 0.5; stroke: #ffffff; stroke-opacity: 0.5; stroke-width: 0.48"/>
    <path d="M 221.466942 128.759347 
L 224.466942 122.759347 
L 218.466942 122.759347 
z
" clip-path="url(#peb57be9732)" style="fill: #2ca02c; fill-opacity: 0.5; stroke: #ffffff; stroke-opacity: 0.5; stroke-width: 0.48"/>
    <path d="M 256.053719 174.431389 
C 256.849328 174.431389 257.612459 174.11529 258.175039 173.55271 
C 258.73762 172.990129 259.053719 172.226999 259.053719 171.431389 
C 259.053719 170.63578 258.73762 169.87265 258.175039 169.310069 
C 257.612459 168.747488 256.849328 168.431389 256.053719 168.431389 
C 255.25811 168.431389 254.494979 168.747488 253.932399 169.310069 
C 253.369818 169.87265 253.053719 170.63578 253.053719 171.431389 
C 253.053719 172.226999 253.369818 172.990129 253.932399 173.55271 
C 254.494979 174.11529 255.25811 174.431389 256.053719 174.431389 
z
" clip-path="url(#peb57be9732)" style="fill: #1f77b4; fill-opacity: 0.5; stroke: #ffffff; stroke-opacity: 0.5; stroke-width: 0.48"/>
    <path d="M 253.053719 182.316902 
L 259.053719 182.316902 
L 259.053719 176.316902 
L 253.053719 176.316902 
z
" clip-path="url(#peb57be9732)" style="fill: #ff7f0e; fill-opacity: 0.5; stroke: #ffffff; stroke-opacity: 0.5; stroke-width: 0.48"/>
    <path d="M 256.053719 195.524403 
L 259.053719 189.524403 
L 253.053719 189.524403 
z
" clip-path="url(#peb57be9732)" style="fill: #2ca02c; fill-opacity: 0.5; stroke: #ffffff; stroke-opacity: 0.5; stroke-width: 0.48"/>
    <path d="M 290.640496 246.946675 
C 291.436105 246.946675 292.199235 246.630576 292.761816 246.067995 
C 293.324397 245.505415 293.640496 244.742284 293.640496 243.946675 
C 293.640496 243.151066 293.324397 242.387935 292.761816 241.825355 
C 292.199235 241.262774 291.436105 240.946675 290.640496 240.946675 
C 289.844887 240.946675 289.081756 241.262774 288.519176 241.825355 
C 287.956595 242.387935 287.640496 243.151066 287.640496 243.946675 
C 287.640496 244.742284 287.956595 245.505415 288.519176 246.067995 
C 289.081756 246.630576 289.844887 246.946675 290.640496 246.946675 
z
" clip-path="url(#peb57be9732)" style="fill: #1f77b4; fill-opacity: 0.5; stroke: #ffffff; stroke-opacity: 0.5; stroke-width: 0.48"/>
    <path d="M 287.640496 249.125078 
L 293.640496 249.125078 
L 293.640496 243.125078 
L 287.640496 243.125078 
z
" clip-path="url(#peb57be9732)" style="fill: #ff7f0e; fill-opacity: 0.5; stroke: #ffffff; stroke-opacity: 0.5; stroke-width: 0.48"/>
    <path d="M 290.640496 257.661033 
L 293.640496 251.661033 
L 287.640496 251.661033 
z
" clip-path="url(#peb57be9732)" style="fill: #2ca02c; fill-opacity: 0.5; stroke: #ffffff; stroke-opacity: 0.5; stroke-width: 0.48"/>
    <path d="M 325.227273 279.622303 
C 326.022882 279.622303 326.786012 279.306204 327.348593 278.743623 
C 327.911174 278.181043 328.227273 277.417912 328.227273 276.622303 
C 328.227273 275.826694 327.911174 275.063563 327.348593 274.500983 
C 326.786012 273.938402 326.022882 273.622303 325.227273 273.622303 
C 324.431663 273.622303 323.668533 273.938402 323.105952 274.500983 
C 322.543372 275.063563 322.227273 275.826694 322.227273 276.622303 
C 322.227273 277.417912 322.543372 278.181043 323.105952 278.743623 
C 323.668533 279.306204 324.431663 279.622303 325.227273 279.622303 
z
" clip-path="url(#peb57be9732)" style="fill: #1f77b4; fill-opacity: 0.5; stroke: #ffffff; stroke-opacity: 0.5; stroke-width: 0.48"/>
    <path d="M 322.227273 280.258795 
L 328.227273 280.258795 
L 328.227273 274.258795 
L 322.227273 274.258795 
z
" clip-path="url(#peb57be9732)" style="fill: #ff7f0e; fill-opacity: 0.5; stroke: #ffffff; stroke-opacity: 0.5; stroke-width: 0.48"/>
    <path d="M 325.227273 284.597322 
L 328.227273 278.597322 
L 322.227273 278.597322 
z
" clip-path="url(#peb57be9732)" style="fill: #2ca02c; fill-opacity: 0.5; stroke: #ffffff; stroke-opacity: 0.5; stroke-width: 0.48"/>
    <path d="M 359.81405 294.005869 
C 360.609659 294.005869 361.372789 293.68977 361.93537 293.12719 
C 362.497951 292.564609 362.81405 291.801479 362.81405 291.005869 
C 362.81405 290.21026 362.497951 289.44713 361.93537 288.884549 
C 361.372789 288.321968 360.609659 288.005869 359.81405 288.005869 
C 359.01844 288.005869 358.25531 288.321968 357.692729 288.884549 
C 357.130149 289.44713 356.81405 290.21026 356.81405 291.005869 
C 356.81405 291.801479 357.130149 292.564609 357.692729 293.12719 
C 358.25531 293.68977 359.01844 294.005869 359.81405 294.005869 
z
" clip-path="url(#peb57be9732)" style="fill: #1f77b4; fill-opacity: 0.5; stroke: #ffffff; stroke-opacity: 0.5; stroke-width: 0.48"/>
    <path d="M 356.81405 297.204077 
L 362.81405 297.204077 
L 362.81405 291.204077 
L 356.81405 291.204077 
z
" clip-path="url(#peb57be9732)" style="fill: #ff7f0e; fill-opacity: 0.5; stroke: #ffffff; stroke-opacity: 0.5; stroke-width: 0.48"/>
    <path d="M 359.81405 294.980066 
L 362.81405 288.980066 
L 356.81405 288.980066 
z
" clip-path="url(#peb57be9732)" style="fill: #2ca02c; fill-opacity: 0.5; stroke: #ffffff; stroke-opacity: 0.5; stroke-width: 0.48"/>
    <path d="M 394.400826 301.960486 
C 395.196436 301.960486 395.959566 301.644387 396.522147 301.081806 
C 397.084728 300.519225 397.400826 299.756095 397.400826 298.960486 
C 397.400826 298.164877 397.084728 297.401746 396.522147 296.839166 
C 395.959566 296.276585 395.196436 295.960486 394.400826 295.960486 
C 393.605217 295.960486 392.842087 296.276585 392.279506 296.839166 
C 391.716925 297.401746 391.400826 298.164877 391.400826 298.960486 
C 391.400826 299.756095 391.716925 300.519225 392.279506 301.081806 
C 392.842087 301.644387 393.605217 301.960486 394.400826 301.960486 
z
" clip-path="url(#peb57be9732)" style="fill: #1f77b4; fill-opacity: 0.5; stroke: #ffffff; stroke-opacity: 0.5; stroke-width: 0.48"/>
    <path d="M 391.400826 301.284669 
L 397.400826 301.284669 
L 397.400826 295.284669 
L 391.400826 295.284669 
z
" clip-path="url(#peb57be9732)" style="fill: #ff7f0e; fill-opacity: 0.5; stroke: #ffffff; stroke-opacity: 0.5; stroke-width: 0.48"/>
    <path d="M 394.400826 304.720131 
L 397.400826 298.720131 
L 391.400826 298.720131 
z
" clip-path="url(#peb57be9732)" style="fill: #2ca02c; fill-opacity: 0.5; stroke: #ffffff; stroke-opacity: 0.5; stroke-width: 0.48"/>
    <path d="M 428.987603 306.989086 
C 429.783213 306.989086 430.546343 306.672988 431.108924 306.110407 
C 431.671504 305.547826 431.987603 304.784696 431.987603 303.989086 
C 431.987603 303.193477 431.671504 302.430347 431.108924 301.867766 
C 430.546343 301.305185 429.783213 300.989086 428.987603 300.989086 
C 428.191994 300.989086 427.428864 301.305185 426.866283 301.867766 
C 426.303702 302.430347 425.987603 303.193477 425.987603 303.989086 
C 425.987603 304.784696 426.303702 305.547826 426.866283 306.110407 
C 427.428864 306.672988 428.191994 306.989086 428.987603 306.989086 
z
" clip-path="url(#peb57be9732)" style="fill: #1f77b4; fill-opacity: 0.5; stroke: #ffffff; stroke-opacity: 0.5; stroke-width: 0.48"/>
    <path d="M 425.987603 303.407992 
L 431.987603 303.407992 
L 431.987603 297.407992 
L 425.987603 297.407992 
z
" clip-path="url(#peb57be9732)" style="fill: #ff7f0e; fill-opacity: 0.5; stroke: #ffffff; stroke-opacity: 0.5; stroke-width: 0.48"/>
    <path d="M 428.987603 306.745766 
L 431.987603 300.745766 
L 425.987603 300.745766 
z
" clip-path="url(#peb57be9732)" style="fill: #2ca02c; fill-opacity: 0.5; stroke: #ffffff; stroke-opacity: 0.5; stroke-width: 0.48"/>
    <path d="M 463.57438 310.478457 
C 464.369989 310.478457 465.13312 310.162358 465.695701 309.599778 
C 466.258281 309.037197 466.57438 308.274066 466.57438 307.478457 
C 466.57438 306.682848 466.258281 305.919718 465.695701 305.357137 
C 465.13312 304.794556 464.369989 304.478457 463.57438 304.478457 
C 462.778771 304.478457 462.015641 304.794556 461.45306 305.357137 
C 460.890479 305.919718 460.57438 306.682848 460.57438 307.478457 
C 460.57438 308.274066 460.890479 309.037197 461.45306 309.599778 
C 462.015641 310.162358 462.778771 310.478457 463.57438 310.478457 
z
" clip-path="url(#peb57be9732)" style="fill: #1f77b4; fill-opacity: 0.5; stroke: #ffffff; stroke-opacity: 0.5; stroke-width: 0.48"/>
    <path d="M 460.57438 310.176371 
L 466.57438 310.176371 
L 466.57438 304.176371 
L 460.57438 304.176371 
z
" clip-path="url(#peb57be9732)" style="fill: #ff7f0e; fill-opacity: 0.5; stroke: #ffffff; stroke-opacity: 0.5; stroke-width: 0.48"/>
    <path d="M 463.57438 310.860637 
L 466.57438 304.860637 
L 460.57438 304.860637 
z
" clip-path="url(#peb57be9732)" style="fill: #2ca02c; fill-opacity: 0.5; stroke: #ffffff; stroke-opacity: 0.5; stroke-width: 0.48"/>
    <path d="M 498.161157 313.08626 
C 498.956766 313.08626 499.719897 312.770161 500.282477 312.20758 
C 500.845058 311.644999 501.161157 310.881869 501.161157 310.08626 
C 501.161157 309.29065 500.845058 308.52752 500.282477 307.964939 
C 499.719897 307.402359 498.956766 307.08626 498.161157 307.08626 
C 497.365548 307.08626 496.602417 307.402359 496.039837 307.964939 
C 495.477256 308.52752 495.161157 309.29065 495.161157 310.08626 
C 495.161157 310.881869 495.477256 311.644999 496.039837 312.20758 
C 496.602417 312.770161 497.365548 313.08626 498.161157 313.08626 
z
" clip-path="url(#peb57be9732)" style="fill: #1f77b4; fill-opacity: 0.5; stroke: #ffffff; stroke-opacity: 0.5; stroke-width: 0.48"/>
    <path d="M 495.161157 313.641322 
L 501.161157 313.641322 
L 501.161157 307.641322 
L 495.161157 307.641322 
z
" clip-path="url(#peb57be9732)" style="fill: #ff7f0e; fill-opacity: 0.5; stroke: #ffffff; stroke-opacity: 0.5; stroke-width: 0.48"/>
    <path d="M 498.161157 312.636876 
L 501.161157 306.636876 
L 495.161157 306.636876 
z
" clip-path="url(#peb57be9732)" style="fill: #2ca02c; fill-opacity: 0.5; stroke: #ffffff; stroke-opacity: 0.5; stroke-width: 0.48"/>
   </g>
   <g id="PathCollection_2"/>
   <g id="PathCollection_3"/>
   <g id="PathCollection_4"/>
   <g id="matplotlib.axis_1">
    <g id="xtick_1">
     <g id="line2d_1">
      <defs>
       <path id="mbda368c5fe" d="M 0 0 
L 0 3.5 
" style="stroke: #000000; stroke-width: 0.8"/>
      </defs>
      <g>
       <use xlink:href="#mbda368c5fe" x="152.293388" y="322.690909" style="stroke: #000000; stroke-width: 0.8"/>
      </g>
     </g>
     <g id="text_1">
      <text style="font: 8px 'DejaVu Sans', 'Bitstream Vera Sans', 'Computer Modern Sans Serif', 'Lucida Grande', 'Verdana', 'Geneva', 'Lucid', 'Arial', 'Helvetica', 'Avant Garde', sans-serif; text-anchor: middle" x="152.293388" y="335.769659" transform="rotate(-0 152.293388 335.769659)">2.0</text>
     </g>
    </g>
    <g id="xtick_2">
     <g id="line2d_2">
      <g>
       <use xlink:href="#mbda368c5fe" x="221.466942" y="322.690909" style="stroke: #000000; stroke-width: 0.8"/>
      </g>
     </g>
     <g id="text_2">
      <text style="font: 8px 'DejaVu Sans', 'Bitstream Vera Sans', 'Computer Modern Sans Serif', 'Lucida Grande', 'Verdana', 'Geneva', 'Lucid', 'Arial', 'Helvetica', 'Avant Garde', sans-serif; text-anchor: middle" x="221.466942" y="335.769659" transform="rotate(-0 221.466942 335.769659)">2.2</text>
     </g>
    </g>
    <g id="xtick_3">
     <g id="line2d_3">
      <g>
       <use xlink:href="#mbda368c5fe" x="290.640496" y="322.690909" style="stroke: #000000; stroke-width: 0.8"/>
      </g>
     </g>
     <g id="text_3">
      <text style="font: 8px 'DejaVu Sans', 'Bitstream Vera Sans', 'Computer Modern Sans Serif', 'Lucida Grande', 'Verdana', 'Geneva', 'Lucid', 'Arial', 'Helvetica', 'Avant Garde', sans-serif; text-anchor: middle" x="290.640496" y="335.769659" transform="rotate(-0 290.640496 335.769659)">2.4</text>
     </g>
    </g>
    <g id="xtick_4">
     <g id="line2d_4">
      <g>
       <use xlink:href="#mbda368c5fe" x="359.81405" y="322.690909" style="stroke: #000000; stroke-width: 0.8"/>
      </g>
     </g>
     <g id="text_4">
      <text style="font: 8px 'DejaVu Sans', 'Bitstream Vera Sans', 'Computer Modern Sans Serif', 'Lucida Grande', 'Verdana', 'Geneva', 'Lucid', 'Arial', 'Helvetica', 'Avant Garde', sans-serif; text-anchor: middle" x="359.81405" y="335.769659" transform="rotate(-0 359.81405 335.769659)">2.6</text>
     </g>
    </g>
    <g id="xtick_5">
     <g id="line2d_5">
      <g>
       <use xlink:href="#mbda368c5fe" x="428.987603" y="322.690909" style="stroke: #000000; stroke-width: 0.8"/>
      </g>
     </g>
     <g id="text_5">
      <text style="font: 8px 'DejaVu Sans', 'Bitstream Vera Sans', 'Computer Modern Sans Serif', 'Lucida Grande', 'Verdana', 'Geneva', 'Lucid', 'Arial', 'Helvetica', 'Avant Garde', sans-serif; text-anchor: middle" x="428.987603" y="335.769659" transform="rotate(-0 428.987603 335.769659)">2.8</text>
     </g>
    </g>
    <g id="xtick_6">
     <g id="line2d_6">
      <g>
       <use xlink:href="#mbda368c5fe" x="498.161157" y="322.690909" style="stroke: #000000; stroke-width: 0.8"/>
      </g>
     </g>
     <g id="text_6">
      <text style="font: 8px 'DejaVu Sans', 'Bitstream Vera Sans', 'Computer Modern Sans Serif', 'Lucida Grande', 'Verdana', 'Geneva', 'Lucid', 'Arial', 'Helvetica', 'Avant Garde', sans-serif; text-anchor: middle" x="498.161157" y="335.769659" transform="rotate(-0 498.161157 335.769659)">3.0</text>
     </g>
    </g>
    <g id="text_7">
     <text style="font: 8px 'DejaVu Sans', 'Bitstream Vera Sans', 'Computer Modern Sans Serif', 'Lucida Grande', 'Verdana', 'Geneva', 'Lucid', 'Arial', 'Helvetica', 'Avant Garde', sans-serif; text-anchor: middle" x="325.227273" y="347.512159" transform="rotate(-0 325.227273 347.512159)">Temperature</text>
    </g>
   </g>
   <g id="matplotlib.axis_2">
    <g id="ytick_1">
     <g id="line2d_7">
      <defs>
       <path id="mcddf85f49e" d="M 0 0 
L -3.5 0 
" style="stroke: #000000; stroke-width: 0.8"/>
      </defs>
      <g>
       <use xlink:href="#mcddf85f49e" x="135" y="277.104445" style="stroke: #000000; stroke-width: 0.8"/>
      </g>
     </g>
     <g id="text_8">
      <text style="font: 8px 'DejaVu Sans', 'Bitstream Vera Sans', 'Computer Modern Sans Serif', 'Lucida Grande', 'Verdana', 'Geneva', 'Lucid', 'Arial', 'Helvetica', 'Avant Garde', sans-serif; text-anchor: end" x="128" y="280.14382" transform="rotate(-0 128 280.14382)">0.2</text>
     </g>
    </g>
    <g id="ytick_2">
     <g id="line2d_8">
      <g>
       <use xlink:href="#mcddf85f49e" x="135" y="219.805336" style="stroke: #000000; stroke-width: 0.8"/>
      </g>
     </g>
     <g id="text_9">
      <text style="font: 8px 'DejaVu Sans', 'Bitstream Vera Sans', 'Computer Modern Sans Serif', 'Lucida Grande', 'Verdana', 'Geneva', 'Lucid', 'Arial', 'Helvetica', 'Avant Garde', sans-serif; text-anchor: end" x="128" y="222.844711" transform="rotate(-0 128 222.844711)">0.4</text>
     </g>
    </g>
    <g id="ytick_3">
     <g id="line2d_9">
      <g>
       <use xlink:href="#mcddf85f49e" x="135" y="162.506228" style="stroke: #000000; stroke-width: 0.8"/>
      </g>
     </g>
     <g id="text_10">
      <text style="font: 8px 'DejaVu Sans', 'Bitstream Vera Sans', 'Computer Modern Sans Serif', 'Lucida Grande', 'Verdana', 'Geneva', 'Lucid', 'Arial', 'Helvetica', 'Avant Garde', sans-serif; text-anchor: end" x="128" y="165.545603" transform="rotate(-0 128 165.545603)">0.6</text>
     </g>
    </g>
    <g id="ytick_4">
     <g id="line2d_10">
      <g>
       <use xlink:href="#mcddf85f49e" x="135" y="105.207119" style="stroke: #000000; stroke-width: 0.8"/>
      </g>
     </g>
     <g id="text_11">
      <text style="font: 8px 'DejaVu Sans', 'Bitstream Vera Sans', 'Computer Modern Sans Serif', 'Lucida Grande', 'Verdana', 'Geneva', 'Lucid', 'Arial', 'Helvetica', 'Avant Garde', sans-serif; text-anchor: end" x="128" y="108.246494" transform="rotate(-0 128 108.246494)">0.8</text>
     </g>
    </g>
    <g id="text_12">
     <text style="font: 8px 'DejaVu Sans', 'Bitstream Vera Sans', 'Computer Modern Sans Serif', 'Lucida Grande', 'Verdana', 'Geneva', 'Lucid', 'Arial', 'Helvetica', 'Avant Garde', sans-serif; text-anchor: middle" x="109.61375" y="190.145455" transform="rotate(-90 109.61375 190.145455)">Magnetization</text>
    </g>
   </g>
   <g id="patch_3">
    <path d="M 135 322.690909 
L 135 57.6 
" style="fill: none; stroke: #000000; stroke-width: 0.8; stroke-linejoin: miter; stroke-linecap: square"/>
   </g>
   <g id="patch_4">
    <path d="M 515.454545 322.690909 
L 515.454545 57.6 
" style="fill: none; stroke: #000000; stroke-width: 0.8; stroke-linejoin: miter; stroke-linecap: square"/>
   </g>
   <g id="patch_5">
    <path d="M 135 322.690909 
L 515.454545 322.690909 
" style="fill: none; stroke: #000000; stroke-width: 0.8; stroke-linejoin: miter; stroke-linecap: square"/>
   </g>
   <g id="patch_6">
    <path d="M 135 57.6 
L 515.454545 57.6 
" style="fill: none; stroke: #000000; stroke-width: 0.8; stroke-linejoin: miter; stroke-linecap: square"/>
   </g>
   <g id="legend_1">
    <g id="patch_7">
     <path d="M 400.572045 110.97 
L 509.854545 110.97 
Q 511.454545 110.97 511.454545 109.37 
L 511.454545 63.2 
Q 511.454545 61.6 509.854545 61.6 
L 400.572045 61.6 
Q 398.972045 61.6 398.972045 63.2 
L 398.972045 109.37 
Q 398.972045 110.97 400.572045 110.97 
z
" style="fill: #ffffff; opacity: 0.8; stroke: #cccccc; stroke-linejoin: miter"/>
    </g>
    <g id="text_13">
     <text style="font: 8px 'DejaVu Sans', 'Bitstream Vera Sans', 'Computer Modern Sans Serif', 'Lucida Grande', 'Verdana', 'Geneva', 'Lucid', 'Arial', 'Helvetica', 'Avant Garde', sans-serif; text-anchor: start" x="440.210795" y="70.87875" transform="rotate(-0 440.210795 70.87875)">Method</text>
    </g>
    <g id="PathCollection_5">
     <defs>
      <path id="mcbd9a2d6ef" d="M 0 3 
C 0.795609 3 1.55874 2.683901 2.12132 2.12132 
C 2.683901 1.55874 3 0.795609 3 0 
C 3 -0.795609 2.683901 -1.55874 2.12132 -2.12132 
C 1.55874 -2.683901 0.795609 -3 0 -3 
C -0.795609 -3 -1.55874 -2.683901 -2.12132 -2.12132 
C -2.683901 -1.55874 -3 -0.795609 -3 0 
C -3 0.795609 -2.683901 1.55874 -2.12132 2.12132 
C -1.55874 2.683901 -0.795609 3 0 3 
z
" style="stroke: #1f77b4"/>
     </defs>
     <g>
      <use xlink:href="#mcbd9a2d6ef" x="410.172045" y="80.52125" style="fill: #1f77b4; stroke: #1f77b4"/>
     </g>
    </g>
    <g id="text_14">
     <text style="font: 8px 'DejaVu Sans', 'Bitstream Vera Sans', 'Computer Modern Sans Serif', 'Lucida Grande', 'Verdana', 'Geneva', 'Lucid', 'Arial', 'Helvetica', 'Avant Garde', sans-serif; text-anchor: start" x="424.572045" y="82.62125" transform="rotate(-0 424.572045 82.62125)">Monte Carlo</text>
    </g>
    <g id="PathCollection_6">
     <defs>
      <path id="m829a8e785a" d="M -3 3 
L 3 3 
L 3 -3 
L -3 -3 
z
" style="stroke: #ff7f0e"/>
     </defs>
     <g>
      <use xlink:href="#m829a8e785a" x="410.172045" y="92.26375" style="fill: #ff7f0e; stroke: #ff7f0e"/>
     </g>
    </g>
    <g id="text_15">
     <text style="font: 8px 'DejaVu Sans', 'Bitstream Vera Sans', 'Computer Modern Sans Serif', 'Lucida Grande', 'Verdana', 'Geneva', 'Lucid', 'Arial', 'Helvetica', 'Avant Garde', sans-serif; text-anchor: start" x="424.572045" y="94.36375" transform="rotate(-0 424.572045 94.36375)">Sampled VAE gm</text>
    </g>
    <g id="PathCollection_7">
     <defs>
      <path id="m9f9d75483a" d="M -0 3 
L 3 -3 
L -3 -3 
z
" style="stroke: #2ca02c"/>
     </defs>
     <g>
      <use xlink:href="#m9f9d75483a" x="410.172045" y="104.00625" style="fill: #2ca02c; stroke: #2ca02c"/>
     </g>
    </g>
    <g id="text_16">
     <text style="font: 8px 'DejaVu Sans', 'Bitstream Vera Sans', 'Computer Modern Sans Serif', 'Lucida Grande', 'Verdana', 'Geneva', 'Lucid', 'Arial', 'Helvetica', 'Avant Garde', sans-serif; text-anchor: start" x="424.572045" y="106.10625" transform="rotate(-0 424.572045 106.10625)">Sampled VAE normal</text>
    </g>
   </g>
  </g>
  <g id="axes_2">
   <g id="patch_8">
    <path d="M 591.545455 322.690909 
L 972 322.690909 
L 972 57.6 
L 591.545455 57.6 
z
" style="fill: #ffffff"/>
   </g>
   <g id="PathCollection_8">
    <path d="M 608.838843 310.660262 
C 609.634452 310.660262 610.397583 310.344163 610.960163 309.781582 
C 611.522744 309.219002 611.838843 308.455871 611.838843 307.660262 
C 611.838843 306.864653 611.522744 306.101522 610.960163 305.538942 
C 610.397583 304.976361 609.634452 304.660262 608.838843 304.660262 
C 608.043234 304.660262 607.280103 304.976361 606.717523 305.538942 
C 606.154942 306.101522 605.838843 306.864653 605.838843 307.660262 
C 605.838843 308.455871 606.154942 309.219002 606.717523 309.781582 
C 607.280103 310.344163 608.043234 310.660262 608.838843 310.660262 
z
" clip-path="url(#p478ef99940)" style="fill: #1f77b4; fill-opacity: 0.5; stroke: #ffffff; stroke-opacity: 0.5; stroke-width: 0.48"/>
    <path d="M 605.838843 313.641322 
L 611.838843 313.641322 
L 611.838843 307.641322 
L 605.838843 307.641322 
z
" clip-path="url(#p478ef99940)" style="fill: #ff7f0e; fill-opacity: 0.5; stroke: #ffffff; stroke-opacity: 0.5; stroke-width: 0.48"/>
    <path d="M 608.838843 301.681074 
L 611.838843 295.681074 
L 605.838843 295.681074 
z
" clip-path="url(#p478ef99940)" style="fill: #2ca02c; fill-opacity: 0.5; stroke: #ffffff; stroke-opacity: 0.5; stroke-width: 0.48"/>
    <path d="M 643.42562 290.153667 
C 644.221229 290.153667 644.984359 289.837568 645.54694 289.274987 
C 646.109521 288.712406 646.42562 287.949276 646.42562 287.153667 
C 646.42562 286.358057 646.109521 285.594927 645.54694 285.032346 
C 644.984359 284.469766 644.221229 284.153667 643.42562 284.153667 
C 642.630011 284.153667 641.86688 284.469766 641.304299 285.032346 
C 640.741719 285.594927 640.42562 286.358057 640.42562 287.153667 
C 640.42562 287.949276 640.741719 288.712406 641.304299 289.274987 
C 641.86688 289.837568 642.630011 290.153667 643.42562 290.153667 
z
" clip-path="url(#p478ef99940)" style="fill: #1f77b4; fill-opacity: 0.5; stroke: #ffffff; stroke-opacity: 0.5; stroke-width: 0.48"/>
    <path d="M 640.42562 279.497118 
L 646.42562 279.497118 
L 646.42562 273.497118 
L 640.42562 273.497118 
z
" clip-path="url(#p478ef99940)" style="fill: #ff7f0e; fill-opacity: 0.5; stroke: #ffffff; stroke-opacity: 0.5; stroke-width: 0.48"/>
    <path d="M 643.42562 272.592718 
L 646.42562 266.592718 
L 640.42562 266.592718 
z
" clip-path="url(#p478ef99940)" style="fill: #2ca02c; fill-opacity: 0.5; stroke: #ffffff; stroke-opacity: 0.5; stroke-width: 0.48"/>
    <path d="M 678.012397 261.205082 
C 678.808006 261.205082 679.571136 260.888983 680.133717 260.326402 
C 680.696298 259.763822 681.012397 259.000691 681.012397 258.205082 
C 681.012397 257.409473 680.696298 256.646342 680.133717 256.083762 
C 679.571136 255.521181 678.808006 255.205082 678.012397 255.205082 
C 677.216787 255.205082 676.453657 255.521181 675.891076 256.083762 
C 675.328496 256.646342 675.012397 257.409473 675.012397 258.205082 
C 675.012397 259.000691 675.328496 259.763822 675.891076 260.326402 
C 676.453657 260.888983 677.216787 261.205082 678.012397 261.205082 
z
" clip-path="url(#p478ef99940)" style="fill: #1f77b4; fill-opacity: 0.5; stroke: #ffffff; stroke-opacity: 0.5; stroke-width: 0.48"/>
    <path d="M 675.012397 254.315444 
L 681.012397 254.315444 
L 681.012397 248.315444 
L 675.012397 248.315444 
z
" clip-path="url(#p478ef99940)" style="fill: #ff7f0e; fill-opacity: 0.5; stroke: #ffffff; stroke-opacity: 0.5; stroke-width: 0.48"/>
    <path d="M 678.012397 250.453323 
L 681.012397 244.453323 
L 675.012397 244.453323 
z
" clip-path="url(#p478ef99940)" style="fill: #2ca02c; fill-opacity: 0.5; stroke: #ffffff; stroke-opacity: 0.5; stroke-width: 0.48"/>
    <path d="M 712.599174 217.438601 
C 713.394783 217.438601 714.157913 217.122502 714.720494 216.559921 
C 715.283075 215.997341 715.599174 215.23421 715.599174 214.438601 
C 715.599174 213.642992 715.283075 212.879861 714.720494 212.317281 
C 714.157913 211.7547 713.394783 211.438601 712.599174 211.438601 
C 711.803564 211.438601 711.040434 211.7547 710.477853 212.317281 
C 709.915272 212.879861 709.599174 213.642992 709.599174 214.438601 
C 709.599174 215.23421 709.915272 215.997341 710.477853 216.559921 
C 711.040434 217.122502 711.803564 217.438601 712.599174 217.438601 
z
" clip-path="url(#p478ef99940)" style="fill: #1f77b4; fill-opacity: 0.5; stroke: #ffffff; stroke-opacity: 0.5; stroke-width: 0.48"/>
    <path d="M 709.599174 191.770646 
L 715.599174 191.770646 
L 715.599174 185.770646 
L 709.599174 185.770646 
z
" clip-path="url(#p478ef99940)" style="fill: #ff7f0e; fill-opacity: 0.5; stroke: #ffffff; stroke-opacity: 0.5; stroke-width: 0.48"/>
    <path d="M 712.599174 218.116639 
L 715.599174 212.116639 
L 709.599174 212.116639 
z
" clip-path="url(#p478ef99940)" style="fill: #2ca02c; fill-opacity: 0.5; stroke: #ffffff; stroke-opacity: 0.5; stroke-width: 0.48"/>
    <path d="M 747.18595 175.944458 
C 747.98156 175.944458 748.74469 175.628359 749.307271 175.065779 
C 749.869851 174.503198 750.18595 173.740068 750.18595 172.944458 
C 750.18595 172.148849 749.869851 171.385719 749.307271 170.823138 
C 748.74469 170.260557 747.98156 169.944458 747.18595 169.944458 
C 746.390341 169.944458 745.627211 170.260557 745.06463 170.823138 
C 744.502049 171.385719 744.18595 172.148849 744.18595 172.944458 
C 744.18595 173.740068 744.502049 174.503198 745.06463 175.065779 
C 745.627211 175.628359 746.390341 175.944458 747.18595 175.944458 
z
" clip-path="url(#p478ef99940)" style="fill: #1f77b4; fill-opacity: 0.5; stroke: #ffffff; stroke-opacity: 0.5; stroke-width: 0.48"/>
    <path d="M 744.18595 152.977143 
L 750.18595 152.977143 
L 750.18595 146.977143 
L 744.18595 146.977143 
z
" clip-path="url(#p478ef99940)" style="fill: #ff7f0e; fill-opacity: 0.5; stroke: #ffffff; stroke-opacity: 0.5; stroke-width: 0.48"/>
    <path d="M 747.18595 197.556745 
L 750.18595 191.556745 
L 744.18595 191.556745 
z
" clip-path="url(#p478ef99940)" style="fill: #2ca02c; fill-opacity: 0.5; stroke: #ffffff; stroke-opacity: 0.5; stroke-width: 0.48"/>
    <path d="M 781.772727 149.869665 
C 782.568337 149.869665 783.331467 149.553566 783.894048 148.990986 
C 784.456628 148.428405 784.772727 147.665275 784.772727 146.869665 
C 784.772727 146.074056 784.456628 145.310926 783.894048 144.748345 
C 783.331467 144.185764 782.568337 143.869665 781.772727 143.869665 
C 780.977118 143.869665 780.213988 144.185764 779.651407 144.748345 
C 779.088826 145.310926 778.772727 146.074056 778.772727 146.869665 
C 778.772727 147.665275 779.088826 148.428405 779.651407 148.990986 
C 780.213988 149.553566 780.977118 149.869665 781.772727 149.869665 
z
" clip-path="url(#p478ef99940)" style="fill: #1f77b4; fill-opacity: 0.5; stroke: #ffffff; stroke-opacity: 0.5; stroke-width: 0.48"/>
    <path d="M 778.772727 130.1904 
L 784.772727 130.1904 
L 784.772727 124.1904 
L 778.772727 124.1904 
z
" clip-path="url(#p478ef99940)" style="fill: #ff7f0e; fill-opacity: 0.5; stroke: #ffffff; stroke-opacity: 0.5; stroke-width: 0.48"/>
    <path d="M 781.772727 179.682143 
L 784.772727 173.682143 
L 778.772727 173.682143 
z
" clip-path="url(#p478ef99940)" style="fill: #2ca02c; fill-opacity: 0.5; stroke: #ffffff; stroke-opacity: 0.5; stroke-width: 0.48"/>
    <path d="M 816.359504 130.974237 
C 817.155113 130.974237 817.918244 130.658138 818.480824 130.095557 
C 819.043405 129.532976 819.359504 128.769846 819.359504 127.974237 
C 819.359504 127.178627 819.043405 126.415497 818.480824 125.852916 
C 817.918244 125.290336 817.155113 124.974237 816.359504 124.974237 
C 815.563895 124.974237 814.800765 125.290336 814.238184 125.852916 
C 813.675603 126.415497 813.359504 127.178627 813.359504 127.974237 
C 813.359504 128.769846 813.675603 129.532976 814.238184 130.095557 
C 814.800765 130.658138 815.563895 130.974237 816.359504 130.974237 
z
" clip-path="url(#p478ef99940)" style="fill: #1f77b4; fill-opacity: 0.5; stroke: #ffffff; stroke-opacity: 0.5; stroke-width: 0.48"/>
    <path d="M 813.359504 112.309575 
L 819.359504 112.309575 
L 819.359504 106.309575 
L 813.359504 106.309575 
z
" clip-path="url(#p478ef99940)" style="fill: #ff7f0e; fill-opacity: 0.5; stroke: #ffffff; stroke-opacity: 0.5; stroke-width: 0.48"/>
    <path d="M 816.359504 163.872709 
L 819.359504 157.872709 
L 813.359504 157.872709 
z
" clip-path="url(#p478ef99940)" style="fill: #2ca02c; fill-opacity: 0.5; stroke: #ffffff; stroke-opacity: 0.5; stroke-width: 0.48"/>
    <path d="M 850.946281 115.669054 
C 851.74189 115.669054 852.505021 115.352955 853.067601 114.790374 
C 853.630182 114.227794 853.946281 113.464663 853.946281 112.669054 
C 853.946281 111.873445 853.630182 111.110314 853.067601 110.547734 
C 852.505021 109.985153 851.74189 109.669054 850.946281 109.669054 
C 850.150672 109.669054 849.387541 109.985153 848.824961 110.547734 
C 848.26238 111.110314 847.946281 111.873445 847.946281 112.669054 
C 847.946281 113.464663 848.26238 114.227794 848.824961 114.790374 
C 849.387541 115.352955 850.150672 115.669054 850.946281 115.669054 
z
" clip-path="url(#p478ef99940)" style="fill: #1f77b4; fill-opacity: 0.5; stroke: #ffffff; stroke-opacity: 0.5; stroke-width: 0.48"/>
    <path d="M 847.946281 102.437701 
L 853.946281 102.437701 
L 853.946281 96.437701 
L 847.946281 96.437701 
z
" clip-path="url(#p478ef99940)" style="fill: #ff7f0e; fill-opacity: 0.5; stroke: #ffffff; stroke-opacity: 0.5; stroke-width: 0.48"/>
    <path d="M 850.946281 153.294813 
L 853.946281 147.294813 
L 847.946281 147.294813 
z
" clip-path="url(#p478ef99940)" style="fill: #2ca02c; fill-opacity: 0.5; stroke: #ffffff; stroke-opacity: 0.5; stroke-width: 0.48"/>
    <path d="M 885.533058 102.80251 
C 886.328667 102.80251 887.091797 102.486411 887.654378 101.92383 
C 888.216959 101.361249 888.533058 100.598119 888.533058 99.80251 
C 888.533058 99.006901 888.216959 98.24377 887.654378 97.681189 
C 887.091797 97.118609 886.328667 96.80251 885.533058 96.80251 
C 884.737449 96.80251 883.974318 97.118609 883.411738 97.681189 
C 882.849157 98.24377 882.533058 99.006901 882.533058 99.80251 
C 882.533058 100.598119 882.849157 101.361249 883.411738 101.92383 
C 883.974318 102.486411 884.737449 102.80251 885.533058 102.80251 
z
" clip-path="url(#p478ef99940)" style="fill: #1f77b4; fill-opacity: 0.5; stroke: #ffffff; stroke-opacity: 0.5; stroke-width: 0.48"/>
    <path d="M 882.533058 92.515709 
L 888.533058 92.515709 
L 888.533058 86.515709 
L 882.533058 86.515709 
z
" clip-path="url(#p478ef99940)" style="fill: #ff7f0e; fill-opacity: 0.5; stroke: #ffffff; stroke-opacity: 0.5; stroke-width: 0.48"/>
    <path d="M 885.533058 142.954026 
L 888.533058 136.954026 
L 882.533058 136.954026 
z
" clip-path="url(#p478ef99940)" style="fill: #2ca02c; fill-opacity: 0.5; stroke: #ffffff; stroke-opacity: 0.5; stroke-width: 0.48"/>
    <path d="M 920.119835 91.961518 
C 920.915444 91.961518 921.678574 91.645419 922.241155 91.082838 
C 922.803736 90.520257 923.119835 89.757127 923.119835 88.961518 
C 923.119835 88.165909 922.803736 87.402778 922.241155 86.840197 
C 921.678574 86.277617 920.915444 85.961518 920.119835 85.961518 
C 919.324225 85.961518 918.561095 86.277617 917.998514 86.840197 
C 917.435934 87.402778 917.119835 88.165909 917.119835 88.961518 
C 917.119835 89.757127 917.435934 90.520257 917.998514 91.082838 
C 918.561095 91.645419 919.324225 91.961518 920.119835 91.961518 
z
" clip-path="url(#p478ef99940)" style="fill: #1f77b4; fill-opacity: 0.5; stroke: #ffffff; stroke-opacity: 0.5; stroke-width: 0.48"/>
    <path d="M 917.119835 81.110367 
L 923.119835 81.110367 
L 923.119835 75.110367 
L 917.119835 75.110367 
z
" clip-path="url(#p478ef99940)" style="fill: #ff7f0e; fill-opacity: 0.5; stroke: #ffffff; stroke-opacity: 0.5; stroke-width: 0.48"/>
    <path d="M 920.119835 129.995765 
L 923.119835 123.995765 
L 917.119835 123.995765 
z
" clip-path="url(#p478ef99940)" style="fill: #2ca02c; fill-opacity: 0.5; stroke: #ffffff; stroke-opacity: 0.5; stroke-width: 0.48"/>
    <path d="M 954.706612 82.435199 
C 955.502221 82.435199 956.265351 82.1191 956.827932 81.556519 
C 957.390513 80.993938 957.706612 80.230808 957.706612 79.435199 
C 957.706612 78.63959 957.390513 77.876459 956.827932 77.313878 
C 956.265351 76.751298 955.502221 76.435199 954.706612 76.435199 
C 953.911002 76.435199 953.147872 76.751298 952.585291 77.313878 
C 952.02271 77.876459 951.706612 78.63959 951.706612 79.435199 
C 951.706612 80.230808 952.02271 80.993938 952.585291 81.556519 
C 953.147872 82.1191 953.911002 82.435199 954.706612 82.435199 
z
" clip-path="url(#p478ef99940)" style="fill: #1f77b4; fill-opacity: 0.5; stroke: #ffffff; stroke-opacity: 0.5; stroke-width: 0.48"/>
    <path d="M 951.706612 72.649587 
L 957.706612 72.649587 
L 957.706612 66.649587 
L 951.706612 66.649587 
z
" clip-path="url(#p478ef99940)" style="fill: #ff7f0e; fill-opacity: 0.5; stroke: #ffffff; stroke-opacity: 0.5; stroke-width: 0.48"/>
    <path d="M 954.706612 122.397496 
L 957.706612 116.397496 
L 951.706612 116.397496 
z
" clip-path="url(#p478ef99940)" style="fill: #2ca02c; fill-opacity: 0.5; stroke: #ffffff; stroke-opacity: 0.5; stroke-width: 0.48"/>
   </g>
   <g id="PathCollection_9"/>
   <g id="PathCollection_10"/>
   <g id="PathCollection_11"/>
   <g id="matplotlib.axis_3">
    <g id="xtick_7">
     <g id="line2d_11">
      <g>
       <use xlink:href="#mbda368c5fe" x="608.838843" y="322.690909" style="stroke: #000000; stroke-width: 0.8"/>
      </g>
     </g>
     <g id="text_17">
      <text style="font: 8px 'DejaVu Sans', 'Bitstream Vera Sans', 'Computer Modern Sans Serif', 'Lucida Grande', 'Verdana', 'Geneva', 'Lucid', 'Arial', 'Helvetica', 'Avant Garde', sans-serif; text-anchor: middle" x="608.838843" y="335.769659" transform="rotate(-0 608.838843 335.769659)">2.0</text>
     </g>
    </g>
    <g id="xtick_8">
     <g id="line2d_12">
      <g>
       <use xlink:href="#mbda368c5fe" x="678.012397" y="322.690909" style="stroke: #000000; stroke-width: 0.8"/>
      </g>
     </g>
     <g id="text_18">
      <text style="font: 8px 'DejaVu Sans', 'Bitstream Vera Sans', 'Computer Modern Sans Serif', 'Lucida Grande', 'Verdana', 'Geneva', 'Lucid', 'Arial', 'Helvetica', 'Avant Garde', sans-serif; text-anchor: middle" x="678.012397" y="335.769659" transform="rotate(-0 678.012397 335.769659)">2.2</text>
     </g>
    </g>
    <g id="xtick_9">
     <g id="line2d_13">
      <g>
       <use xlink:href="#mbda368c5fe" x="747.18595" y="322.690909" style="stroke: #000000; stroke-width: 0.8"/>
      </g>
     </g>
     <g id="text_19">
      <text style="font: 8px 'DejaVu Sans', 'Bitstream Vera Sans', 'Computer Modern Sans Serif', 'Lucida Grande', 'Verdana', 'Geneva', 'Lucid', 'Arial', 'Helvetica', 'Avant Garde', sans-serif; text-anchor: middle" x="747.18595" y="335.769659" transform="rotate(-0 747.18595 335.769659)">2.4</text>
     </g>
    </g>
    <g id="xtick_10">
     <g id="line2d_14">
      <g>
       <use xlink:href="#mbda368c5fe" x="816.359504" y="322.690909" style="stroke: #000000; stroke-width: 0.8"/>
      </g>
     </g>
     <g id="text_20">
      <text style="font: 8px 'DejaVu Sans', 'Bitstream Vera Sans', 'Computer Modern Sans Serif', 'Lucida Grande', 'Verdana', 'Geneva', 'Lucid', 'Arial', 'Helvetica', 'Avant Garde', sans-serif; text-anchor: middle" x="816.359504" y="335.769659" transform="rotate(-0 816.359504 335.769659)">2.6</text>
     </g>
    </g>
    <g id="xtick_11">
     <g id="line2d_15">
      <g>
       <use xlink:href="#mbda368c5fe" x="885.533058" y="322.690909" style="stroke: #000000; stroke-width: 0.8"/>
      </g>
     </g>
     <g id="text_21">
      <text style="font: 8px 'DejaVu Sans', 'Bitstream Vera Sans', 'Computer Modern Sans Serif', 'Lucida Grande', 'Verdana', 'Geneva', 'Lucid', 'Arial', 'Helvetica', 'Avant Garde', sans-serif; text-anchor: middle" x="885.533058" y="335.769659" transform="rotate(-0 885.533058 335.769659)">2.8</text>
     </g>
    </g>
    <g id="xtick_12">
     <g id="line2d_16">
      <g>
       <use xlink:href="#mbda368c5fe" x="954.706612" y="322.690909" style="stroke: #000000; stroke-width: 0.8"/>
      </g>
     </g>
     <g id="text_22">
      <text style="font: 8px 'DejaVu Sans', 'Bitstream Vera Sans', 'Computer Modern Sans Serif', 'Lucida Grande', 'Verdana', 'Geneva', 'Lucid', 'Arial', 'Helvetica', 'Avant Garde', sans-serif; text-anchor: middle" x="954.706612" y="335.769659" transform="rotate(-0 954.706612 335.769659)">3.0</text>
     </g>
    </g>
    <g id="text_23">
     <text style="font: 8px 'DejaVu Sans', 'Bitstream Vera Sans', 'Computer Modern Sans Serif', 'Lucida Grande', 'Verdana', 'Geneva', 'Lucid', 'Arial', 'Helvetica', 'Avant Garde', sans-serif; text-anchor: middle" x="781.772727" y="347.512159" transform="rotate(-0 781.772727 347.512159)">Temperature</text>
    </g>
   </g>
   <g id="matplotlib.axis_4">
    <g id="ytick_5">
     <g id="line2d_17">
      <g>
       <use xlink:href="#mcddf85f49e" x="591.545455" y="306.510701" style="stroke: #000000; stroke-width: 0.8"/>
      </g>
     </g>
     <g id="text_24">
      <text style="font: 8px 'DejaVu Sans', 'Bitstream Vera Sans', 'Computer Modern Sans Serif', 'Lucida Grande', 'Verdana', 'Geneva', 'Lucid', 'Arial', 'Helvetica', 'Avant Garde', sans-serif; text-anchor: end" x="584.545455" y="309.550076" transform="rotate(-0 584.545455 309.550076)">−7000</text>
     </g>
    </g>
    <g id="ytick_6">
     <g id="line2d_18">
      <g>
       <use xlink:href="#mcddf85f49e" x="591.545455" y="256.325234" style="stroke: #000000; stroke-width: 0.8"/>
      </g>
     </g>
     <g id="text_25">
      <text style="font: 8px 'DejaVu Sans', 'Bitstream Vera Sans', 'Computer Modern Sans Serif', 'Lucida Grande', 'Verdana', 'Geneva', 'Lucid', 'Arial', 'Helvetica', 'Avant Garde', sans-serif; text-anchor: end" x="584.545455" y="259.364609" transform="rotate(-0 584.545455 259.364609)">−6000</text>
     </g>
    </g>
    <g id="ytick_7">
     <g id="line2d_19">
      <g>
       <use xlink:href="#mcddf85f49e" x="591.545455" y="206.139768" style="stroke: #000000; stroke-width: 0.8"/>
      </g>
     </g>
     <g id="text_26">
      <text style="font: 8px 'DejaVu Sans', 'Bitstream Vera Sans', 'Computer Modern Sans Serif', 'Lucida Grande', 'Verdana', 'Geneva', 'Lucid', 'Arial', 'Helvetica', 'Avant Garde', sans-serif; text-anchor: end" x="584.545455" y="209.179143" transform="rotate(-0 584.545455 209.179143)">−5000</text>
     </g>
    </g>
    <g id="ytick_8">
     <g id="line2d_20">
      <g>
       <use xlink:href="#mcddf85f49e" x="591.545455" y="155.954301" style="stroke: #000000; stroke-width: 0.8"/>
      </g>
     </g>
     <g id="text_27">
      <text style="font: 8px 'DejaVu Sans', 'Bitstream Vera Sans', 'Computer Modern Sans Serif', 'Lucida Grande', 'Verdana', 'Geneva', 'Lucid', 'Arial', 'Helvetica', 'Avant Garde', sans-serif; text-anchor: end" x="584.545455" y="158.993676" transform="rotate(-0 584.545455 158.993676)">−4000</text>
     </g>
    </g>
    <g id="ytick_9">
     <g id="line2d_21">
      <g>
       <use xlink:href="#mcddf85f49e" x="591.545455" y="105.768834" style="stroke: #000000; stroke-width: 0.8"/>
      </g>
     </g>
     <g id="text_28">
      <text style="font: 8px 'DejaVu Sans', 'Bitstream Vera Sans', 'Computer Modern Sans Serif', 'Lucida Grande', 'Verdana', 'Geneva', 'Lucid', 'Arial', 'Helvetica', 'Avant Garde', sans-serif; text-anchor: end" x="584.545455" y="108.808209" transform="rotate(-0 584.545455 108.808209)">−3000</text>
     </g>
    </g>
    <g id="text_29">
     <text style="font: 8px 'DejaVu Sans', 'Bitstream Vera Sans', 'Computer Modern Sans Serif', 'Lucida Grande', 'Verdana', 'Geneva', 'Lucid', 'Arial', 'Helvetica', 'Avant Garde', sans-serif; text-anchor: middle" x="551.817955" y="190.145455" transform="rotate(-90 551.817955 190.145455)">Energy</text>
    </g>
   </g>
   <g id="patch_9">
    <path d="M 591.545455 322.690909 
L 591.545455 57.6 
" style="fill: none; stroke: #000000; stroke-width: 0.8; stroke-linejoin: miter; stroke-linecap: square"/>
   </g>
   <g id="patch_10">
    <path d="M 972 322.690909 
L 972 57.6 
" style="fill: none; stroke: #000000; stroke-width: 0.8; stroke-linejoin: miter; stroke-linecap: square"/>
   </g>
   <g id="patch_11">
    <path d="M 591.545455 322.690909 
L 972 322.690909 
" style="fill: none; stroke: #000000; stroke-width: 0.8; stroke-linejoin: miter; stroke-linecap: square"/>
   </g>
   <g id="patch_12">
    <path d="M 591.545455 57.6 
L 972 57.6 
" style="fill: none; stroke: #000000; stroke-width: 0.8; stroke-linejoin: miter; stroke-linecap: square"/>
   </g>
   <g id="legend_2">
    <g id="patch_13">
     <path d="M 597.145455 110.97 
L 706.427955 110.97 
Q 708.027955 110.97 708.027955 109.37 
L 708.027955 63.2 
Q 708.027955 61.6 706.427955 61.6 
L 597.145455 61.6 
Q 595.545455 61.6 595.545455 63.2 
L 595.545455 109.37 
Q 595.545455 110.97 597.145455 110.97 
z
" style="fill: #ffffff; opacity: 0.8; stroke: #cccccc; stroke-linejoin: miter"/>
    </g>
    <g id="text_30">
     <text style="font: 8px 'DejaVu Sans', 'Bitstream Vera Sans', 'Computer Modern Sans Serif', 'Lucida Grande', 'Verdana', 'Geneva', 'Lucid', 'Arial', 'Helvetica', 'Avant Garde', sans-serif; text-anchor: start" x="636.784205" y="70.87875" transform="rotate(-0 636.784205 70.87875)">Method</text>
    </g>
    <g id="PathCollection_12">
     <g>
      <use xlink:href="#mcbd9a2d6ef" x="606.745455" y="80.52125" style="fill: #1f77b4; stroke: #1f77b4"/>
     </g>
    </g>
    <g id="text_31">
     <text style="font: 8px 'DejaVu Sans', 'Bitstream Vera Sans', 'Computer Modern Sans Serif', 'Lucida Grande', 'Verdana', 'Geneva', 'Lucid', 'Arial', 'Helvetica', 'Avant Garde', sans-serif; text-anchor: start" x="621.145455" y="82.62125" transform="rotate(-0 621.145455 82.62125)">Monte Carlo</text>
    </g>
    <g id="PathCollection_13">
     <g>
      <use xlink:href="#m829a8e785a" x="606.745455" y="92.26375" style="fill: #ff7f0e; stroke: #ff7f0e"/>
     </g>
    </g>
    <g id="text_32">
     <text style="font: 8px 'DejaVu Sans', 'Bitstream Vera Sans', 'Computer Modern Sans Serif', 'Lucida Grande', 'Verdana', 'Geneva', 'Lucid', 'Arial', 'Helvetica', 'Avant Garde', sans-serif; text-anchor: start" x="621.145455" y="94.36375" transform="rotate(-0 621.145455 94.36375)">Sampled VAE gm</text>
    </g>
    <g id="PathCollection_14">
     <g>
      <use xlink:href="#m9f9d75483a" x="606.745455" y="104.00625" style="fill: #2ca02c; stroke: #2ca02c"/>
     </g>
    </g>
    <g id="text_33">
     <text style="font: 8px 'DejaVu Sans', 'Bitstream Vera Sans', 'Computer Modern Sans Serif', 'Lucida Grande', 'Verdana', 'Geneva', 'Lucid', 'Arial', 'Helvetica', 'Avant Garde', sans-serif; text-anchor: start" x="621.145455" y="106.10625" transform="rotate(-0 621.145455 106.10625)">Sampled VAE normal</text>
    </g>
   </g>
  </g>
  <g id="axes_3">
   <g id="patch_14">
    <path d="M 135 640.8 
L 515.454545 640.8 
L 515.454545 375.709091 
L 135 375.709091 
z
" style="fill: #ffffff"/>
   </g>
   <g id="PathCollection_15">
    <path d="M 152.293388 397.294849 
C 153.088998 397.294849 153.852128 396.97875 154.414709 396.416169 
C 154.97729 395.853588 155.293388 395.090458 155.293388 394.294849 
C 155.293388 393.499239 154.97729 392.736109 154.414709 392.173528 
C 153.852128 391.610948 153.088998 391.294849 152.293388 391.294849 
C 151.497779 391.294849 150.734649 391.610948 150.172068 392.173528 
C 149.609487 392.736109 149.293388 393.499239 149.293388 394.294849 
C 149.293388 395.090458 149.609487 395.853588 150.172068 396.416169 
C 150.734649 396.97875 151.497779 397.294849 152.293388 397.294849 
z
" clip-path="url(#pbbfe3b4a93)" style="fill: #1f77b4; fill-opacity: 0.5; stroke: #ffffff; stroke-opacity: 0.5; stroke-width: 0.48"/>
    <path d="M 149.293388 390.758678 
L 155.293388 390.758678 
L 155.293388 384.758678 
L 149.293388 384.758678 
z
" clip-path="url(#pbbfe3b4a93)" style="fill: #ff7f0e; fill-opacity: 0.5; stroke: #ffffff; stroke-opacity: 0.5; stroke-width: 0.48"/>
    <path d="M 152.293388 407.048373 
L 155.293388 401.048373 
L 149.293388 401.048373 
z
" clip-path="url(#pbbfe3b4a93)" style="fill: #2ca02c; fill-opacity: 0.5; stroke: #ffffff; stroke-opacity: 0.5; stroke-width: 0.48"/>
    <path d="M 186.880165 428.805629 
C 187.675775 428.805629 188.438905 428.48953 189.001486 427.926949 
C 189.564066 427.364369 189.880165 426.601238 189.880165 425.805629 
C 189.880165 425.01002 189.564066 424.246889 189.001486 423.684309 
C 188.438905 423.121728 187.675775 422.805629 186.880165 422.805629 
C 186.084556 422.805629 185.321426 423.121728 184.758845 423.684309 
C 184.196264 424.246889 183.880165 425.01002 183.880165 425.805629 
C 183.880165 426.601238 184.196264 427.364369 184.758845 427.926949 
C 185.321426 428.48953 186.084556 428.805629 186.880165 428.805629 
z
" clip-path="url(#pbbfe3b4a93)" style="fill: #1f77b4; fill-opacity: 0.5; stroke: #ffffff; stroke-opacity: 0.5; stroke-width: 0.48"/>
    <path d="M 183.880165 430.777733 
L 189.880165 430.777733 
L 189.880165 424.777733 
L 183.880165 424.777733 
z
" clip-path="url(#pbbfe3b4a93)" style="fill: #ff7f0e; fill-opacity: 0.5; stroke: #ffffff; stroke-opacity: 0.5; stroke-width: 0.48"/>
    <path d="M 186.880165 450.263445 
L 189.880165 444.263445 
L 183.880165 444.263445 
z
" clip-path="url(#pbbfe3b4a93)" style="fill: #2ca02c; fill-opacity: 0.5; stroke: #ffffff; stroke-opacity: 0.5; stroke-width: 0.48"/>
    <path d="M 221.466942 472.057274 
C 222.262551 472.057274 223.025682 471.741175 223.588262 471.178594 
C 224.150843 470.616013 224.466942 469.852883 224.466942 469.057274 
C 224.466942 468.261664 224.150843 467.498534 223.588262 466.935953 
C 223.025682 466.373373 222.262551 466.057274 221.466942 466.057274 
C 220.671333 466.057274 219.908203 466.373373 219.345622 466.935953 
C 218.783041 467.498534 218.466942 468.261664 218.466942 469.057274 
C 218.466942 469.852883 218.783041 470.616013 219.345622 471.178594 
C 219.908203 471.741175 220.671333 472.057274 221.466942 472.057274 
z
" clip-path="url(#pbbfe3b4a93)" style="fill: #1f77b4; fill-opacity: 0.5; stroke: #ffffff; stroke-opacity: 0.5; stroke-width: 0.48"/>
    <path d="M 218.466942 464.894394 
L 224.466942 464.894394 
L 224.466942 458.894394 
L 218.466942 458.894394 
z
" clip-path="url(#pbbfe3b4a93)" style="fill: #ff7f0e; fill-opacity: 0.5; stroke: #ffffff; stroke-opacity: 0.5; stroke-width: 0.48"/>
    <path d="M 221.466942 493.510028 
L 224.466942 487.510028 
L 218.466942 487.510028 
z
" clip-path="url(#pbbfe3b4a93)" style="fill: #2ca02c; fill-opacity: 0.5; stroke: #ffffff; stroke-opacity: 0.5; stroke-width: 0.48"/>
    <path d="M 256.053719 543.263797 
C 256.849328 543.263797 257.612459 542.947698 258.175039 542.385117 
C 258.73762 541.822537 259.053719 541.059406 259.053719 540.263797 
C 259.053719 539.468188 258.73762 538.705058 258.175039 538.142477 
C 257.612459 537.579896 256.849328 537.263797 256.053719 537.263797 
C 255.25811 537.263797 254.494979 537.579896 253.932399 538.142477 
C 253.369818 538.705058 253.053719 539.468188 253.053719 540.263797 
C 253.053719 541.059406 253.369818 541.822537 253.932399 542.385117 
C 254.494979 542.947698 255.25811 543.263797 256.053719 543.263797 
z
" clip-path="url(#pbbfe3b4a93)" style="fill: #1f77b4; fill-opacity: 0.5; stroke: #ffffff; stroke-opacity: 0.5; stroke-width: 0.48"/>
    <path d="M 253.053719 551.344055 
L 259.053719 551.344055 
L 259.053719 545.344055 
L 253.053719 545.344055 
z
" clip-path="url(#pbbfe3b4a93)" style="fill: #ff7f0e; fill-opacity: 0.5; stroke: #ffffff; stroke-opacity: 0.5; stroke-width: 0.48"/>
    <path d="M 256.053719 563.422867 
L 259.053719 557.422867 
L 253.053719 557.422867 
z
" clip-path="url(#pbbfe3b4a93)" style="fill: #2ca02c; fill-opacity: 0.5; stroke: #ffffff; stroke-opacity: 0.5; stroke-width: 0.48"/>
    <path d="M 290.640496 601.11973 
C 291.436105 601.11973 292.199235 600.803631 292.761816 600.24105 
C 293.324397 599.67847 293.640496 598.915339 293.640496 598.11973 
C 293.640496 597.324121 293.324397 596.56099 292.761816 595.99841 
C 292.199235 595.435829 291.436105 595.11973 290.640496 595.11973 
C 289.844887 595.11973 289.081756 595.435829 288.519176 595.99841 
C 287.956595 596.56099 287.640496 597.324121 287.640496 598.11973 
C 287.640496 598.915339 287.956595 599.67847 288.519176 600.24105 
C 289.081756 600.803631 289.844887 601.11973 290.640496 601.11973 
z
" clip-path="url(#pbbfe3b4a93)" style="fill: #1f77b4; fill-opacity: 0.5; stroke: #ffffff; stroke-opacity: 0.5; stroke-width: 0.48"/>
    <path d="M 287.640496 604.795565 
L 293.640496 604.795565 
L 293.640496 598.795565 
L 287.640496 598.795565 
z
" clip-path="url(#pbbfe3b4a93)" style="fill: #ff7f0e; fill-opacity: 0.5; stroke: #ffffff; stroke-opacity: 0.5; stroke-width: 0.48"/>
    <path d="M 290.640496 608.547839 
L 293.640496 602.547839 
L 287.640496 602.547839 
z
" clip-path="url(#pbbfe3b4a93)" style="fill: #2ca02c; fill-opacity: 0.5; stroke: #ffffff; stroke-opacity: 0.5; stroke-width: 0.48"/>
    <path d="M 325.227273 619.709315 
C 326.022882 619.709315 326.786012 619.393216 327.348593 618.830635 
C 327.911174 618.268054 328.227273 617.504924 328.227273 616.709315 
C 328.227273 615.913705 327.911174 615.150575 327.348593 614.587994 
C 326.786012 614.025414 326.022882 613.709315 325.227273 613.709315 
C 324.431663 613.709315 323.668533 614.025414 323.105952 614.587994 
C 322.543372 615.150575 322.227273 615.913705 322.227273 616.709315 
C 322.227273 617.504924 322.543372 618.268054 323.105952 618.830635 
C 323.668533 619.393216 324.431663 619.709315 325.227273 619.709315 
z
" clip-path="url(#pbbfe3b4a93)" style="fill: #1f77b4; fill-opacity: 0.5; stroke: #ffffff; stroke-opacity: 0.5; stroke-width: 0.48"/>
    <path d="M 322.227273 621.271021 
L 328.227273 621.271021 
L 328.227273 615.271021 
L 322.227273 615.271021 
z
" clip-path="url(#pbbfe3b4a93)" style="fill: #ff7f0e; fill-opacity: 0.5; stroke: #ffffff; stroke-opacity: 0.5; stroke-width: 0.48"/>
    <path d="M 325.227273 622.330701 
L 328.227273 616.330701 
L 322.227273 616.330701 
z
" clip-path="url(#pbbfe3b4a93)" style="fill: #2ca02c; fill-opacity: 0.5; stroke: #ffffff; stroke-opacity: 0.5; stroke-width: 0.48"/>
    <path d="M 359.81405 625.850502 
C 360.609659 625.850502 361.372789 625.534403 361.93537 624.971822 
C 362.497951 624.409242 362.81405 623.646111 362.81405 622.850502 
C 362.81405 622.054893 362.497951 621.291763 361.93537 620.729182 
C 361.372789 620.166601 360.609659 619.850502 359.81405 619.850502 
C 359.01844 619.850502 358.25531 620.166601 357.692729 620.729182 
C 357.130149 621.291763 356.81405 622.054893 356.81405 622.850502 
C 356.81405 623.646111 357.130149 624.409242 357.692729 624.971822 
C 358.25531 625.534403 359.01844 625.850502 359.81405 625.850502 
z
" clip-path="url(#pbbfe3b4a93)" style="fill: #1f77b4; fill-opacity: 0.5; stroke: #ffffff; stroke-opacity: 0.5; stroke-width: 0.48"/>
    <path d="M 356.81405 627.472271 
L 362.81405 627.472271 
L 362.81405 621.472271 
L 356.81405 621.472271 
z
" clip-path="url(#pbbfe3b4a93)" style="fill: #ff7f0e; fill-opacity: 0.5; stroke: #ffffff; stroke-opacity: 0.5; stroke-width: 0.48"/>
    <path d="M 359.81405 626.609455 
L 362.81405 620.609455 
L 356.81405 620.609455 
z
" clip-path="url(#pbbfe3b4a93)" style="fill: #2ca02c; fill-opacity: 0.5; stroke: #ffffff; stroke-opacity: 0.5; stroke-width: 0.48"/>
    <path d="M 394.400826 628.55884 
C 395.196436 628.55884 395.959566 628.242741 396.522147 627.68016 
C 397.084728 627.11758 397.400826 626.354449 397.400826 625.55884 
C 397.400826 624.763231 397.084728 624.0001 396.522147 623.43752 
C 395.959566 622.874939 395.196436 622.55884 394.400826 622.55884 
C 393.605217 622.55884 392.842087 622.874939 392.279506 623.43752 
C 391.716925 624.0001 391.400826 624.763231 391.400826 625.55884 
C 391.400826 626.354449 391.716925 627.11758 392.279506 627.68016 
C 392.842087 628.242741 393.605217 628.55884 394.400826 628.55884 
z
" clip-path="url(#pbbfe3b4a93)" style="fill: #1f77b4; fill-opacity: 0.5; stroke: #ffffff; stroke-opacity: 0.5; stroke-width: 0.48"/>
    <path d="M 391.400826 628.891359 
L 397.400826 628.891359 
L 397.400826 622.891359 
L 391.400826 622.891359 
z
" clip-path="url(#pbbfe3b4a93)" style="fill: #ff7f0e; fill-opacity: 0.5; stroke: #ffffff; stroke-opacity: 0.5; stroke-width: 0.48"/>
    <path d="M 394.400826 629.426533 
L 397.400826 623.426533 
L 391.400826 623.426533 
z
" clip-path="url(#pbbfe3b4a93)" style="fill: #2ca02c; fill-opacity: 0.5; stroke: #ffffff; stroke-opacity: 0.5; stroke-width: 0.48"/>
    <path d="M 428.987603 629.987784 
C 429.783213 629.987784 430.546343 629.671685 431.108924 629.109104 
C 431.671504 628.546524 431.987603 627.783393 431.987603 626.987784 
C 431.987603 626.192175 431.671504 625.429045 431.108924 624.866464 
C 430.546343 624.303883 429.783213 623.987784 428.987603 623.987784 
C 428.191994 623.987784 427.428864 624.303883 426.866283 624.866464 
C 426.303702 625.429045 425.987603 626.192175 425.987603 626.987784 
C 425.987603 627.783393 426.303702 628.546524 426.866283 629.109104 
C 427.428864 629.671685 428.191994 629.987784 428.987603 629.987784 
z
" clip-path="url(#pbbfe3b4a93)" style="fill: #1f77b4; fill-opacity: 0.5; stroke: #ffffff; stroke-opacity: 0.5; stroke-width: 0.48"/>
    <path d="M 425.987603 629.713463 
L 431.987603 629.713463 
L 431.987603 623.713463 
L 425.987603 623.713463 
z
" clip-path="url(#pbbfe3b4a93)" style="fill: #ff7f0e; fill-opacity: 0.5; stroke: #ffffff; stroke-opacity: 0.5; stroke-width: 0.48"/>
    <path d="M 428.987603 630.143644 
L 431.987603 624.143644 
L 425.987603 624.143644 
z
" clip-path="url(#pbbfe3b4a93)" style="fill: #2ca02c; fill-opacity: 0.5; stroke: #ffffff; stroke-opacity: 0.5; stroke-width: 0.48"/>
    <path d="M 463.57438 630.847902 
C 464.369989 630.847902 465.13312 630.531803 465.695701 629.969222 
C 466.258281 629.406642 466.57438 628.643511 466.57438 627.847902 
C 466.57438 627.052293 466.258281 626.289162 465.695701 625.726582 
C 465.13312 625.164001 464.369989 624.847902 463.57438 624.847902 
C 462.778771 624.847902 462.015641 625.164001 461.45306 625.726582 
C 460.890479 626.289162 460.57438 627.052293 460.57438 627.847902 
C 460.57438 628.643511 460.890479 629.406642 461.45306 629.969222 
C 462.015641 630.531803 462.778771 630.847902 463.57438 630.847902 
z
" clip-path="url(#pbbfe3b4a93)" style="fill: #1f77b4; fill-opacity: 0.5; stroke: #ffffff; stroke-opacity: 0.5; stroke-width: 0.48"/>
    <path d="M 460.57438 631.131881 
L 466.57438 631.131881 
L 466.57438 625.131881 
L 460.57438 625.131881 
z
" clip-path="url(#pbbfe3b4a93)" style="fill: #ff7f0e; fill-opacity: 0.5; stroke: #ffffff; stroke-opacity: 0.5; stroke-width: 0.48"/>
    <path d="M 463.57438 631.021117 
L 466.57438 625.021117 
L 460.57438 625.021117 
z
" clip-path="url(#pbbfe3b4a93)" style="fill: #2ca02c; fill-opacity: 0.5; stroke: #ffffff; stroke-opacity: 0.5; stroke-width: 0.48"/>
    <path d="M 498.161157 631.40659 
C 498.956766 631.40659 499.719897 631.090491 500.282477 630.527911 
C 500.845058 629.96533 501.161157 629.2022 501.161157 628.40659 
C 501.161157 627.610981 500.845058 626.847851 500.282477 626.28527 
C 499.719897 625.722689 498.956766 625.40659 498.161157 625.40659 
C 497.365548 625.40659 496.602417 625.722689 496.039837 626.28527 
C 495.477256 626.847851 495.161157 627.610981 495.161157 628.40659 
C 495.161157 629.2022 495.477256 629.96533 496.039837 630.527911 
C 496.602417 631.090491 497.365548 631.40659 498.161157 631.40659 
z
" clip-path="url(#pbbfe3b4a93)" style="fill: #1f77b4; fill-opacity: 0.5; stroke: #ffffff; stroke-opacity: 0.5; stroke-width: 0.48"/>
    <path d="M 495.161157 631.750413 
L 501.161157 631.750413 
L 501.161157 625.750413 
L 495.161157 625.750413 
z
" clip-path="url(#pbbfe3b4a93)" style="fill: #ff7f0e; fill-opacity: 0.5; stroke: #ffffff; stroke-opacity: 0.5; stroke-width: 0.48"/>
    <path d="M 498.161157 631.434115 
L 501.161157 625.434115 
L 495.161157 625.434115 
z
" clip-path="url(#pbbfe3b4a93)" style="fill: #2ca02c; fill-opacity: 0.5; stroke: #ffffff; stroke-opacity: 0.5; stroke-width: 0.48"/>
   </g>
   <g id="PathCollection_16"/>
   <g id="PathCollection_17"/>
   <g id="PathCollection_18"/>
   <g id="matplotlib.axis_5">
    <g id="xtick_13">
     <g id="line2d_22">
      <g>
       <use xlink:href="#mbda368c5fe" x="152.293388" y="640.8" style="stroke: #000000; stroke-width: 0.8"/>
      </g>
     </g>
     <g id="text_34">
      <text style="font: 8px 'DejaVu Sans', 'Bitstream Vera Sans', 'Computer Modern Sans Serif', 'Lucida Grande', 'Verdana', 'Geneva', 'Lucid', 'Arial', 'Helvetica', 'Avant Garde', sans-serif; text-anchor: middle" x="152.293388" y="653.87875" transform="rotate(-0 152.293388 653.87875)">2.0</text>
     </g>
    </g>
    <g id="xtick_14">
     <g id="line2d_23">
      <g>
       <use xlink:href="#mbda368c5fe" x="221.466942" y="640.8" style="stroke: #000000; stroke-width: 0.8"/>
      </g>
     </g>
     <g id="text_35">
      <text style="font: 8px 'DejaVu Sans', 'Bitstream Vera Sans', 'Computer Modern Sans Serif', 'Lucida Grande', 'Verdana', 'Geneva', 'Lucid', 'Arial', 'Helvetica', 'Avant Garde', sans-serif; text-anchor: middle" x="221.466942" y="653.87875" transform="rotate(-0 221.466942 653.87875)">2.2</text>
     </g>
    </g>
    <g id="xtick_15">
     <g id="line2d_24">
      <g>
       <use xlink:href="#mbda368c5fe" x="290.640496" y="640.8" style="stroke: #000000; stroke-width: 0.8"/>
      </g>
     </g>
     <g id="text_36">
      <text style="font: 8px 'DejaVu Sans', 'Bitstream Vera Sans', 'Computer Modern Sans Serif', 'Lucida Grande', 'Verdana', 'Geneva', 'Lucid', 'Arial', 'Helvetica', 'Avant Garde', sans-serif; text-anchor: middle" x="290.640496" y="653.87875" transform="rotate(-0 290.640496 653.87875)">2.4</text>
     </g>
    </g>
    <g id="xtick_16">
     <g id="line2d_25">
      <g>
       <use xlink:href="#mbda368c5fe" x="359.81405" y="640.8" style="stroke: #000000; stroke-width: 0.8"/>
      </g>
     </g>
     <g id="text_37">
      <text style="font: 8px 'DejaVu Sans', 'Bitstream Vera Sans', 'Computer Modern Sans Serif', 'Lucida Grande', 'Verdana', 'Geneva', 'Lucid', 'Arial', 'Helvetica', 'Avant Garde', sans-serif; text-anchor: middle" x="359.81405" y="653.87875" transform="rotate(-0 359.81405 653.87875)">2.6</text>
     </g>
    </g>
    <g id="xtick_17">
     <g id="line2d_26">
      <g>
       <use xlink:href="#mbda368c5fe" x="428.987603" y="640.8" style="stroke: #000000; stroke-width: 0.8"/>
      </g>
     </g>
     <g id="text_38">
      <text style="font: 8px 'DejaVu Sans', 'Bitstream Vera Sans', 'Computer Modern Sans Serif', 'Lucida Grande', 'Verdana', 'Geneva', 'Lucid', 'Arial', 'Helvetica', 'Avant Garde', sans-serif; text-anchor: middle" x="428.987603" y="653.87875" transform="rotate(-0 428.987603 653.87875)">2.8</text>
     </g>
    </g>
    <g id="xtick_18">
     <g id="line2d_27">
      <g>
       <use xlink:href="#mbda368c5fe" x="498.161157" y="640.8" style="stroke: #000000; stroke-width: 0.8"/>
      </g>
     </g>
     <g id="text_39">
      <text style="font: 8px 'DejaVu Sans', 'Bitstream Vera Sans', 'Computer Modern Sans Serif', 'Lucida Grande', 'Verdana', 'Geneva', 'Lucid', 'Arial', 'Helvetica', 'Avant Garde', sans-serif; text-anchor: middle" x="498.161157" y="653.87875" transform="rotate(-0 498.161157 653.87875)">3.0</text>
     </g>
    </g>
    <g id="text_40">
     <text style="font: 8px 'DejaVu Sans', 'Bitstream Vera Sans', 'Computer Modern Sans Serif', 'Lucida Grande', 'Verdana', 'Geneva', 'Lucid', 'Arial', 'Helvetica', 'Avant Garde', sans-serif; text-anchor: middle" x="325.227273" y="665.62125" transform="rotate(-0 325.227273 665.62125)">Temperature</text>
    </g>
   </g>
   <g id="matplotlib.axis_6">
    <g id="ytick_10">
     <g id="line2d_28">
      <g>
       <use xlink:href="#mcddf85f49e" x="135" y="630.542" style="stroke: #000000; stroke-width: 0.8"/>
      </g>
     </g>
     <g id="text_41">
      <text style="font: 8px 'DejaVu Sans', 'Bitstream Vera Sans', 'Computer Modern Sans Serif', 'Lucida Grande', 'Verdana', 'Geneva', 'Lucid', 'Arial', 'Helvetica', 'Avant Garde', sans-serif; text-anchor: end" x="128" y="633.581375" transform="rotate(-0 128 633.581375)">0.0</text>
     </g>
    </g>
    <g id="ytick_11">
     <g id="line2d_29">
      <g>
       <use xlink:href="#mcddf85f49e" x="135" y="573.708173" style="stroke: #000000; stroke-width: 0.8"/>
      </g>
     </g>
     <g id="text_42">
      <text style="font: 8px 'DejaVu Sans', 'Bitstream Vera Sans', 'Computer Modern Sans Serif', 'Lucida Grande', 'Verdana', 'Geneva', 'Lucid', 'Arial', 'Helvetica', 'Avant Garde', sans-serif; text-anchor: end" x="128" y="576.747548" transform="rotate(-0 128 576.747548)">0.1</text>
     </g>
    </g>
    <g id="ytick_12">
     <g id="line2d_30">
      <g>
       <use xlink:href="#mcddf85f49e" x="135" y="516.874347" style="stroke: #000000; stroke-width: 0.8"/>
      </g>
     </g>
     <g id="text_43">
      <text style="font: 8px 'DejaVu Sans', 'Bitstream Vera Sans', 'Computer Modern Sans Serif', 'Lucida Grande', 'Verdana', 'Geneva', 'Lucid', 'Arial', 'Helvetica', 'Avant Garde', sans-serif; text-anchor: end" x="128" y="519.913722" transform="rotate(-0 128 519.913722)">0.2</text>
     </g>
    </g>
    <g id="ytick_13">
     <g id="line2d_31">
      <g>
       <use xlink:href="#mcddf85f49e" x="135" y="460.04052" style="stroke: #000000; stroke-width: 0.8"/>
      </g>
     </g>
     <g id="text_44">
      <text style="font: 8px 'DejaVu Sans', 'Bitstream Vera Sans', 'Computer Modern Sans Serif', 'Lucida Grande', 'Verdana', 'Geneva', 'Lucid', 'Arial', 'Helvetica', 'Avant Garde', sans-serif; text-anchor: end" x="128" y="463.079895" transform="rotate(-0 128 463.079895)">0.3</text>
     </g>
    </g>
    <g id="ytick_14">
     <g id="line2d_32">
      <g>
       <use xlink:href="#mcddf85f49e" x="135" y="403.206693" style="stroke: #000000; stroke-width: 0.8"/>
      </g>
     </g>
     <g id="text_45">
      <text style="font: 8px 'DejaVu Sans', 'Bitstream Vera Sans', 'Computer Modern Sans Serif', 'Lucida Grande', 'Verdana', 'Geneva', 'Lucid', 'Arial', 'Helvetica', 'Avant Garde', sans-serif; text-anchor: end" x="128" y="406.246068" transform="rotate(-0 128 406.246068)">0.4</text>
     </g>
    </g>
    <g id="text_46">
     <text style="font: 8px 'DejaVu Sans', 'Bitstream Vera Sans', 'Computer Modern Sans Serif', 'Lucida Grande', 'Verdana', 'Geneva', 'Lucid', 'Arial', 'Helvetica', 'Avant Garde', sans-serif; text-anchor: middle" x="109.61375" y="508.254545" transform="rotate(-90 109.61375 508.254545)">Magnetic susceptibility</text>
    </g>
   </g>
   <g id="patch_15">
    <path d="M 135 640.8 
L 135 375.709091 
" style="fill: none; stroke: #000000; stroke-width: 0.8; stroke-linejoin: miter; stroke-linecap: square"/>
   </g>
   <g id="patch_16">
    <path d="M 515.454545 640.8 
L 515.454545 375.709091 
" style="fill: none; stroke: #000000; stroke-width: 0.8; stroke-linejoin: miter; stroke-linecap: square"/>
   </g>
   <g id="patch_17">
    <path d="M 135 640.8 
L 515.454545 640.8 
" style="fill: none; stroke: #000000; stroke-width: 0.8; stroke-linejoin: miter; stroke-linecap: square"/>
   </g>
   <g id="patch_18">
    <path d="M 135 375.709091 
L 515.454545 375.709091 
" style="fill: none; stroke: #000000; stroke-width: 0.8; stroke-linejoin: miter; stroke-linecap: square"/>
   </g>
   <g id="legend_3">
    <g id="patch_19">
     <path d="M 400.572045 429.079091 
L 509.854545 429.079091 
Q 511.454545 429.079091 511.454545 427.479091 
L 511.454545 381.309091 
Q 511.454545 379.709091 509.854545 379.709091 
L 400.572045 379.709091 
Q 398.972045 379.709091 398.972045 381.309091 
L 398.972045 427.479091 
Q 398.972045 429.079091 400.572045 429.079091 
z
" style="fill: #ffffff; opacity: 0.8; stroke: #cccccc; stroke-linejoin: miter"/>
    </g>
    <g id="text_47">
     <text style="font: 8px 'DejaVu Sans', 'Bitstream Vera Sans', 'Computer Modern Sans Serif', 'Lucida Grande', 'Verdana', 'Geneva', 'Lucid', 'Arial', 'Helvetica', 'Avant Garde', sans-serif; text-anchor: start" x="440.210795" y="388.987841" transform="rotate(-0 440.210795 388.987841)">Method</text>
    </g>
    <g id="PathCollection_19">
     <g>
      <use xlink:href="#mcbd9a2d6ef" x="410.172045" y="398.630341" style="fill: #1f77b4; stroke: #1f77b4"/>
     </g>
    </g>
    <g id="text_48">
     <text style="font: 8px 'DejaVu Sans', 'Bitstream Vera Sans', 'Computer Modern Sans Serif', 'Lucida Grande', 'Verdana', 'Geneva', 'Lucid', 'Arial', 'Helvetica', 'Avant Garde', sans-serif; text-anchor: start" x="424.572045" y="400.730341" transform="rotate(-0 424.572045 400.730341)">Monte Carlo</text>
    </g>
    <g id="PathCollection_20">
     <g>
      <use xlink:href="#m829a8e785a" x="410.172045" y="410.372841" style="fill: #ff7f0e; stroke: #ff7f0e"/>
     </g>
    </g>
    <g id="text_49">
     <text style="font: 8px 'DejaVu Sans', 'Bitstream Vera Sans', 'Computer Modern Sans Serif', 'Lucida Grande', 'Verdana', 'Geneva', 'Lucid', 'Arial', 'Helvetica', 'Avant Garde', sans-serif; text-anchor: start" x="424.572045" y="412.472841" transform="rotate(-0 424.572045 412.472841)">Sampled VAE gm</text>
    </g>
    <g id="PathCollection_21">
     <g>
      <use xlink:href="#m9f9d75483a" x="410.172045" y="422.115341" style="fill: #2ca02c; stroke: #2ca02c"/>
     </g>
    </g>
    <g id="text_50">
     <text style="font: 8px 'DejaVu Sans', 'Bitstream Vera Sans', 'Computer Modern Sans Serif', 'Lucida Grande', 'Verdana', 'Geneva', 'Lucid', 'Arial', 'Helvetica', 'Avant Garde', sans-serif; text-anchor: start" x="424.572045" y="424.215341" transform="rotate(-0 424.572045 424.215341)">Sampled VAE normal</text>
    </g>
   </g>
  </g>
  <g id="axes_4">
   <g id="patch_20">
    <path d="M 591.545455 640.8 
L 972 640.8 
L 972 375.709091 
L 591.545455 375.709091 
z
" style="fill: #ffffff"/>
   </g>
   <g id="PathCollection_22">
    <path d="M 608.838843 607.653419 
C 609.634452 607.653419 610.397583 607.33732 610.960163 606.774739 
C 611.522744 606.212158 611.838843 605.449028 611.838843 604.653419 
C 611.838843 603.857809 611.522744 603.094679 610.960163 602.532098 
C 610.397583 601.969518 609.634452 601.653419 608.838843 601.653419 
C 608.043234 601.653419 607.280103 601.969518 606.717523 602.532098 
C 606.154942 603.094679 605.838843 603.857809 605.838843 604.653419 
C 605.838843 605.449028 606.154942 606.212158 606.717523 606.774739 
C 607.280103 607.33732 608.043234 607.653419 608.838843 607.653419 
z
" clip-path="url(#p9ced35ecbf)" style="fill: #1f77b4; fill-opacity: 0.5; stroke: #ffffff; stroke-opacity: 0.5; stroke-width: 0.48"/>
    <path d="M 605.838843 607.821814 
L 611.838843 607.821814 
L 611.838843 601.821814 
L 605.838843 601.821814 
z
" clip-path="url(#p9ced35ecbf)" style="fill: #ff7f0e; fill-opacity: 0.5; stroke: #ffffff; stroke-opacity: 0.5; stroke-width: 0.48"/>
    <path d="M 608.838843 577.598806 
L 611.838843 571.598806 
L 605.838843 571.598806 
z
" clip-path="url(#p9ced35ecbf)" style="fill: #2ca02c; fill-opacity: 0.5; stroke: #ffffff; stroke-opacity: 0.5; stroke-width: 0.48"/>
    <path d="M 643.42562 590.24926 
C 644.221229 590.24926 644.984359 589.933161 645.54694 589.37058 
C 646.109521 588.807999 646.42562 588.044869 646.42562 587.24926 
C 646.42562 586.453651 646.109521 585.69052 645.54694 585.127939 
C 644.984359 584.565359 644.221229 584.24926 643.42562 584.24926 
C 642.630011 584.24926 641.86688 584.565359 641.304299 585.127939 
C 640.741719 585.69052 640.42562 586.453651 640.42562 587.24926 
C 640.42562 588.044869 640.741719 588.807999 641.304299 589.37058 
C 641.86688 589.933161 642.630011 590.24926 643.42562 590.24926 
z
" clip-path="url(#p9ced35ecbf)" style="fill: #1f77b4; fill-opacity: 0.5; stroke: #ffffff; stroke-opacity: 0.5; stroke-width: 0.48"/>
    <path d="M 640.42562 554.48726 
L 646.42562 554.48726 
L 646.42562 548.48726 
L 640.42562 548.48726 
z
" clip-path="url(#p9ced35ecbf)" style="fill: #ff7f0e; fill-opacity: 0.5; stroke: #ffffff; stroke-opacity: 0.5; stroke-width: 0.48"/>
    <path d="M 643.42562 550.104809 
L 646.42562 544.104809 
L 640.42562 544.104809 
z
" clip-path="url(#p9ced35ecbf)" style="fill: #2ca02c; fill-opacity: 0.5; stroke: #ffffff; stroke-opacity: 0.5; stroke-width: 0.48"/>
    <path d="M 678.012397 556.216087 
C 678.808006 556.216087 679.571136 555.899988 680.133717 555.337408 
C 680.696298 554.774827 681.012397 554.011697 681.012397 553.216087 
C 681.012397 552.420478 680.696298 551.657348 680.133717 551.094767 
C 679.571136 550.532186 678.808006 550.216087 678.012397 550.216087 
C 677.216787 550.216087 676.453657 550.532186 675.891076 551.094767 
C 675.328496 551.657348 675.012397 552.420478 675.012397 553.216087 
C 675.012397 554.011697 675.328496 554.774827 675.891076 555.337408 
C 676.453657 555.899988 677.216787 556.216087 678.012397 556.216087 
z
" clip-path="url(#p9ced35ecbf)" style="fill: #1f77b4; fill-opacity: 0.5; stroke: #ffffff; stroke-opacity: 0.5; stroke-width: 0.48"/>
    <path d="M 675.012397 488.266926 
L 681.012397 488.266926 
L 681.012397 482.266926 
L 675.012397 482.266926 
z
" clip-path="url(#p9ced35ecbf)" style="fill: #ff7f0e; fill-opacity: 0.5; stroke: #ffffff; stroke-opacity: 0.5; stroke-width: 0.48"/>
    <path d="M 678.012397 514.002913 
L 681.012397 508.002913 
L 675.012397 508.002913 
z
" clip-path="url(#p9ced35ecbf)" style="fill: #2ca02c; fill-opacity: 0.5; stroke: #ffffff; stroke-opacity: 0.5; stroke-width: 0.48"/>
    <path d="M 712.599174 518.580009 
C 713.394783 518.580009 714.157913 518.26391 714.720494 517.701329 
C 715.283075 517.138748 715.599174 516.375618 715.599174 515.580009 
C 715.599174 514.784399 715.283075 514.021269 714.720494 513.458688 
C 714.157913 512.896107 713.394783 512.580009 712.599174 512.580009 
C 711.803564 512.580009 711.040434 512.896107 710.477853 513.458688 
C 709.915272 514.021269 709.599174 514.784399 709.599174 515.580009 
C 709.599174 516.375618 709.915272 517.138748 710.477853 517.701329 
C 711.040434 518.26391 711.803564 518.580009 712.599174 518.580009 
z
" clip-path="url(#p9ced35ecbf)" style="fill: #1f77b4; fill-opacity: 0.5; stroke: #ffffff; stroke-opacity: 0.5; stroke-width: 0.48"/>
    <path d="M 709.599174 390.758678 
L 715.599174 390.758678 
L 715.599174 384.758678 
L 709.599174 384.758678 
z
" clip-path="url(#p9ced35ecbf)" style="fill: #ff7f0e; fill-opacity: 0.5; stroke: #ffffff; stroke-opacity: 0.5; stroke-width: 0.48"/>
    <path d="M 712.599174 486.401684 
L 715.599174 480.401684 
L 709.599174 480.401684 
z
" clip-path="url(#p9ced35ecbf)" style="fill: #2ca02c; fill-opacity: 0.5; stroke: #ffffff; stroke-opacity: 0.5; stroke-width: 0.48"/>
    <path d="M 747.18595 564.298881 
C 747.98156 564.298881 748.74469 563.982782 749.307271 563.420202 
C 749.869851 562.857621 750.18595 562.09449 750.18595 561.298881 
C 750.18595 560.503272 749.869851 559.740142 749.307271 559.177561 
C 748.74469 558.61498 747.98156 558.298881 747.18595 558.298881 
C 746.390341 558.298881 745.627211 558.61498 745.06463 559.177561 
C 744.502049 559.740142 744.18595 560.503272 744.18595 561.298881 
C 744.18595 562.09449 744.502049 562.857621 745.06463 563.420202 
C 745.627211 563.982782 746.390341 564.298881 747.18595 564.298881 
z
" clip-path="url(#p9ced35ecbf)" style="fill: #1f77b4; fill-opacity: 0.5; stroke: #ffffff; stroke-opacity: 0.5; stroke-width: 0.48"/>
    <path d="M 744.18595 530.447186 
L 750.18595 530.447186 
L 750.18595 524.447186 
L 744.18595 524.447186 
z
" clip-path="url(#p9ced35ecbf)" style="fill: #ff7f0e; fill-opacity: 0.5; stroke: #ffffff; stroke-opacity: 0.5; stroke-width: 0.48"/>
    <path d="M 747.18595 537.701724 
L 750.18595 531.701724 
L 744.18595 531.701724 
z
" clip-path="url(#p9ced35ecbf)" style="fill: #2ca02c; fill-opacity: 0.5; stroke: #ffffff; stroke-opacity: 0.5; stroke-width: 0.48"/>
    <path d="M 781.772727 594.252569 
C 782.568337 594.252569 783.331467 593.93647 783.894048 593.373889 
C 784.456628 592.811308 784.772727 592.048178 784.772727 591.252569 
C 784.772727 590.456959 784.456628 589.693829 783.894048 589.131248 
C 783.331467 588.568668 782.568337 588.252569 781.772727 588.252569 
C 780.977118 588.252569 780.213988 588.568668 779.651407 589.131248 
C 779.088826 589.693829 778.772727 590.456959 778.772727 591.252569 
C 778.772727 592.048178 779.088826 592.811308 779.651407 593.373889 
C 780.213988 593.93647 780.977118 594.252569 781.772727 594.252569 
z
" clip-path="url(#p9ced35ecbf)" style="fill: #1f77b4; fill-opacity: 0.5; stroke: #ffffff; stroke-opacity: 0.5; stroke-width: 0.48"/>
    <path d="M 778.772727 580.617539 
L 784.772727 580.617539 
L 784.772727 574.617539 
L 778.772727 574.617539 
z
" clip-path="url(#p9ced35ecbf)" style="fill: #ff7f0e; fill-opacity: 0.5; stroke: #ffffff; stroke-opacity: 0.5; stroke-width: 0.48"/>
    <path d="M 781.772727 565.439835 
L 784.772727 559.439835 
L 778.772727 559.439835 
z
" clip-path="url(#p9ced35ecbf)" style="fill: #2ca02c; fill-opacity: 0.5; stroke: #ffffff; stroke-opacity: 0.5; stroke-width: 0.48"/>
    <path d="M 816.359504 607.692556 
C 817.155113 607.692556 817.918244 607.376457 818.480824 606.813876 
C 819.043405 606.251295 819.359504 605.488165 819.359504 604.692556 
C 819.359504 603.896946 819.043405 603.133816 818.480824 602.571235 
C 817.918244 602.008655 817.155113 601.692556 816.359504 601.692556 
C 815.563895 601.692556 814.800765 602.008655 814.238184 602.571235 
C 813.675603 603.133816 813.359504 603.896946 813.359504 604.692556 
C 813.359504 605.488165 813.675603 606.251295 814.238184 606.813876 
C 814.800765 607.376457 815.563895 607.692556 816.359504 607.692556 
z
" clip-path="url(#p9ced35ecbf)" style="fill: #1f77b4; fill-opacity: 0.5; stroke: #ffffff; stroke-opacity: 0.5; stroke-width: 0.48"/>
    <path d="M 813.359504 607.562093 
L 819.359504 607.562093 
L 819.359504 601.562093 
L 813.359504 601.562093 
z
" clip-path="url(#p9ced35ecbf)" style="fill: #ff7f0e; fill-opacity: 0.5; stroke: #ffffff; stroke-opacity: 0.5; stroke-width: 0.48"/>
    <path d="M 816.359504 585.291064 
L 819.359504 579.291064 
L 813.359504 579.291064 
z
" clip-path="url(#p9ced35ecbf)" style="fill: #2ca02c; fill-opacity: 0.5; stroke: #ffffff; stroke-opacity: 0.5; stroke-width: 0.48"/>
    <path d="M 850.946281 616.28782 
C 851.74189 616.28782 852.505021 615.971721 853.067601 615.40914 
C 853.630182 614.84656 853.946281 614.083429 853.946281 613.28782 
C 853.946281 612.492211 853.630182 611.72908 853.067601 611.1665 
C 852.505021 610.603919 851.74189 610.28782 850.946281 610.28782 
C 850.150672 610.28782 849.387541 610.603919 848.824961 611.1665 
C 848.26238 611.72908 847.946281 612.492211 847.946281 613.28782 
C 847.946281 614.083429 848.26238 614.84656 848.824961 615.40914 
C 849.387541 615.971721 850.150672 616.28782 850.946281 616.28782 
z
" clip-path="url(#p9ced35ecbf)" style="fill: #1f77b4; fill-opacity: 0.5; stroke: #ffffff; stroke-opacity: 0.5; stroke-width: 0.48"/>
    <path d="M 847.946281 607.408885 
L 853.946281 607.408885 
L 853.946281 601.408885 
L 847.946281 601.408885 
z
" clip-path="url(#p9ced35ecbf)" style="fill: #ff7f0e; fill-opacity: 0.5; stroke: #ffffff; stroke-opacity: 0.5; stroke-width: 0.48"/>
    <path d="M 850.946281 595.024911 
L 853.946281 589.024911 
L 847.946281 589.024911 
z
" clip-path="url(#p9ced35ecbf)" style="fill: #2ca02c; fill-opacity: 0.5; stroke: #ffffff; stroke-opacity: 0.5; stroke-width: 0.48"/>
    <path d="M 885.533058 621.708435 
C 886.328667 621.708435 887.091797 621.392336 887.654378 620.829755 
C 888.216959 620.267174 888.533058 619.504044 888.533058 618.708435 
C 888.533058 617.912825 888.216959 617.149695 887.654378 616.587114 
C 887.091797 616.024533 886.328667 615.708435 885.533058 615.708435 
C 884.737449 615.708435 883.974318 616.024533 883.411738 616.587114 
C 882.849157 617.149695 882.533058 617.912825 882.533058 618.708435 
C 882.533058 619.504044 882.849157 620.267174 883.411738 620.829755 
C 883.974318 621.392336 884.737449 621.708435 885.533058 621.708435 
z
" clip-path="url(#p9ced35ecbf)" style="fill: #1f77b4; fill-opacity: 0.5; stroke: #ffffff; stroke-opacity: 0.5; stroke-width: 0.48"/>
    <path d="M 882.533058 620.761953 
L 888.533058 620.761953 
L 888.533058 614.761953 
L 882.533058 614.761953 
z
" clip-path="url(#p9ced35ecbf)" style="fill: #ff7f0e; fill-opacity: 0.5; stroke: #ffffff; stroke-opacity: 0.5; stroke-width: 0.48"/>
    <path d="M 885.533058 604.199094 
L 888.533058 598.199094 
L 882.533058 598.199094 
z
" clip-path="url(#p9ced35ecbf)" style="fill: #2ca02c; fill-opacity: 0.5; stroke: #ffffff; stroke-opacity: 0.5; stroke-width: 0.48"/>
    <path d="M 920.119835 626.143873 
C 920.915444 626.143873 921.678574 625.827774 922.241155 625.265193 
C 922.803736 624.702613 923.119835 623.939482 923.119835 623.143873 
C 923.119835 622.348264 922.803736 621.585134 922.241155 621.022553 
C 921.678574 620.459972 920.915444 620.143873 920.119835 620.143873 
C 919.324225 620.143873 918.561095 620.459972 917.998514 621.022553 
C 917.435934 621.585134 917.119835 622.348264 917.119835 623.143873 
C 917.119835 623.939482 917.435934 624.702613 917.998514 625.265193 
C 918.561095 625.827774 919.324225 626.143873 920.119835 626.143873 
z
" clip-path="url(#p9ced35ecbf)" style="fill: #1f77b4; fill-opacity: 0.5; stroke: #ffffff; stroke-opacity: 0.5; stroke-width: 0.48"/>
    <path d="M 917.119835 624.116436 
L 923.119835 624.116436 
L 923.119835 618.116436 
L 917.119835 618.116436 
z
" clip-path="url(#p9ced35ecbf)" style="fill: #ff7f0e; fill-opacity: 0.5; stroke: #ffffff; stroke-opacity: 0.5; stroke-width: 0.48"/>
    <path d="M 920.119835 612.17554 
L 923.119835 606.17554 
L 917.119835 606.17554 
z
" clip-path="url(#p9ced35ecbf)" style="fill: #2ca02c; fill-opacity: 0.5; stroke: #ffffff; stroke-opacity: 0.5; stroke-width: 0.48"/>
    <path d="M 954.706612 630.13898 
C 955.502221 630.13898 956.265351 629.822881 956.827932 629.2603 
C 957.390513 628.697719 957.706612 627.934589 957.706612 627.13898 
C 957.706612 626.34337 957.390513 625.58024 956.827932 625.017659 
C 956.265351 624.455079 955.502221 624.13898 954.706612 624.13898 
C 953.911002 624.13898 953.147872 624.455079 952.585291 625.017659 
C 952.02271 625.58024 951.706612 626.34337 951.706612 627.13898 
C 951.706612 627.934589 952.02271 628.697719 952.585291 629.2603 
C 953.147872 629.822881 953.911002 630.13898 954.706612 630.13898 
z
" clip-path="url(#p9ced35ecbf)" style="fill: #1f77b4; fill-opacity: 0.5; stroke: #ffffff; stroke-opacity: 0.5; stroke-width: 0.48"/>
    <path d="M 951.706612 631.750413 
L 957.706612 631.750413 
L 957.706612 625.750413 
L 951.706612 625.750413 
z
" clip-path="url(#p9ced35ecbf)" style="fill: #ff7f0e; fill-opacity: 0.5; stroke: #ffffff; stroke-opacity: 0.5; stroke-width: 0.48"/>
    <path d="M 954.706612 617.072469 
L 957.706612 611.072469 
L 951.706612 611.072469 
z
" clip-path="url(#p9ced35ecbf)" style="fill: #2ca02c; fill-opacity: 0.5; stroke: #ffffff; stroke-opacity: 0.5; stroke-width: 0.48"/>
   </g>
   <g id="PathCollection_23"/>
   <g id="PathCollection_24"/>
   <g id="PathCollection_25"/>
   <g id="matplotlib.axis_7">
    <g id="xtick_19">
     <g id="line2d_33">
      <g>
       <use xlink:href="#mbda368c5fe" x="608.838843" y="640.8" style="stroke: #000000; stroke-width: 0.8"/>
      </g>
     </g>
     <g id="text_51">
      <text style="font: 8px 'DejaVu Sans', 'Bitstream Vera Sans', 'Computer Modern Sans Serif', 'Lucida Grande', 'Verdana', 'Geneva', 'Lucid', 'Arial', 'Helvetica', 'Avant Garde', sans-serif; text-anchor: middle" x="608.838843" y="653.87875" transform="rotate(-0 608.838843 653.87875)">2.0</text>
     </g>
    </g>
    <g id="xtick_20">
     <g id="line2d_34">
      <g>
       <use xlink:href="#mbda368c5fe" x="678.012397" y="640.8" style="stroke: #000000; stroke-width: 0.8"/>
      </g>
     </g>
     <g id="text_52">
      <text style="font: 8px 'DejaVu Sans', 'Bitstream Vera Sans', 'Computer Modern Sans Serif', 'Lucida Grande', 'Verdana', 'Geneva', 'Lucid', 'Arial', 'Helvetica', 'Avant Garde', sans-serif; text-anchor: middle" x="678.012397" y="653.87875" transform="rotate(-0 678.012397 653.87875)">2.2</text>
     </g>
    </g>
    <g id="xtick_21">
     <g id="line2d_35">
      <g>
       <use xlink:href="#mbda368c5fe" x="747.18595" y="640.8" style="stroke: #000000; stroke-width: 0.8"/>
      </g>
     </g>
     <g id="text_53">
      <text style="font: 8px 'DejaVu Sans', 'Bitstream Vera Sans', 'Computer Modern Sans Serif', 'Lucida Grande', 'Verdana', 'Geneva', 'Lucid', 'Arial', 'Helvetica', 'Avant Garde', sans-serif; text-anchor: middle" x="747.18595" y="653.87875" transform="rotate(-0 747.18595 653.87875)">2.4</text>
     </g>
    </g>
    <g id="xtick_22">
     <g id="line2d_36">
      <g>
       <use xlink:href="#mbda368c5fe" x="816.359504" y="640.8" style="stroke: #000000; stroke-width: 0.8"/>
      </g>
     </g>
     <g id="text_54">
      <text style="font: 8px 'DejaVu Sans', 'Bitstream Vera Sans', 'Computer Modern Sans Serif', 'Lucida Grande', 'Verdana', 'Geneva', 'Lucid', 'Arial', 'Helvetica', 'Avant Garde', sans-serif; text-anchor: middle" x="816.359504" y="653.87875" transform="rotate(-0 816.359504 653.87875)">2.6</text>
     </g>
    </g>
    <g id="xtick_23">
     <g id="line2d_37">
      <g>
       <use xlink:href="#mbda368c5fe" x="885.533058" y="640.8" style="stroke: #000000; stroke-width: 0.8"/>
      </g>
     </g>
     <g id="text_55">
      <text style="font: 8px 'DejaVu Sans', 'Bitstream Vera Sans', 'Computer Modern Sans Serif', 'Lucida Grande', 'Verdana', 'Geneva', 'Lucid', 'Arial', 'Helvetica', 'Avant Garde', sans-serif; text-anchor: middle" x="885.533058" y="653.87875" transform="rotate(-0 885.533058 653.87875)">2.8</text>
     </g>
    </g>
    <g id="xtick_24">
     <g id="line2d_38">
      <g>
       <use xlink:href="#mbda368c5fe" x="954.706612" y="640.8" style="stroke: #000000; stroke-width: 0.8"/>
      </g>
     </g>
     <g id="text_56">
      <text style="font: 8px 'DejaVu Sans', 'Bitstream Vera Sans', 'Computer Modern Sans Serif', 'Lucida Grande', 'Verdana', 'Geneva', 'Lucid', 'Arial', 'Helvetica', 'Avant Garde', sans-serif; text-anchor: middle" x="954.706612" y="653.87875" transform="rotate(-0 954.706612 653.87875)">3.0</text>
     </g>
    </g>
    <g id="text_57">
     <text style="font: 8px 'DejaVu Sans', 'Bitstream Vera Sans', 'Computer Modern Sans Serif', 'Lucida Grande', 'Verdana', 'Geneva', 'Lucid', 'Arial', 'Helvetica', 'Avant Garde', sans-serif; text-anchor: middle" x="781.772727" y="665.62125" transform="rotate(-0 781.772727 665.62125)">Temperature</text>
    </g>
   </g>
   <g id="matplotlib.axis_8">
    <g id="ytick_15">
     <g id="line2d_39">
      <g>
       <use xlink:href="#mcddf85f49e" x="591.545455" y="596.143246" style="stroke: #000000; stroke-width: 0.8"/>
      </g>
     </g>
     <g id="text_58">
      <text style="font: 8px 'DejaVu Sans', 'Bitstream Vera Sans', 'Computer Modern Sans Serif', 'Lucida Grande', 'Verdana', 'Geneva', 'Lucid', 'Arial', 'Helvetica', 'Avant Garde', sans-serif; text-anchor: end" x="584.545455" y="599.182621" transform="rotate(-0 584.545455 599.182621)">20000</text>
     </g>
    </g>
    <g id="ytick_16">
     <g id="line2d_40">
      <g>
       <use xlink:href="#mcddf85f49e" x="591.545455" y="541.337144" style="stroke: #000000; stroke-width: 0.8"/>
      </g>
     </g>
     <g id="text_59">
      <text style="font: 8px 'DejaVu Sans', 'Bitstream Vera Sans', 'Computer Modern Sans Serif', 'Lucida Grande', 'Verdana', 'Geneva', 'Lucid', 'Arial', 'Helvetica', 'Avant Garde', sans-serif; text-anchor: end" x="584.545455" y="544.376519" transform="rotate(-0 584.545455 544.376519)">40000</text>
     </g>
    </g>
    <g id="ytick_17">
     <g id="line2d_41">
      <g>
       <use xlink:href="#mcddf85f49e" x="591.545455" y="486.531042" style="stroke: #000000; stroke-width: 0.8"/>
      </g>
     </g>
     <g id="text_60">
      <text style="font: 8px 'DejaVu Sans', 'Bitstream Vera Sans', 'Computer Modern Sans Serif', 'Lucida Grande', 'Verdana', 'Geneva', 'Lucid', 'Arial', 'Helvetica', 'Avant Garde', sans-serif; text-anchor: end" x="584.545455" y="489.570417" transform="rotate(-0 584.545455 489.570417)">60000</text>
     </g>
    </g>
    <g id="ytick_18">
     <g id="line2d_42">
      <g>
       <use xlink:href="#mcddf85f49e" x="591.545455" y="431.724941" style="stroke: #000000; stroke-width: 0.8"/>
      </g>
     </g>
     <g id="text_61">
      <text style="font: 8px 'DejaVu Sans', 'Bitstream Vera Sans', 'Computer Modern Sans Serif', 'Lucida Grande', 'Verdana', 'Geneva', 'Lucid', 'Arial', 'Helvetica', 'Avant Garde', sans-serif; text-anchor: end" x="584.545455" y="434.764316" transform="rotate(-0 584.545455 434.764316)">80000</text>
     </g>
    </g>
    <g id="ytick_19">
     <g id="line2d_43">
      <g>
       <use xlink:href="#mcddf85f49e" x="591.545455" y="376.918839" style="stroke: #000000; stroke-width: 0.8"/>
      </g>
     </g>
     <g id="text_62">
      <text style="font: 8px 'DejaVu Sans', 'Bitstream Vera Sans', 'Computer Modern Sans Serif', 'Lucida Grande', 'Verdana', 'Geneva', 'Lucid', 'Arial', 'Helvetica', 'Avant Garde', sans-serif; text-anchor: end" x="584.545455" y="379.958214" transform="rotate(-0 584.545455 379.958214)">100000</text>
     </g>
    </g>
    <g id="text_63">
     <text style="font: 8px 'DejaVu Sans', 'Bitstream Vera Sans', 'Computer Modern Sans Serif', 'Lucida Grande', 'Verdana', 'Geneva', 'Lucid', 'Arial', 'Helvetica', 'Avant Garde', sans-serif; text-anchor: middle" x="548.341705" y="508.254545" transform="rotate(-90 548.341705 508.254545)">Heat Capacity</text>
    </g>
   </g>
   <g id="patch_21">
    <path d="M 591.545455 640.8 
L 591.545455 375.709091 
" style="fill: none; stroke: #000000; stroke-width: 0.8; stroke-linejoin: miter; stroke-linecap: square"/>
   </g>
   <g id="patch_22">
    <path d="M 972 640.8 
L 972 375.709091 
" style="fill: none; stroke: #000000; stroke-width: 0.8; stroke-linejoin: miter; stroke-linecap: square"/>
   </g>
   <g id="patch_23">
    <path d="M 591.545455 640.8 
L 972 640.8 
" style="fill: none; stroke: #000000; stroke-width: 0.8; stroke-linejoin: miter; stroke-linecap: square"/>
   </g>
   <g id="patch_24">
    <path d="M 591.545455 375.709091 
L 972 375.709091 
" style="fill: none; stroke: #000000; stroke-width: 0.8; stroke-linejoin: miter; stroke-linecap: square"/>
   </g>
   <g id="legend_4">
    <g id="patch_25">
     <path d="M 857.1175 429.079091 
L 966.4 429.079091 
Q 968 429.079091 968 427.479091 
L 968 381.309091 
Q 968 379.709091 966.4 379.709091 
L 857.1175 379.709091 
Q 855.5175 379.709091 855.5175 381.309091 
L 855.5175 427.479091 
Q 855.5175 429.079091 857.1175 429.079091 
z
" style="fill: #ffffff; opacity: 0.8; stroke: #cccccc; stroke-linejoin: miter"/>
    </g>
    <g id="text_64">
     <text style="font: 8px 'DejaVu Sans', 'Bitstream Vera Sans', 'Computer Modern Sans Serif', 'Lucida Grande', 'Verdana', 'Geneva', 'Lucid', 'Arial', 'Helvetica', 'Avant Garde', sans-serif; text-anchor: start" x="896.75625" y="388.987841" transform="rotate(-0 896.75625 388.987841)">Method</text>
    </g>
    <g id="PathCollection_26">
     <g>
      <use xlink:href="#mcbd9a2d6ef" x="866.7175" y="398.630341" style="fill: #1f77b4; stroke: #1f77b4"/>
     </g>
    </g>
    <g id="text_65">
     <text style="font: 8px 'DejaVu Sans', 'Bitstream Vera Sans', 'Computer Modern Sans Serif', 'Lucida Grande', 'Verdana', 'Geneva', 'Lucid', 'Arial', 'Helvetica', 'Avant Garde', sans-serif; text-anchor: start" x="881.1175" y="400.730341" transform="rotate(-0 881.1175 400.730341)">Monte Carlo</text>
    </g>
    <g id="PathCollection_27">
     <g>
      <use xlink:href="#m829a8e785a" x="866.7175" y="410.372841" style="fill: #ff7f0e; stroke: #ff7f0e"/>
     </g>
    </g>
    <g id="text_66">
     <text style="font: 8px 'DejaVu Sans', 'Bitstream Vera Sans', 'Computer Modern Sans Serif', 'Lucida Grande', 'Verdana', 'Geneva', 'Lucid', 'Arial', 'Helvetica', 'Avant Garde', sans-serif; text-anchor: start" x="881.1175" y="412.472841" transform="rotate(-0 881.1175 412.472841)">Sampled VAE gm</text>
    </g>
    <g id="PathCollection_28">
     <g>
      <use xlink:href="#m9f9d75483a" x="866.7175" y="422.115341" style="fill: #2ca02c; stroke: #2ca02c"/>
     </g>
    </g>
    <g id="text_67">
     <text style="font: 8px 'DejaVu Sans', 'Bitstream Vera Sans', 'Computer Modern Sans Serif', 'Lucida Grande', 'Verdana', 'Geneva', 'Lucid', 'Arial', 'Helvetica', 'Avant Garde', sans-serif; text-anchor: start" x="881.1175" y="424.215341" transform="rotate(-0 881.1175 424.215341)">Sampled VAE normal</text>
    </g>
   </g>
  </g>
 </g>
 <defs>
  <clipPath id="peb57be9732">
   <rect x="135" y="57.6" width="380.454545" height="265.090909"/>
  </clipPath>
  <clipPath id="p478ef99940">
   <rect x="591.545455" y="57.6" width="380.454545" height="265.090909"/>
  </clipPath>
  <clipPath id="pbbfe3b4a93">
   <rect x="135" y="375.709091" width="380.454545" height="265.090909"/>
  </clipPath>
  <clipPath id="p9ced35ecbf">
   <rect x="591.545455" y="375.709091" width="380.454545" height="265.090909"/>
  </clipPath>
 </defs>
</svg>
