<?xml version="1.0" encoding="utf-8" standalone="no"?>
<!DOCTYPE svg PUBLIC "-//W3C//DTD SVG 1.1//EN"
  "http://www.w3.org/Graphics/SVG/1.1/DTD/svg11.dtd">
<svg xmlns:xlink="http://www.w3.org/1999/xlink" width="778.86pt" height="360pt" viewBox="0 0 778.86 360" xmlns="http://www.w3.org/2000/svg" version="1.1">
 <metadata>
  <rdf:RDF xmlns:dc="http://purl.org/dc/elements/1.1/" xmlns:cc="http://creativecommons.org/ns#" xmlns:rdf="http://www.w3.org/1999/02/22-rdf-syntax-ns#">
   <cc:Work>
    <dc:type rdf:resource="http://purl.org/dc/dcmitype/StillImage"/>
    <dc:date>2024-06-13T13:45:39.637107</dc:date>
    <dc:format>image/svg+xml</dc:format>
    <dc:creator>
     <cc:Agent>
      <dc:title>Matplotlib v3.8.0, https://matplotlib.org/</dc:title>
     </cc:Agent>
    </dc:creator>
   </cc:Work>
  </rdf:RDF>
 </metadata>
 <defs>
  <style type="text/css">*{stroke-linejoin: round; stroke-linecap: butt}</style>
 </defs>
 <g id="figure_1">
  <g id="patch_1">
   <path d="M 0 360 
L 778.86 360 
L 778.86 0 
L 0 0 
z
" style="fill: #ffffff"/>
  </g>
  <g id="axes_1">
   <g id="patch_2">
    <path d="M 57.53 308.32 
L 516.0114 308.32 
L 516.0114 16.2 
L 57.53 16.2 
z
" style="fill: #ffffff"/>
   </g>
   <g id="matplotlib.axis_1">
    <g id="xtick_1">
     <g id="line2d_1">
      <defs>
       <path id="mc9c0578681" d="M 0 0 
L 0 3.5 
" style="stroke: #000000; stroke-width: 0.8"/>
      </defs>
      <g>
       <use xlink:href="#mc9c0578681" x="89.968818" y="308.32" style="stroke: #000000; stroke-width: 0.8"/>
      </g>
     </g>
     <g id="text_1">
      <!-- −0.4 -->
      <g transform="translate(77.827411 322.918437) scale(0.1 -0.1)">
       <defs>
        <path id="DejaVuSans-2212" d="M 678 2272 
L 4684 2272 
L 4684 1741 
L 678 1741 
L 678 2272 
z
" transform="scale(0.015625)"/>
        <path id="DejaVuSans-30" d="M 2034 4250 
Q 1547 4250 1301 3770 
Q 1056 3291 1056 2328 
Q 1056 1369 1301 889 
Q 1547 409 2034 409 
Q 2525 409 2770 889 
Q 3016 1369 3016 2328 
Q 3016 3291 2770 3770 
Q 2525 4250 2034 4250 
z
M 2034 4750 
Q 2819 4750 3233 4129 
Q 3647 3509 3647 2328 
Q 3647 1150 3233 529 
Q 2819 -91 2034 -91 
Q 1250 -91 836 529 
Q 422 1150 422 2328 
Q 422 3509 836 4129 
Q 1250 4750 2034 4750 
z
" transform="scale(0.015625)"/>
        <path id="DejaVuSans-2e" d="M 684 794 
L 1344 794 
L 1344 0 
L 684 0 
L 684 794 
z
" transform="scale(0.015625)"/>
        <path id="DejaVuSans-34" d="M 2419 4116 
L 825 1625 
L 2419 1625 
L 2419 4116 
z
M 2253 4666 
L 3047 4666 
L 3047 1625 
L 3713 1625 
L 3713 1100 
L 3047 1100 
L 3047 0 
L 2419 0 
L 2419 1100 
L 313 1100 
L 313 1709 
L 2253 4666 
z
" transform="scale(0.015625)"/>
       </defs>
       <use xlink:href="#DejaVuSans-2212"/>
       <use xlink:href="#DejaVuSans-30" x="83.789062"/>
       <use xlink:href="#DejaVuSans-2e" x="147.412109"/>
       <use xlink:href="#DejaVuSans-34" x="179.199219"/>
      </g>
     </g>
    </g>
    <g id="xtick_2">
     <g id="line2d_2">
      <g>
       <use xlink:href="#mc9c0578681" x="190.137327" y="308.32" style="stroke: #000000; stroke-width: 0.8"/>
      </g>
     </g>
     <g id="text_2">
      <!-- −0.2 -->
      <g transform="translate(177.99592 322.918437) scale(0.1 -0.1)">
       <defs>
        <path id="DejaVuSans-32" d="M 1228 531 
L 3431 531 
L 3431 0 
L 469 0 
L 469 531 
Q 828 903 1448 1529 
Q 2069 2156 2228 2338 
Q 2531 2678 2651 2914 
Q 2772 3150 2772 3378 
Q 2772 3750 2511 3984 
Q 2250 4219 1831 4219 
Q 1534 4219 1204 4116 
Q 875 4013 500 3803 
L 500 4441 
Q 881 4594 1212 4672 
Q 1544 4750 1819 4750 
Q 2544 4750 2975 4387 
Q 3406 4025 3406 3419 
Q 3406 3131 3298 2873 
Q 3191 2616 2906 2266 
Q 2828 2175 2409 1742 
Q 1991 1309 1228 531 
z
" transform="scale(0.015625)"/>
       </defs>
       <use xlink:href="#DejaVuSans-2212"/>
       <use xlink:href="#DejaVuSans-30" x="83.789062"/>
       <use xlink:href="#DejaVuSans-2e" x="147.412109"/>
       <use xlink:href="#DejaVuSans-32" x="179.199219"/>
      </g>
     </g>
    </g>
    <g id="xtick_3">
     <g id="line2d_3">
      <g>
       <use xlink:href="#mc9c0578681" x="290.305836" y="308.32" style="stroke: #000000; stroke-width: 0.8"/>
      </g>
     </g>
     <g id="text_3">
      <!-- 0.0 -->
      <g transform="translate(282.354273 322.918437) scale(0.1 -0.1)">
       <use xlink:href="#DejaVuSans-30"/>
       <use xlink:href="#DejaVuSans-2e" x="63.623047"/>
       <use xlink:href="#DejaVuSans-30" x="95.410156"/>
      </g>
     </g>
    </g>
    <g id="xtick_4">
     <g id="line2d_4">
      <g>
       <use xlink:href="#mc9c0578681" x="390.474345" y="308.32" style="stroke: #000000; stroke-width: 0.8"/>
      </g>
     </g>
     <g id="text_4">
      <!-- 0.2 -->
      <g transform="translate(382.522782 322.918437) scale(0.1 -0.1)">
       <use xlink:href="#DejaVuSans-30"/>
       <use xlink:href="#DejaVuSans-2e" x="63.623047"/>
       <use xlink:href="#DejaVuSans-32" x="95.410156"/>
      </g>
     </g>
    </g>
    <g id="xtick_5">
     <g id="line2d_5">
      <g>
       <use xlink:href="#mc9c0578681" x="490.642854" y="308.32" style="stroke: #000000; stroke-width: 0.8"/>
      </g>
     </g>
     <g id="text_5">
      <!-- 0.4 -->
      <g transform="translate(482.691291 322.918437) scale(0.1 -0.1)">
       <use xlink:href="#DejaVuSans-30"/>
       <use xlink:href="#DejaVuSans-2e" x="63.623047"/>
       <use xlink:href="#DejaVuSans-34" x="95.410156"/>
      </g>
     </g>
    </g>
    <g id="text_6">
     <!-- Average magnetization -->
     <g transform="translate(199.634762 340.395781) scale(0.15 -0.15)">
      <defs>
       <path id="DejaVuSans-41" d="M 2188 4044 
L 1331 1722 
L 3047 1722 
L 2188 4044 
z
M 1831 4666 
L 2547 4666 
L 4325 0 
L 3669 0 
L 3244 1197 
L 1141 1197 
L 716 0 
L 50 0 
L 1831 4666 
z
" transform="scale(0.015625)"/>
       <path id="DejaVuSans-76" d="M 191 3500 
L 800 3500 
L 1894 563 
L 2988 3500 
L 3597 3500 
L 2284 0 
L 1503 0 
L 191 3500 
z
" transform="scale(0.015625)"/>
       <path id="DejaVuSans-65" d="M 3597 1894 
L 3597 1613 
L 953 1613 
Q 991 1019 1311 708 
Q 1631 397 2203 397 
Q 2534 397 2845 478 
Q 3156 559 3463 722 
L 3463 178 
Q 3153 47 2828 -22 
Q 2503 -91 2169 -91 
Q 1331 -91 842 396 
Q 353 884 353 1716 
Q 353 2575 817 3079 
Q 1281 3584 2069 3584 
Q 2775 3584 3186 3129 
Q 3597 2675 3597 1894 
z
M 3022 2063 
Q 3016 2534 2758 2815 
Q 2500 3097 2075 3097 
Q 1594 3097 1305 2825 
Q 1016 2553 972 2059 
L 3022 2063 
z
" transform="scale(0.015625)"/>
       <path id="DejaVuSans-72" d="M 2631 2963 
Q 2534 3019 2420 3045 
Q 2306 3072 2169 3072 
Q 1681 3072 1420 2755 
Q 1159 2438 1159 1844 
L 1159 0 
L 581 0 
L 581 3500 
L 1159 3500 
L 1159 2956 
Q 1341 3275 1631 3429 
Q 1922 3584 2338 3584 
Q 2397 3584 2469 3576 
Q 2541 3569 2628 3553 
L 2631 2963 
z
" transform="scale(0.015625)"/>
       <path id="DejaVuSans-61" d="M 2194 1759 
Q 1497 1759 1228 1600 
Q 959 1441 959 1056 
Q 959 750 1161 570 
Q 1363 391 1709 391 
Q 2188 391 2477 730 
Q 2766 1069 2766 1631 
L 2766 1759 
L 2194 1759 
z
M 3341 1997 
L 3341 0 
L 2766 0 
L 2766 531 
Q 2569 213 2275 61 
Q 1981 -91 1556 -91 
Q 1019 -91 701 211 
Q 384 513 384 1019 
Q 384 1609 779 1909 
Q 1175 2209 1959 2209 
L 2766 2209 
L 2766 2266 
Q 2766 2663 2505 2880 
Q 2244 3097 1772 3097 
Q 1472 3097 1187 3025 
Q 903 2953 641 2809 
L 641 3341 
Q 956 3463 1253 3523 
Q 1550 3584 1831 3584 
Q 2591 3584 2966 3190 
Q 3341 2797 3341 1997 
z
" transform="scale(0.015625)"/>
       <path id="DejaVuSans-67" d="M 2906 1791 
Q 2906 2416 2648 2759 
Q 2391 3103 1925 3103 
Q 1463 3103 1205 2759 
Q 947 2416 947 1791 
Q 947 1169 1205 825 
Q 1463 481 1925 481 
Q 2391 481 2648 825 
Q 2906 1169 2906 1791 
z
M 3481 434 
Q 3481 -459 3084 -895 
Q 2688 -1331 1869 -1331 
Q 1566 -1331 1297 -1286 
Q 1028 -1241 775 -1147 
L 775 -588 
Q 1028 -725 1275 -790 
Q 1522 -856 1778 -856 
Q 2344 -856 2625 -561 
Q 2906 -266 2906 331 
L 2906 616 
Q 2728 306 2450 153 
Q 2172 0 1784 0 
Q 1141 0 747 490 
Q 353 981 353 1791 
Q 353 2603 747 3093 
Q 1141 3584 1784 3584 
Q 2172 3584 2450 3431 
Q 2728 3278 2906 2969 
L 2906 3500 
L 3481 3500 
L 3481 434 
z
" transform="scale(0.015625)"/>
       <path id="DejaVuSans-20" transform="scale(0.015625)"/>
       <path id="DejaVuSans-6d" d="M 3328 2828 
Q 3544 3216 3844 3400 
Q 4144 3584 4550 3584 
Q 5097 3584 5394 3201 
Q 5691 2819 5691 2113 
L 5691 0 
L 5113 0 
L 5113 2094 
Q 5113 2597 4934 2840 
Q 4756 3084 4391 3084 
Q 3944 3084 3684 2787 
Q 3425 2491 3425 1978 
L 3425 0 
L 2847 0 
L 2847 2094 
Q 2847 2600 2669 2842 
Q 2491 3084 2119 3084 
Q 1678 3084 1418 2786 
Q 1159 2488 1159 1978 
L 1159 0 
L 581 0 
L 581 3500 
L 1159 3500 
L 1159 2956 
Q 1356 3278 1631 3431 
Q 1906 3584 2284 3584 
Q 2666 3584 2933 3390 
Q 3200 3197 3328 2828 
z
" transform="scale(0.015625)"/>
       <path id="DejaVuSans-6e" d="M 3513 2113 
L 3513 0 
L 2938 0 
L 2938 2094 
Q 2938 2591 2744 2837 
Q 2550 3084 2163 3084 
Q 1697 3084 1428 2787 
Q 1159 2491 1159 1978 
L 1159 0 
L 581 0 
L 581 3500 
L 1159 3500 
L 1159 2956 
Q 1366 3272 1645 3428 
Q 1925 3584 2291 3584 
Q 2894 3584 3203 3211 
Q 3513 2838 3513 2113 
z
" transform="scale(0.015625)"/>
       <path id="DejaVuSans-74" d="M 1172 4494 
L 1172 3500 
L 2356 3500 
L 2356 3053 
L 1172 3053 
L 1172 1153 
Q 1172 725 1289 603 
Q 1406 481 1766 481 
L 2356 481 
L 2356 0 
L 1766 0 
Q 1100 0 847 248 
Q 594 497 594 1153 
L 594 3053 
L 172 3053 
L 172 3500 
L 594 3500 
L 594 4494 
L 1172 4494 
z
" transform="scale(0.015625)"/>
       <path id="DejaVuSans-69" d="M 603 3500 
L 1178 3500 
L 1178 0 
L 603 0 
L 603 3500 
z
M 603 4863 
L 1178 4863 
L 1178 4134 
L 603 4134 
L 603 4863 
z
" transform="scale(0.015625)"/>
       <path id="DejaVuSans-7a" d="M 353 3500 
L 3084 3500 
L 3084 2975 
L 922 459 
L 3084 459 
L 3084 0 
L 275 0 
L 275 525 
L 2438 3041 
L 353 3041 
L 353 3500 
z
" transform="scale(0.015625)"/>
       <path id="DejaVuSans-6f" d="M 1959 3097 
Q 1497 3097 1228 2736 
Q 959 2375 959 1747 
Q 959 1119 1226 758 
Q 1494 397 1959 397 
Q 2419 397 2687 759 
Q 2956 1122 2956 1747 
Q 2956 2369 2687 2733 
Q 2419 3097 1959 3097 
z
M 1959 3584 
Q 2709 3584 3137 3096 
Q 3566 2609 3566 1747 
Q 3566 888 3137 398 
Q 2709 -91 1959 -91 
Q 1206 -91 779 398 
Q 353 888 353 1747 
Q 353 2609 779 3096 
Q 1206 3584 1959 3584 
z
" transform="scale(0.015625)"/>
      </defs>
      <use xlink:href="#DejaVuSans-41"/>
      <use xlink:href="#DejaVuSans-76" x="62.533203"/>
      <use xlink:href="#DejaVuSans-65" x="121.712891"/>
      <use xlink:href="#DejaVuSans-72" x="183.236328"/>
      <use xlink:href="#DejaVuSans-61" x="224.349609"/>
      <use xlink:href="#DejaVuSans-67" x="285.628906"/>
      <use xlink:href="#DejaVuSans-65" x="349.105469"/>
      <use xlink:href="#DejaVuSans-20" x="410.628906"/>
      <use xlink:href="#DejaVuSans-6d" x="442.416016"/>
      <use xlink:href="#DejaVuSans-61" x="539.828125"/>
      <use xlink:href="#DejaVuSans-67" x="601.107422"/>
      <use xlink:href="#DejaVuSans-6e" x="664.583984"/>
      <use xlink:href="#DejaVuSans-65" x="727.962891"/>
      <use xlink:href="#DejaVuSans-74" x="789.486328"/>
      <use xlink:href="#DejaVuSans-69" x="828.695312"/>
      <use xlink:href="#DejaVuSans-7a" x="856.478516"/>
      <use xlink:href="#DejaVuSans-61" x="908.96875"/>
      <use xlink:href="#DejaVuSans-74" x="970.248047"/>
      <use xlink:href="#DejaVuSans-69" x="1009.457031"/>
      <use xlink:href="#DejaVuSans-6f" x="1037.240234"/>
      <use xlink:href="#DejaVuSans-6e" x="1098.421875"/>
     </g>
    </g>
   </g>
   <g id="matplotlib.axis_2">
    <g id="ytick_1">
     <g id="line2d_6">
      <defs>
       <path id="m7afcc68b13" d="M 0 0 
L -3.5 0 
" style="stroke: #000000; stroke-width: 0.8"/>
      </defs>
      <g>
       <use xlink:href="#m7afcc68b13" x="57.53" y="308.32" style="stroke: #000000; stroke-width: 0.8"/>
      </g>
     </g>
     <g id="text_7">
      <!-- 0.0 -->
      <g transform="translate(34.626875 312.119219) scale(0.1 -0.1)">
       <use xlink:href="#DejaVuSans-30"/>
       <use xlink:href="#DejaVuSans-2e" x="63.623047"/>
       <use xlink:href="#DejaVuSans-30" x="95.410156"/>
      </g>
     </g>
    </g>
    <g id="ytick_2">
     <g id="line2d_7">
      <g>
       <use xlink:href="#m7afcc68b13" x="57.53" y="273.491673" style="stroke: #000000; stroke-width: 0.8"/>
      </g>
     </g>
     <g id="text_8">
      <!-- 0.2 -->
      <g transform="translate(34.626875 277.290892) scale(0.1 -0.1)">
       <use xlink:href="#DejaVuSans-30"/>
       <use xlink:href="#DejaVuSans-2e" x="63.623047"/>
       <use xlink:href="#DejaVuSans-32" x="95.410156"/>
      </g>
     </g>
    </g>
    <g id="ytick_3">
     <g id="line2d_8">
      <g>
       <use xlink:href="#m7afcc68b13" x="57.53" y="238.663346" style="stroke: #000000; stroke-width: 0.8"/>
      </g>
     </g>
     <g id="text_9">
      <!-- 0.4 -->
      <g transform="translate(34.626875 242.462564) scale(0.1 -0.1)">
       <use xlink:href="#DejaVuSans-30"/>
       <use xlink:href="#DejaVuSans-2e" x="63.623047"/>
       <use xlink:href="#DejaVuSans-34" x="95.410156"/>
      </g>
     </g>
    </g>
    <g id="ytick_4">
     <g id="line2d_9">
      <g>
       <use xlink:href="#m7afcc68b13" x="57.53" y="203.835018" style="stroke: #000000; stroke-width: 0.8"/>
      </g>
     </g>
     <g id="text_10">
      <!-- 0.6 -->
      <g transform="translate(34.626875 207.634237) scale(0.1 -0.1)">
       <defs>
        <path id="DejaVuSans-36" d="M 2113 2584 
Q 1688 2584 1439 2293 
Q 1191 2003 1191 1497 
Q 1191 994 1439 701 
Q 1688 409 2113 409 
Q 2538 409 2786 701 
Q 3034 994 3034 1497 
Q 3034 2003 2786 2293 
Q 2538 2584 2113 2584 
z
M 3366 4563 
L 3366 3988 
Q 3128 4100 2886 4159 
Q 2644 4219 2406 4219 
Q 1781 4219 1451 3797 
Q 1122 3375 1075 2522 
Q 1259 2794 1537 2939 
Q 1816 3084 2150 3084 
Q 2853 3084 3261 2657 
Q 3669 2231 3669 1497 
Q 3669 778 3244 343 
Q 2819 -91 2113 -91 
Q 1303 -91 875 529 
Q 447 1150 447 2328 
Q 447 3434 972 4092 
Q 1497 4750 2381 4750 
Q 2619 4750 2861 4703 
Q 3103 4656 3366 4563 
z
" transform="scale(0.015625)"/>
       </defs>
       <use xlink:href="#DejaVuSans-30"/>
       <use xlink:href="#DejaVuSans-2e" x="63.623047"/>
       <use xlink:href="#DejaVuSans-36" x="95.410156"/>
      </g>
     </g>
    </g>
    <g id="ytick_5">
     <g id="line2d_10">
      <g>
       <use xlink:href="#m7afcc68b13" x="57.53" y="169.006691" style="stroke: #000000; stroke-width: 0.8"/>
      </g>
     </g>
     <g id="text_11">
      <!-- 0.8 -->
      <g transform="translate(34.626875 172.80591) scale(0.1 -0.1)">
       <defs>
        <path id="DejaVuSans-38" d="M 2034 2216 
Q 1584 2216 1326 1975 
Q 1069 1734 1069 1313 
Q 1069 891 1326 650 
Q 1584 409 2034 409 
Q 2484 409 2743 651 
Q 3003 894 3003 1313 
Q 3003 1734 2745 1975 
Q 2488 2216 2034 2216 
z
M 1403 2484 
Q 997 2584 770 2862 
Q 544 3141 544 3541 
Q 544 4100 942 4425 
Q 1341 4750 2034 4750 
Q 2731 4750 3128 4425 
Q 3525 4100 3525 3541 
Q 3525 3141 3298 2862 
Q 3072 2584 2669 2484 
Q 3125 2378 3379 2068 
Q 3634 1759 3634 1313 
Q 3634 634 3220 271 
Q 2806 -91 2034 -91 
Q 1263 -91 848 271 
Q 434 634 434 1313 
Q 434 1759 690 2068 
Q 947 2378 1403 2484 
z
M 1172 3481 
Q 1172 3119 1398 2916 
Q 1625 2713 2034 2713 
Q 2441 2713 2670 2916 
Q 2900 3119 2900 3481 
Q 2900 3844 2670 4047 
Q 2441 4250 2034 4250 
Q 1625 4250 1398 4047 
Q 1172 3844 1172 3481 
z
" transform="scale(0.015625)"/>
       </defs>
       <use xlink:href="#DejaVuSans-30"/>
       <use xlink:href="#DejaVuSans-2e" x="63.623047"/>
       <use xlink:href="#DejaVuSans-38" x="95.410156"/>
      </g>
     </g>
    </g>
    <g id="ytick_6">
     <g id="line2d_11">
      <g>
       <use xlink:href="#m7afcc68b13" x="57.53" y="134.178364" style="stroke: #000000; stroke-width: 0.8"/>
      </g>
     </g>
     <g id="text_12">
      <!-- 1.0 -->
      <g transform="translate(34.626875 137.977583) scale(0.1 -0.1)">
       <defs>
        <path id="DejaVuSans-31" d="M 794 531 
L 1825 531 
L 1825 4091 
L 703 3866 
L 703 4441 
L 1819 4666 
L 2450 4666 
L 2450 531 
L 3481 531 
L 3481 0 
L 794 0 
L 794 531 
z
" transform="scale(0.015625)"/>
       </defs>
       <use xlink:href="#DejaVuSans-31"/>
       <use xlink:href="#DejaVuSans-2e" x="63.623047"/>
       <use xlink:href="#DejaVuSans-30" x="95.410156"/>
      </g>
     </g>
    </g>
    <g id="ytick_7">
     <g id="line2d_12">
      <g>
       <use xlink:href="#m7afcc68b13" x="57.53" y="99.350037" style="stroke: #000000; stroke-width: 0.8"/>
      </g>
     </g>
     <g id="text_13">
      <!-- 1.2 -->
      <g transform="translate(34.626875 103.149256) scale(0.1 -0.1)">
       <use xlink:href="#DejaVuSans-31"/>
       <use xlink:href="#DejaVuSans-2e" x="63.623047"/>
       <use xlink:href="#DejaVuSans-32" x="95.410156"/>
      </g>
     </g>
    </g>
    <g id="ytick_8">
     <g id="line2d_13">
      <g>
       <use xlink:href="#m7afcc68b13" x="57.53" y="64.52171" style="stroke: #000000; stroke-width: 0.8"/>
      </g>
     </g>
     <g id="text_14">
      <!-- 1.4 -->
      <g transform="translate(34.626875 68.320928) scale(0.1 -0.1)">
       <use xlink:href="#DejaVuSans-31"/>
       <use xlink:href="#DejaVuSans-2e" x="63.623047"/>
       <use xlink:href="#DejaVuSans-34" x="95.410156"/>
      </g>
     </g>
    </g>
    <g id="ytick_9">
     <g id="line2d_14">
      <g>
       <use xlink:href="#m7afcc68b13" x="57.53" y="29.693382" style="stroke: #000000; stroke-width: 0.8"/>
      </g>
     </g>
     <g id="text_15">
      <!-- 1.6 -->
      <g transform="translate(34.626875 33.492601) scale(0.1 -0.1)">
       <use xlink:href="#DejaVuSans-31"/>
       <use xlink:href="#DejaVuSans-2e" x="63.623047"/>
       <use xlink:href="#DejaVuSans-36" x="95.410156"/>
      </g>
     </g>
    </g>
    <g id="text_16">
     <!-- Density -->
     <g transform="translate(27.507344 190.772891) rotate(-90) scale(0.15 -0.15)">
      <defs>
       <path id="DejaVuSans-44" d="M 1259 4147 
L 1259 519 
L 2022 519 
Q 2988 519 3436 956 
Q 3884 1394 3884 2338 
Q 3884 3275 3436 3711 
Q 2988 4147 2022 4147 
L 1259 4147 
z
M 628 4666 
L 1925 4666 
Q 3281 4666 3915 4102 
Q 4550 3538 4550 2338 
Q 4550 1131 3912 565 
Q 3275 0 1925 0 
L 628 0 
L 628 4666 
z
" transform="scale(0.015625)"/>
       <path id="DejaVuSans-73" d="M 2834 3397 
L 2834 2853 
Q 2591 2978 2328 3040 
Q 2066 3103 1784 3103 
Q 1356 3103 1142 2972 
Q 928 2841 928 2578 
Q 928 2378 1081 2264 
Q 1234 2150 1697 2047 
L 1894 2003 
Q 2506 1872 2764 1633 
Q 3022 1394 3022 966 
Q 3022 478 2636 193 
Q 2250 -91 1575 -91 
Q 1294 -91 989 -36 
Q 684 19 347 128 
L 347 722 
Q 666 556 975 473 
Q 1284 391 1588 391 
Q 1994 391 2212 530 
Q 2431 669 2431 922 
Q 2431 1156 2273 1281 
Q 2116 1406 1581 1522 
L 1381 1569 
Q 847 1681 609 1914 
Q 372 2147 372 2553 
Q 372 3047 722 3315 
Q 1072 3584 1716 3584 
Q 2034 3584 2315 3537 
Q 2597 3491 2834 3397 
z
" transform="scale(0.015625)"/>
       <path id="DejaVuSans-79" d="M 2059 -325 
Q 1816 -950 1584 -1140 
Q 1353 -1331 966 -1331 
L 506 -1331 
L 506 -850 
L 844 -850 
Q 1081 -850 1212 -737 
Q 1344 -625 1503 -206 
L 1606 56 
L 191 3500 
L 800 3500 
L 1894 763 
L 2988 3500 
L 3597 3500 
L 2059 -325 
z
" transform="scale(0.015625)"/>
      </defs>
      <use xlink:href="#DejaVuSans-44"/>
      <use xlink:href="#DejaVuSans-65" x="77.001953"/>
      <use xlink:href="#DejaVuSans-6e" x="138.525391"/>
      <use xlink:href="#DejaVuSans-73" x="201.904297"/>
      <use xlink:href="#DejaVuSans-69" x="254.003906"/>
      <use xlink:href="#DejaVuSans-74" x="281.787109"/>
      <use xlink:href="#DejaVuSans-79" x="320.996094"/>
     </g>
    </g>
   </g>
   <g id="line2d_15">
    <path d="M 211.586277 308.315758 
L 219.31205 308.187916 
L 223.174937 307.899274 
L 227.037823 307.344525 
L 233.475967 306.044501 
L 239.914111 304.641356 
L 242.489369 303.833627 
L 245.064627 302.665645 
L 246.352255 301.891122 
L 247.639884 300.957133 
L 248.927513 299.839673 
L 250.215142 298.519286 
L 251.502771 296.986546 
L 254.078028 293.329139 
L 261.803801 281.101504 
L 265.666688 275.67181 
L 266.954316 273.654557 
L 268.241945 271.38202 
L 269.529574 268.781646 
L 270.817203 265.804972 
L 272.104832 262.428711 
L 273.39246 258.651368 
L 275.967718 249.959676 
L 278.542976 239.908243 
L 281.118233 228.603909 
L 283.693491 215.982503 
L 286.268749 201.981452 
L 290.131635 179.112624 
L 296.569779 140.793019 
L 301.720294 111.130494 
L 304.295552 97.652667 
L 305.583181 91.682414 
L 306.87081 86.341034 
L 308.158438 81.642244 
L 309.446067 77.534691 
L 310.733696 73.913496 
L 313.308954 67.574353 
L 317.17184 58.423841 
L 319.747098 51.729898 
L 324.897613 37.779073 
L 326.185242 34.865223 
L 327.472871 32.521874 
L 328.760499 30.90257 
L 330.048128 30.110375 
L 331.335757 30.18331 
L 332.623386 31.095383 
L 333.911015 32.773019 
L 335.198644 35.121532 
L 336.486272 38.052936 
L 337.773901 41.506139 
L 339.06153 45.453332 
L 340.349159 49.891259 
L 341.636788 54.821372 
L 344.212045 66.055018 
L 348.074932 85.00374 
L 351.937818 103.600427 
L 355.800705 120.621509 
L 359.663591 137.779485 
L 362.238849 150.197432 
L 368.676993 182.225329 
L 371.25225 193.975722 
L 375.115137 210.402039 
L 378.978023 225.835921 
L 381.553281 235.359453 
L 384.128539 243.919319 
L 386.703796 251.367712 
L 389.279054 257.874846 
L 393.14194 266.682651 
L 397.004827 274.943909 
L 399.580084 279.971737 
L 402.155342 284.342828 
L 404.7306 287.942562 
L 407.305857 290.894052 
L 412.456372 296.085047 
L 416.319259 299.872942 
L 418.894517 302.035433 
L 420.182145 302.927826 
L 421.469774 303.680306 
L 422.757403 304.295392 
L 425.332661 305.15975 
L 427.907918 305.653074 
L 431.770805 306.046856 
L 436.92132 306.570794 
L 444.647093 307.43926 
L 451.085237 307.831552 
L 460.098639 308.235266 
L 467.824411 308.316562 
L 467.824411 308.316562 
" clip-path="url(#pe034dbfd47)" style="fill: none; stroke: #d62728; stroke-opacity: 0.5; stroke-width: 1.5; stroke-linecap: square"/>
   </g>
   <g id="line2d_16">
    <path d="M 114.16386 308.317537 
L 129.073203 308.198939 
L 140.25521 308.109698 
L 162.619224 308.28818 
L 168.210228 308.130634 
L 171.937564 307.819957 
L 175.664899 307.220543 
L 179.392235 306.269022 
L 183.119571 304.984998 
L 186.846907 303.428887 
L 190.574242 301.616336 
L 194.301578 299.49836 
L 198.028914 297.030361 
L 201.75625 294.216003 
L 205.483585 291.036269 
L 207.347253 289.270058 
L 209.210921 287.348457 
L 211.074589 285.239382 
L 212.938257 282.914981 
L 214.801925 280.356249 
L 216.665592 277.554281 
L 218.52926 274.507725 
L 220.392928 271.217612 
L 222.256596 267.681923 
L 224.120264 263.892408 
L 225.983932 259.835229 
L 227.8476 255.495421 
L 231.574935 245.942275 
L 235.302271 235.317055 
L 239.029607 223.901235 
L 246.484278 199.943857 
L 250.211614 188.138427 
L 252.075282 182.563982 
L 253.93895 177.341186 
L 255.802618 172.533169 
L 257.666286 168.141092 
L 261.393621 160.231246 
L 265.120957 152.323867 
L 266.984625 147.928994 
L 268.848293 143.12191 
L 272.575628 132.508869 
L 276.302964 121.779766 
L 278.166632 116.9573 
L 280.0303 112.776167 
L 281.893968 109.383753 
L 283.757636 106.869399 
L 285.621304 105.2696 
L 287.484971 104.577269 
L 289.348639 104.74998 
L 291.212307 105.714303 
L 293.075975 107.366562 
L 294.939643 109.573319 
L 296.803311 112.176087 
L 304.257982 123.316848 
L 306.12165 125.7172 
L 309.848986 129.917297 
L 313.576321 133.827517 
L 315.439989 135.949094 
L 317.303657 138.331251 
L 319.167325 141.058599 
L 321.030993 144.176875 
L 322.894661 147.687835 
L 324.758329 151.554791 
L 328.485664 160.108136 
L 332.213 169.357948 
L 345.258675 202.720633 
L 348.986011 211.473552 
L 354.577015 223.977435 
L 360.168018 235.799966 
L 367.62269 250.774532 
L 371.350025 257.95539 
L 375.077361 264.597947 
L 376.941029 267.627636 
L 378.804697 270.438379 
L 380.668365 273.028888 
L 382.532033 275.408771 
L 384.3957 277.594999 
L 388.123036 281.471471 
L 391.850372 284.829999 
L 395.577708 287.822567 
L 401.168711 291.886071 
L 404.896047 294.384313 
L 408.623383 296.654098 
L 412.350718 298.63188 
L 416.078054 300.340812 
L 419.80539 301.83396 
L 423.532726 303.101225 
L 427.260061 304.108983 
L 430.987397 304.888991 
L 436.578401 305.788699 
L 442.169404 306.45661 
L 451.487744 307.256247 
L 460.806083 307.809496 
L 471.98809 308.207418 
L 483.170097 308.31481 
L 485.033765 308.317412 
L 485.033765 308.317412 
" clip-path="url(#pe034dbfd47)" style="fill: none; stroke: #2ca02c; stroke-opacity: 0.5; stroke-width: 1.5; stroke-linecap: square"/>
   </g>
   <g id="line2d_17">
    <path d="M 83.483919 308.317403 
L 97.965386 308.215976 
L 108.309291 307.882496 
L 126.92832 306.989489 
L 131.065881 306.581958 
L 137.272224 305.689625 
L 143.478567 304.476816 
L 147.616129 303.446466 
L 151.753691 302.172296 
L 155.891253 300.641119 
L 162.097596 298.036599 
L 170.37272 294.327225 
L 174.510282 292.118124 
L 176.579063 290.823395 
L 178.647844 289.372906 
L 180.716625 287.757733 
L 182.785406 285.979242 
L 186.922968 281.97544 
L 191.06053 277.489334 
L 197.266873 270.226603 
L 205.541997 260.225665 
L 209.679559 254.901897 
L 213.817121 249.003062 
L 217.954683 242.424591 
L 224.161026 231.757695 
L 232.43615 217.54432 
L 238.642493 206.791469 
L 242.780055 199.059663 
L 246.917617 190.698019 
L 255.192741 173.24063 
L 257.261522 169.178587 
L 259.330303 165.419404 
L 261.399084 162.036395 
L 263.467865 159.078871 
L 265.536646 156.568205 
L 267.605427 154.499321 
L 269.674208 152.847582 
L 271.742989 151.579079 
L 273.81177 150.66084 
L 275.880551 150.067133 
L 277.949332 149.779296 
L 280.018113 149.779083 
L 282.086894 150.03836 
L 284.155675 150.509947 
L 292.430799 152.982682 
L 294.49958 153.393393 
L 302.774704 154.526783 
L 304.843485 155.118365 
L 306.912266 156.002272 
L 308.981047 157.222204 
L 311.049828 158.793403 
L 313.118609 160.708778 
L 315.18739 162.946947 
L 317.256171 165.479311 
L 319.324952 168.274816 
L 321.393733 171.30249 
L 325.531295 177.937622 
L 329.668857 185.173513 
L 335.8752 196.76192 
L 344.150324 212.385634 
L 348.287886 219.567605 
L 352.425448 226.064262 
L 358.631791 234.960254 
L 362.769353 240.936049 
L 366.906915 247.264216 
L 375.182039 260.236453 
L 379.319601 266.227279 
L 383.457163 271.750923 
L 387.594725 276.937042 
L 391.732287 281.869807 
L 395.869849 286.468122 
L 400.007411 290.537239 
L 402.076192 292.31419 
L 404.144973 293.900786 
L 406.213754 295.295134 
L 408.282535 296.505771 
L 410.351316 297.55079 
L 414.488878 299.250011 
L 418.62644 300.622135 
L 424.832783 302.41388 
L 428.970345 303.45536 
L 433.107907 304.283834 
L 437.245469 304.841075 
L 441.383031 305.162482 
L 451.726935 305.788487 
L 457.933278 306.458877 
L 466.208402 307.383371 
L 472.414745 307.856637 
L 478.621088 308.132588 
L 486.896212 308.284291 
L 495.171336 308.316428 
L 495.171336 308.316428 
" clip-path="url(#pe034dbfd47)" style="fill: none; stroke: #ff7f0e; stroke-opacity: 0.5; stroke-width: 1.5; stroke-linecap: square"/>
   </g>
   <g id="line2d_18">
    <path d="M 78.370064 308.317874 
L 94.820251 308.212996 
L 105.101619 307.92257 
L 125.664354 307.257693 
L 133.889448 306.889346 
L 140.058268 306.399733 
L 144.170815 305.919343 
L 148.283362 305.25972 
L 152.395909 304.349449 
L 156.508456 303.104458 
L 160.621003 301.457741 
L 164.73355 299.39394 
L 168.846097 296.948643 
L 172.958644 294.161273 
L 177.071191 291.024736 
L 181.183738 287.475456 
L 185.296285 283.41683 
L 189.408832 278.748005 
L 193.521379 273.395228 
L 197.633925 267.357416 
L 201.746472 260.758442 
L 212.02784 243.716838 
L 224.365481 224.154042 
L 228.478028 216.750086 
L 234.646848 205.394527 
L 236.703122 201.925153 
L 238.759395 198.735231 
L 240.815669 195.834865 
L 244.928216 190.711248 
L 251.097036 183.481334 
L 257.265856 175.964145 
L 259.32213 173.63668 
L 261.378403 171.554744 
L 263.434677 169.794255 
L 265.49095 168.400326 
L 267.547224 167.384243 
L 269.603497 166.727329 
L 271.659771 166.3884 
L 273.716044 166.311357 
L 275.772318 166.430809 
L 283.997412 167.431405 
L 286.053685 167.477957 
L 288.109959 167.356434 
L 290.166232 167.066149 
L 294.278779 166.119782 
L 298.391326 165.121923 
L 300.447599 164.784463 
L 302.503873 164.623738 
L 304.560146 164.65623 
L 306.61642 164.866306 
L 310.728967 165.638369 
L 318.954061 167.542669 
L 321.010334 168.194136 
L 323.066608 169.067023 
L 325.122881 170.248824 
L 327.179155 171.805847 
L 329.235428 173.773125 
L 331.291702 176.153663 
L 333.347975 178.925868 
L 335.404249 182.055236 
L 337.460522 185.505369 
L 339.516796 189.244309 
L 343.629343 197.478629 
L 347.74189 206.494425 
L 355.966983 225.013188 
L 360.07953 233.519158 
L 364.192077 241.243518 
L 368.304624 248.307716 
L 372.417171 254.861766 
L 376.529718 260.924264 
L 380.642265 266.433726 
L 384.754812 271.405637 
L 388.867359 275.981576 
L 395.03618 282.40244 
L 399.148726 286.376033 
L 403.261273 289.966293 
L 407.37382 293.085859 
L 411.486367 295.746589 
L 415.598914 298.030935 
L 419.711461 300.029819 
L 423.824008 301.802668 
L 427.936555 303.3697 
L 432.049102 304.719345 
L 436.161649 305.821942 
L 440.274196 306.651885 
L 444.386743 307.212663 
L 448.49929 307.549291 
L 454.66811 307.802459 
L 475.230845 308.263751 
L 487.568486 308.317613 
L 487.568486 308.317613 
" clip-path="url(#pe034dbfd47)" style="fill: none; stroke: #1f77b4; stroke-opacity: 0.5; stroke-width: 1.5; stroke-linecap: square"/>
   </g>
   <g id="patch_3">
    <path d="M 57.53 308.32 
L 57.53 16.2 
" style="fill: none; stroke: #000000; stroke-width: 0.8; stroke-linejoin: miter; stroke-linecap: square"/>
   </g>
   <g id="patch_4">
    <path d="M 57.53 308.32 
L 516.0114 308.32 
" style="fill: none; stroke: #000000; stroke-width: 0.8; stroke-linejoin: miter; stroke-linecap: square"/>
   </g>
  </g>
  <g id="legend_1">
   <g id="text_17">
    <!-- Type -->
    <g transform="translate(634.91625 140.104688) scale(0.15 -0.15)">
     <defs>
      <path id="DejaVuSans-54" d="M -19 4666 
L 3928 4666 
L 3928 4134 
L 2272 4134 
L 2272 0 
L 1638 0 
L 1638 4134 
L -19 4134 
L -19 4666 
z
" transform="scale(0.015625)"/>
      <path id="DejaVuSans-70" d="M 1159 525 
L 1159 -1331 
L 581 -1331 
L 581 3500 
L 1159 3500 
L 1159 2969 
Q 1341 3281 1617 3432 
Q 1894 3584 2278 3584 
Q 2916 3584 3314 3078 
Q 3713 2572 3713 1747 
Q 3713 922 3314 415 
Q 2916 -91 2278 -91 
Q 1894 -91 1617 61 
Q 1341 213 1159 525 
z
M 3116 1747 
Q 3116 2381 2855 2742 
Q 2594 3103 2138 3103 
Q 1681 3103 1420 2742 
Q 1159 2381 1159 1747 
Q 1159 1113 1420 752 
Q 1681 391 2138 391 
Q 2594 391 2855 752 
Q 3116 1113 3116 1747 
z
" transform="scale(0.015625)"/>
     </defs>
     <use xlink:href="#DejaVuSans-54"/>
     <use xlink:href="#DejaVuSans-79" x="45.458984"/>
     <use xlink:href="#DejaVuSans-70" x="104.638672"/>
     <use xlink:href="#DejaVuSans-65" x="168.115234"/>
    </g>
   </g>
   <g id="line2d_19">
    <path d="M 538.920937 156.871875 
L 553.920937 156.871875 
L 568.920937 156.871875 
" style="fill: none; stroke: #1f77b4; stroke-opacity: 0.5; stroke-width: 1.5; stroke-linecap: square"/>
   </g>
   <g id="text_18">
    <!-- Sampled from N(0,1) -->
    <g transform="translate(580.920937 162.121875) scale(0.15 -0.15)">
     <defs>
      <path id="DejaVuSans-53" d="M 3425 4513 
L 3425 3897 
Q 3066 4069 2747 4153 
Q 2428 4238 2131 4238 
Q 1616 4238 1336 4038 
Q 1056 3838 1056 3469 
Q 1056 3159 1242 3001 
Q 1428 2844 1947 2747 
L 2328 2669 
Q 3034 2534 3370 2195 
Q 3706 1856 3706 1288 
Q 3706 609 3251 259 
Q 2797 -91 1919 -91 
Q 1588 -91 1214 -16 
Q 841 59 441 206 
L 441 856 
Q 825 641 1194 531 
Q 1563 422 1919 422 
Q 2459 422 2753 634 
Q 3047 847 3047 1241 
Q 3047 1584 2836 1778 
Q 2625 1972 2144 2069 
L 1759 2144 
Q 1053 2284 737 2584 
Q 422 2884 422 3419 
Q 422 4038 858 4394 
Q 1294 4750 2059 4750 
Q 2388 4750 2728 4690 
Q 3069 4631 3425 4513 
z
" transform="scale(0.015625)"/>
      <path id="DejaVuSans-6c" d="M 603 4863 
L 1178 4863 
L 1178 0 
L 603 0 
L 603 4863 
z
" transform="scale(0.015625)"/>
      <path id="DejaVuSans-64" d="M 2906 2969 
L 2906 4863 
L 3481 4863 
L 3481 0 
L 2906 0 
L 2906 525 
Q 2725 213 2448 61 
Q 2172 -91 1784 -91 
Q 1150 -91 751 415 
Q 353 922 353 1747 
Q 353 2572 751 3078 
Q 1150 3584 1784 3584 
Q 2172 3584 2448 3432 
Q 2725 3281 2906 2969 
z
M 947 1747 
Q 947 1113 1208 752 
Q 1469 391 1925 391 
Q 2381 391 2643 752 
Q 2906 1113 2906 1747 
Q 2906 2381 2643 2742 
Q 2381 3103 1925 3103 
Q 1469 3103 1208 2742 
Q 947 2381 947 1747 
z
" transform="scale(0.015625)"/>
      <path id="DejaVuSans-66" d="M 2375 4863 
L 2375 4384 
L 1825 4384 
Q 1516 4384 1395 4259 
Q 1275 4134 1275 3809 
L 1275 3500 
L 2222 3500 
L 2222 3053 
L 1275 3053 
L 1275 0 
L 697 0 
L 697 3053 
L 147 3053 
L 147 3500 
L 697 3500 
L 697 3744 
Q 697 4328 969 4595 
Q 1241 4863 1831 4863 
L 2375 4863 
z
" transform="scale(0.015625)"/>
      <path id="DejaVuSans-4e" d="M 628 4666 
L 1478 4666 
L 3547 763 
L 3547 4666 
L 4159 4666 
L 4159 0 
L 3309 0 
L 1241 3903 
L 1241 0 
L 628 0 
L 628 4666 
z
" transform="scale(0.015625)"/>
      <path id="DejaVuSans-28" d="M 1984 4856 
Q 1566 4138 1362 3434 
Q 1159 2731 1159 2009 
Q 1159 1288 1364 580 
Q 1569 -128 1984 -844 
L 1484 -844 
Q 1016 -109 783 600 
Q 550 1309 550 2009 
Q 550 2706 781 3412 
Q 1013 4119 1484 4856 
L 1984 4856 
z
" transform="scale(0.015625)"/>
      <path id="DejaVuSans-2c" d="M 750 794 
L 1409 794 
L 1409 256 
L 897 -744 
L 494 -744 
L 750 256 
L 750 794 
z
" transform="scale(0.015625)"/>
      <path id="DejaVuSans-29" d="M 513 4856 
L 1013 4856 
Q 1481 4119 1714 3412 
Q 1947 2706 1947 2009 
Q 1947 1309 1714 600 
Q 1481 -109 1013 -844 
L 513 -844 
Q 928 -128 1133 580 
Q 1338 1288 1338 2009 
Q 1338 2731 1133 3434 
Q 928 4138 513 4856 
z
" transform="scale(0.015625)"/>
     </defs>
     <use xlink:href="#DejaVuSans-53"/>
     <use xlink:href="#DejaVuSans-61" x="63.476562"/>
     <use xlink:href="#DejaVuSans-6d" x="124.755859"/>
     <use xlink:href="#DejaVuSans-70" x="222.167969"/>
     <use xlink:href="#DejaVuSans-6c" x="285.644531"/>
     <use xlink:href="#DejaVuSans-65" x="313.427734"/>
     <use xlink:href="#DejaVuSans-64" x="374.951172"/>
     <use xlink:href="#DejaVuSans-20" x="438.427734"/>
     <use xlink:href="#DejaVuSans-66" x="470.214844"/>
     <use xlink:href="#DejaVuSans-72" x="505.419922"/>
     <use xlink:href="#DejaVuSans-6f" x="544.283203"/>
     <use xlink:href="#DejaVuSans-6d" x="605.464844"/>
     <use xlink:href="#DejaVuSans-20" x="702.876953"/>
     <use xlink:href="#DejaVuSans-4e" x="734.664062"/>
     <use xlink:href="#DejaVuSans-28" x="809.46875"/>
     <use xlink:href="#DejaVuSans-30" x="848.482422"/>
     <use xlink:href="#DejaVuSans-2c" x="912.105469"/>
     <use xlink:href="#DejaVuSans-31" x="943.892578"/>
     <use xlink:href="#DejaVuSans-29" x="1007.515625"/>
    </g>
   </g>
   <g id="line2d_20">
    <path d="M 538.920937 178.889062 
L 553.920937 178.889062 
L 568.920937 178.889062 
" style="fill: none; stroke: #ff7f0e; stroke-opacity: 0.5; stroke-width: 1.5; stroke-linecap: square"/>
   </g>
   <g id="text_19">
    <!-- Monte Carlo -->
    <g transform="translate(580.920937 184.139062) scale(0.15 -0.15)">
     <defs>
      <path id="DejaVuSans-4d" d="M 628 4666 
L 1569 4666 
L 2759 1491 
L 3956 4666 
L 4897 4666 
L 4897 0 
L 4281 0 
L 4281 4097 
L 3078 897 
L 2444 897 
L 1241 4097 
L 1241 0 
L 628 0 
L 628 4666 
z
" transform="scale(0.015625)"/>
      <path id="DejaVuSans-43" d="M 4122 4306 
L 4122 3641 
Q 3803 3938 3442 4084 
Q 3081 4231 2675 4231 
Q 1875 4231 1450 3742 
Q 1025 3253 1025 2328 
Q 1025 1406 1450 917 
Q 1875 428 2675 428 
Q 3081 428 3442 575 
Q 3803 722 4122 1019 
L 4122 359 
Q 3791 134 3420 21 
Q 3050 -91 2638 -91 
Q 1578 -91 968 557 
Q 359 1206 359 2328 
Q 359 3453 968 4101 
Q 1578 4750 2638 4750 
Q 3056 4750 3426 4639 
Q 3797 4528 4122 4306 
z
" transform="scale(0.015625)"/>
     </defs>
     <use xlink:href="#DejaVuSans-4d"/>
     <use xlink:href="#DejaVuSans-6f" x="86.279297"/>
     <use xlink:href="#DejaVuSans-6e" x="147.460938"/>
     <use xlink:href="#DejaVuSans-74" x="210.839844"/>
     <use xlink:href="#DejaVuSans-65" x="250.048828"/>
     <use xlink:href="#DejaVuSans-20" x="311.572266"/>
     <use xlink:href="#DejaVuSans-43" x="343.359375"/>
     <use xlink:href="#DejaVuSans-61" x="413.183594"/>
     <use xlink:href="#DejaVuSans-72" x="474.462891"/>
     <use xlink:href="#DejaVuSans-6c" x="515.576172"/>
     <use xlink:href="#DejaVuSans-6f" x="543.359375"/>
    </g>
   </g>
   <g id="line2d_21">
    <path d="M 538.920937 200.90625 
L 553.920937 200.90625 
L 568.920937 200.90625 
" style="fill: none; stroke: #2ca02c; stroke-opacity: 0.5; stroke-width: 1.5; stroke-linecap: square"/>
   </g>
   <g id="text_20">
    <!-- Testset decoded -->
    <g transform="translate(580.920937 206.15625) scale(0.15 -0.15)">
     <defs>
      <path id="DejaVuSans-63" d="M 3122 3366 
L 3122 2828 
Q 2878 2963 2633 3030 
Q 2388 3097 2138 3097 
Q 1578 3097 1268 2742 
Q 959 2388 959 1747 
Q 959 1106 1268 751 
Q 1578 397 2138 397 
Q 2388 397 2633 464 
Q 2878 531 3122 666 
L 3122 134 
Q 2881 22 2623 -34 
Q 2366 -91 2075 -91 
Q 1284 -91 818 406 
Q 353 903 353 1747 
Q 353 2603 823 3093 
Q 1294 3584 2113 3584 
Q 2378 3584 2631 3529 
Q 2884 3475 3122 3366 
z
" transform="scale(0.015625)"/>
     </defs>
     <use xlink:href="#DejaVuSans-54"/>
     <use xlink:href="#DejaVuSans-65" x="44.083984"/>
     <use xlink:href="#DejaVuSans-73" x="105.607422"/>
     <use xlink:href="#DejaVuSans-74" x="157.707031"/>
     <use xlink:href="#DejaVuSans-73" x="196.916016"/>
     <use xlink:href="#DejaVuSans-65" x="249.015625"/>
     <use xlink:href="#DejaVuSans-74" x="310.539062"/>
     <use xlink:href="#DejaVuSans-20" x="349.748047"/>
     <use xlink:href="#DejaVuSans-64" x="381.535156"/>
     <use xlink:href="#DejaVuSans-65" x="445.011719"/>
     <use xlink:href="#DejaVuSans-63" x="506.535156"/>
     <use xlink:href="#DejaVuSans-6f" x="561.515625"/>
     <use xlink:href="#DejaVuSans-64" x="622.697266"/>
     <use xlink:href="#DejaVuSans-65" x="686.173828"/>
     <use xlink:href="#DejaVuSans-64" x="747.697266"/>
    </g>
   </g>
   <g id="line2d_22">
    <path d="M 538.920937 222.923437 
L 553.920937 222.923437 
L 568.920937 222.923437 
" style="fill: none; stroke: #d62728; stroke-opacity: 0.5; stroke-width: 1.5; stroke-linecap: square"/>
   </g>
   <g id="text_21">
    <!-- Sampled from empirical  -->
    <g transform="translate(580.920937 228.173437) scale(0.15 -0.15)">
     <use xlink:href="#DejaVuSans-53"/>
     <use xlink:href="#DejaVuSans-61" x="63.476562"/>
     <use xlink:href="#DejaVuSans-6d" x="124.755859"/>
     <use xlink:href="#DejaVuSans-70" x="222.167969"/>
     <use xlink:href="#DejaVuSans-6c" x="285.644531"/>
     <use xlink:href="#DejaVuSans-65" x="313.427734"/>
     <use xlink:href="#DejaVuSans-64" x="374.951172"/>
     <use xlink:href="#DejaVuSans-20" x="438.427734"/>
     <use xlink:href="#DejaVuSans-66" x="470.214844"/>
     <use xlink:href="#DejaVuSans-72" x="505.419922"/>
     <use xlink:href="#DejaVuSans-6f" x="544.283203"/>
     <use xlink:href="#DejaVuSans-6d" x="605.464844"/>
     <use xlink:href="#DejaVuSans-20" x="702.876953"/>
     <use xlink:href="#DejaVuSans-65" x="734.664062"/>
     <use xlink:href="#DejaVuSans-6d" x="796.1875"/>
     <use xlink:href="#DejaVuSans-70" x="893.599609"/>
     <use xlink:href="#DejaVuSans-69" x="957.076172"/>
     <use xlink:href="#DejaVuSans-72" x="984.859375"/>
     <use xlink:href="#DejaVuSans-69" x="1025.972656"/>
     <use xlink:href="#DejaVuSans-63" x="1053.755859"/>
     <use xlink:href="#DejaVuSans-61" x="1108.736328"/>
     <use xlink:href="#DejaVuSans-6c" x="1170.015625"/>
     <use xlink:href="#DejaVuSans-20" x="1197.798828"/>
    </g>
   </g>
  </g>
 </g>
 <defs>
  <clipPath id="pe034dbfd47">
   <rect x="57.53" y="16.2" width="458.4814" height="292.12"/>
  </clipPath>
 </defs>
</svg>
