<?xml version="1.0" encoding="utf-8" standalone="no"?>
<!DOCTYPE svg PUBLIC "-//W3C//DTD SVG 1.1//EN"
  "http://www.w3.org/Graphics/SVG/1.1/DTD/svg11.dtd">
<svg xmlns:xlink="http://www.w3.org/1999/xlink" width="754.29pt" height="432pt" viewBox="0 0 754.29 432" xmlns="http://www.w3.org/2000/svg" version="1.1">
 <metadata>
  <rdf:RDF xmlns:dc="http://purl.org/dc/elements/1.1/" xmlns:cc="http://creativecommons.org/ns#" xmlns:rdf="http://www.w3.org/1999/02/22-rdf-syntax-ns#">
   <cc:Work>
    <dc:type rdf:resource="http://purl.org/dc/dcmitype/StillImage"/>
    <dc:date>2024-06-08T16:42:26.209380</dc:date>
    <dc:format>image/svg+xml</dc:format>
    <dc:creator>
     <cc:Agent>
      <dc:title>Matplotlib v3.8.0, https://matplotlib.org/</dc:title>
     </cc:Agent>
    </dc:creator>
   </cc:Work>
  </rdf:RDF>
 </metadata>
 <defs>
  <style type="text/css">*{stroke-linejoin: round; stroke-linecap: butt}</style>
 </defs>
 <g id="figure_1">
  <g id="patch_1">
   <path d="M 0 432 
L 754.29 432 
L 754.29 0 
L 0 0 
z
" style="fill: #ffffff"/>
  </g>
  <g id="axes_1">
   <g id="patch_2">
    <path d="M 54.74 397.96 
L 745.65 397.96 
L 745.65 21.84 
L 54.74 21.84 
z
" style="fill: #ffffff"/>
   </g>
   <g id="matplotlib.axis_1">
    <g id="xtick_1">
     <g id="line2d_1">
      <defs>
       <path id="md34d719b6b" d="M 0 0 
L 0 3.5 
" style="stroke: #000000; stroke-width: 0.8"/>
      </defs>
      <g>
       <use xlink:href="#md34d719b6b" x="81.044096" y="397.96" style="stroke: #000000; stroke-width: 0.8"/>
      </g>
     </g>
     <g id="text_1">
      <text style="font: 8px 'DejaVu Sans', 'Bitstream Vera Sans', 'Computer Modern Sans Serif', 'Lucida Grande', 'Verdana', 'Geneva', 'Lucid', 'Arial', 'Helvetica', 'Avant Garde', sans-serif; text-anchor: middle" x="81.044096" y="411.03875" transform="rotate(-0 81.044096 411.03875)">−7000</text>
     </g>
    </g>
    <g id="xtick_2">
     <g id="line2d_2">
      <g>
       <use xlink:href="#md34d719b6b" x="185.745775" y="397.96" style="stroke: #000000; stroke-width: 0.8"/>
      </g>
     </g>
     <g id="text_2">
      <text style="font: 8px 'DejaVu Sans', 'Bitstream Vera Sans', 'Computer Modern Sans Serif', 'Lucida Grande', 'Verdana', 'Geneva', 'Lucid', 'Arial', 'Helvetica', 'Avant Garde', sans-serif; text-anchor: middle" x="185.745775" y="411.03875" transform="rotate(-0 185.745775 411.03875)">−6500</text>
     </g>
    </g>
    <g id="xtick_3">
     <g id="line2d_3">
      <g>
       <use xlink:href="#md34d719b6b" x="290.447453" y="397.96" style="stroke: #000000; stroke-width: 0.8"/>
      </g>
     </g>
     <g id="text_3">
      <text style="font: 8px 'DejaVu Sans', 'Bitstream Vera Sans', 'Computer Modern Sans Serif', 'Lucida Grande', 'Verdana', 'Geneva', 'Lucid', 'Arial', 'Helvetica', 'Avant Garde', sans-serif; text-anchor: middle" x="290.447453" y="411.03875" transform="rotate(-0 290.447453 411.03875)">−6000</text>
     </g>
    </g>
    <g id="xtick_4">
     <g id="line2d_4">
      <g>
       <use xlink:href="#md34d719b6b" x="395.149132" y="397.96" style="stroke: #000000; stroke-width: 0.8"/>
      </g>
     </g>
     <g id="text_4">
      <text style="font: 8px 'DejaVu Sans', 'Bitstream Vera Sans', 'Computer Modern Sans Serif', 'Lucida Grande', 'Verdana', 'Geneva', 'Lucid', 'Arial', 'Helvetica', 'Avant Garde', sans-serif; text-anchor: middle" x="395.149132" y="411.03875" transform="rotate(-0 395.149132 411.03875)">−5500</text>
     </g>
    </g>
    <g id="xtick_5">
     <g id="line2d_5">
      <g>
       <use xlink:href="#md34d719b6b" x="499.85081" y="397.96" style="stroke: #000000; stroke-width: 0.8"/>
      </g>
     </g>
     <g id="text_5">
      <text style="font: 8px 'DejaVu Sans', 'Bitstream Vera Sans', 'Computer Modern Sans Serif', 'Lucida Grande', 'Verdana', 'Geneva', 'Lucid', 'Arial', 'Helvetica', 'Avant Garde', sans-serif; text-anchor: middle" x="499.85081" y="411.03875" transform="rotate(-0 499.85081 411.03875)">−5000</text>
     </g>
    </g>
    <g id="xtick_6">
     <g id="line2d_6">
      <g>
       <use xlink:href="#md34d719b6b" x="604.552488" y="397.96" style="stroke: #000000; stroke-width: 0.8"/>
      </g>
     </g>
     <g id="text_6">
      <text style="font: 8px 'DejaVu Sans', 'Bitstream Vera Sans', 'Computer Modern Sans Serif', 'Lucida Grande', 'Verdana', 'Geneva', 'Lucid', 'Arial', 'Helvetica', 'Avant Garde', sans-serif; text-anchor: middle" x="604.552488" y="411.03875" transform="rotate(-0 604.552488 411.03875)">−4500</text>
     </g>
    </g>
    <g id="xtick_7">
     <g id="line2d_7">
      <g>
       <use xlink:href="#md34d719b6b" x="709.254167" y="397.96" style="stroke: #000000; stroke-width: 0.8"/>
      </g>
     </g>
     <g id="text_7">
      <text style="font: 8px 'DejaVu Sans', 'Bitstream Vera Sans', 'Computer Modern Sans Serif', 'Lucida Grande', 'Verdana', 'Geneva', 'Lucid', 'Arial', 'Helvetica', 'Avant Garde', sans-serif; text-anchor: middle" x="709.254167" y="411.03875" transform="rotate(-0 709.254167 411.03875)">−4000</text>
     </g>
    </g>
    <g id="text_8">
     <text style="font: 8px 'DejaVu Sans', 'Bitstream Vera Sans', 'Computer Modern Sans Serif', 'Lucida Grande', 'Verdana', 'Geneva', 'Lucid', 'Arial', 'Helvetica', 'Avant Garde', sans-serif; text-anchor: middle" x="400.195" y="422.78125" transform="rotate(-0 400.195 422.78125)">Energy</text>
    </g>
   </g>
   <g id="matplotlib.axis_2">
    <g id="ytick_1">
     <g id="line2d_8">
      <defs>
       <path id="m6612b5a84b" d="M 0 0 
L -3.5 0 
" style="stroke: #000000; stroke-width: 0.8"/>
      </defs>
      <g>
       <use xlink:href="#m6612b5a84b" x="54.74" y="397.96" style="stroke: #000000; stroke-width: 0.8"/>
      </g>
     </g>
     <g id="text_9">
      <text style="font: 8px 'DejaVu Sans', 'Bitstream Vera Sans', 'Computer Modern Sans Serif', 'Lucida Grande', 'Verdana', 'Geneva', 'Lucid', 'Arial', 'Helvetica', 'Avant Garde', sans-serif; text-anchor: end" x="47.74" y="400.999375" transform="rotate(-0 47.74 400.999375)">0.0000</text>
     </g>
    </g>
    <g id="ytick_2">
     <g id="line2d_9">
      <g>
       <use xlink:href="#m6612b5a84b" x="54.74" y="331.727777" style="stroke: #000000; stroke-width: 0.8"/>
      </g>
     </g>
     <g id="text_10">
      <text style="font: 8px 'DejaVu Sans', 'Bitstream Vera Sans', 'Computer Modern Sans Serif', 'Lucida Grande', 'Verdana', 'Geneva', 'Lucid', 'Arial', 'Helvetica', 'Avant Garde', sans-serif; text-anchor: end" x="47.74" y="334.767152" transform="rotate(-0 47.74 334.767152)">0.0001</text>
     </g>
    </g>
    <g id="ytick_3">
     <g id="line2d_10">
      <g>
       <use xlink:href="#m6612b5a84b" x="54.74" y="265.495554" style="stroke: #000000; stroke-width: 0.8"/>
      </g>
     </g>
     <g id="text_11">
      <text style="font: 8px 'DejaVu Sans', 'Bitstream Vera Sans', 'Computer Modern Sans Serif', 'Lucida Grande', 'Verdana', 'Geneva', 'Lucid', 'Arial', 'Helvetica', 'Avant Garde', sans-serif; text-anchor: end" x="47.74" y="268.534929" transform="rotate(-0 47.74 268.534929)">0.0002</text>
     </g>
    </g>
    <g id="ytick_4">
     <g id="line2d_11">
      <g>
       <use xlink:href="#m6612b5a84b" x="54.74" y="199.263331" style="stroke: #000000; stroke-width: 0.8"/>
      </g>
     </g>
     <g id="text_12">
      <text style="font: 8px 'DejaVu Sans', 'Bitstream Vera Sans', 'Computer Modern Sans Serif', 'Lucida Grande', 'Verdana', 'Geneva', 'Lucid', 'Arial', 'Helvetica', 'Avant Garde', sans-serif; text-anchor: end" x="47.74" y="202.302706" transform="rotate(-0 47.74 202.302706)">0.0003</text>
     </g>
    </g>
    <g id="ytick_5">
     <g id="line2d_12">
      <g>
       <use xlink:href="#m6612b5a84b" x="54.74" y="133.031107" style="stroke: #000000; stroke-width: 0.8"/>
      </g>
     </g>
     <g id="text_13">
      <text style="font: 8px 'DejaVu Sans', 'Bitstream Vera Sans', 'Computer Modern Sans Serif', 'Lucida Grande', 'Verdana', 'Geneva', 'Lucid', 'Arial', 'Helvetica', 'Avant Garde', sans-serif; text-anchor: end" x="47.74" y="136.070482" transform="rotate(-0 47.74 136.070482)">0.0004</text>
     </g>
    </g>
    <g id="ytick_6">
     <g id="line2d_13">
      <g>
       <use xlink:href="#m6612b5a84b" x="54.74" y="66.798884" style="stroke: #000000; stroke-width: 0.8"/>
      </g>
     </g>
     <g id="text_14">
      <text style="font: 8px 'DejaVu Sans', 'Bitstream Vera Sans', 'Computer Modern Sans Serif', 'Lucida Grande', 'Verdana', 'Geneva', 'Lucid', 'Arial', 'Helvetica', 'Avant Garde', sans-serif; text-anchor: end" x="47.74" y="69.838259" transform="rotate(-0 47.74 69.838259)">0.0005</text>
     </g>
    </g>
    <g id="text_15">
     <text style="font: 8px 'DejaVu Sans', 'Bitstream Vera Sans', 'Computer Modern Sans Serif', 'Lucida Grande', 'Verdana', 'Geneva', 'Lucid', 'Arial', 'Helvetica', 'Avant Garde', sans-serif; text-anchor: middle" x="14.08375" y="209.9" transform="rotate(-90 14.08375 209.9)">Density</text>
    </g>
   </g>
   <g id="line2d_14">
    <path d="M 165.6779 397.959257 
L 182.217611 397.845346 
L 196.000704 397.454416 
L 201.513942 397.102327 
L 207.027179 396.457436 
L 218.053653 394.822857 
L 223.56689 394.081504 
L 226.323509 393.548218 
L 229.080128 392.812628 
L 231.836746 391.853744 
L 234.593365 390.680135 
L 237.349983 389.295457 
L 240.106602 387.675673 
L 242.86322 385.77797 
L 245.619839 383.572667 
L 248.376458 381.070195 
L 251.133076 378.319608 
L 253.889695 375.374539 
L 256.646313 372.240958 
L 259.402932 368.833579 
L 262.159551 364.974338 
L 264.916169 360.455036 
L 267.672788 355.146156 
L 270.429406 349.086232 
L 275.942644 335.583596 
L 281.455881 321.429822 
L 284.212499 314.064129 
L 289.725737 298.372489 
L 295.238974 281.468168 
L 297.995592 272.45042 
L 303.50883 253.148709 
L 309.022067 232.948026 
L 311.778685 222.511817 
L 314.535304 211.590132 
L 320.048541 188.236673 
L 322.80516 176.518939 
L 325.561778 165.554895 
L 328.318397 155.803962 
L 331.075015 147.377769 
L 333.831634 140.025952 
L 344.858108 113.293123 
L 347.614727 106.756542 
L 350.371346 100.844519 
L 353.127964 95.890767 
L 355.884583 92.054762 
L 358.641201 89.347439 
L 361.39782 87.675657 
L 364.154439 86.83767 
L 366.911057 86.537186 
L 369.667676 86.500175 
L 372.424294 86.652097 
L 375.180913 87.216755 
L 377.937532 88.636188 
L 380.69415 91.332615 
L 383.450769 95.446857 
L 386.207387 100.723864 
L 408.260336 148.239287 
L 413.773573 160.596847 
L 416.530192 167.028276 
L 419.28681 173.804847 
L 422.043429 180.970543 
L 427.556666 196.270002 
L 438.583141 228.163578 
L 441.339759 235.665229 
L 444.096378 242.809337 
L 449.609615 256.209989 
L 455.122852 268.658817 
L 463.392708 286.708812 
L 471.662564 306.260975 
L 474.419182 311.929293 
L 477.175801 316.652047 
L 479.93242 320.570341 
L 485.445657 327.798306 
L 488.202275 331.968646 
L 490.958894 336.658518 
L 496.472131 346.300497 
L 499.22875 350.435559 
L 501.985368 353.834327 
L 504.741987 356.575868 
L 507.498605 358.868568 
L 513.011843 362.888227 
L 521.281698 368.870667 
L 529.551554 374.943655 
L 535.064791 378.513133 
L 540.578029 381.739905 
L 546.091266 384.652078 
L 548.847884 385.909664 
L 551.604503 387.002871 
L 557.11774 388.770016 
L 562.630977 390.200698 
L 568.144215 391.443427 
L 573.657452 392.511958 
L 579.170689 393.259735 
L 590.197163 394.320473 
L 598.467019 395.416815 
L 603.980256 395.879659 
L 628.789824 397.232131 
L 664.625865 397.820314 
L 683.922195 397.828994 
L 705.975144 397.949726 
L 714.245 397.959412 
L 714.245 397.959412 
" clip-path="url(#p2af18eeaca)" style="fill: none; stroke: #2ca02c; stroke-width: 1.5; stroke-linecap: square"/>
   </g>
   <g id="line2d_15">
    <path d="M 86.145 397.95941 
L 105.585809 397.870217 
L 119.4721 397.612805 
L 125.026617 397.288966 
L 130.581134 396.741721 
L 136.135651 395.934597 
L 141.690167 394.827664 
L 147.244684 393.427234 
L 150.021943 392.546197 
L 152.799201 391.453456 
L 155.576459 390.081794 
L 158.353718 388.395864 
L 161.130976 386.395954 
L 163.908234 384.101362 
L 166.685493 381.53023 
L 169.462751 378.690416 
L 172.240009 375.57873 
L 175.017268 372.175085 
L 177.794526 368.430313 
L 180.571785 364.267351 
L 183.349043 359.61176 
L 186.126301 354.433917 
L 188.90356 348.76193 
L 191.680818 342.646032 
L 194.458076 336.10181 
L 197.235335 329.081326 
L 200.012593 321.499122 
L 202.789852 313.297314 
L 205.56711 304.502123 
L 211.121627 285.605435 
L 216.676143 265.622216 
L 222.23066 244.666821 
L 230.562435 212.735413 
L 236.116952 192.569274 
L 250.003244 143.858098 
L 252.780502 134.5202 
L 255.557761 126.014593 
L 258.335019 118.701782 
L 261.112277 112.726108 
L 263.889536 107.977876 
L 266.666794 104.183666 
L 269.444052 101.062871 
L 272.221311 98.461052 
L 274.998569 96.399868 
L 277.775828 95.031383 
L 280.553086 94.523305 
L 283.330344 94.934662 
L 286.107603 96.160579 
L 288.884861 97.989018 
L 291.662119 100.219307 
L 294.439378 102.732105 
L 299.993895 108.29086 
L 305.548411 113.772568 
L 308.32567 116.372306 
L 311.102928 119.16713 
L 313.880186 122.604867 
L 316.657445 127.162911 
L 319.434703 133.144023 
L 322.211962 140.513688 
L 324.98922 148.882458 
L 330.543737 166.311137 
L 333.320995 174.521348 
L 336.098253 182.251632 
L 341.65277 196.78924 
L 347.207287 210.795261 
L 352.761804 224.218442 
L 355.539062 230.51993 
L 361.093579 242.240562 
L 366.648095 253.72548 
L 369.425354 259.813868 
L 374.979871 272.811613 
L 377.757129 279.351654 
L 380.534387 285.568663 
L 383.311646 291.326773 
L 388.866162 301.82834 
L 394.420679 311.718054 
L 397.197938 316.191247 
L 399.975196 320.100734 
L 402.752454 323.459758 
L 408.306971 329.567472 
L 411.084229 332.896802 
L 413.861488 336.542234 
L 422.193263 347.92816 
L 424.970521 351.404514 
L 427.74778 354.611482 
L 430.525038 357.523644 
L 433.302296 360.134031 
L 436.079555 362.465524 
L 438.856813 364.572018 
L 444.41133 368.408647 
L 455.520363 375.76199 
L 458.297622 377.388018 
L 461.07488 378.863279 
L 466.629397 381.419444 
L 472.183914 383.569678 
L 486.070205 388.486495 
L 488.847464 389.276311 
L 494.401981 390.494802 
L 508.288272 393.115945 
L 513.842789 393.828392 
L 522.174564 394.623708 
L 541.615373 396.148477 
L 547.16989 396.58277 
L 552.724406 396.822442 
L 577.719732 397.412458 
L 588.828765 397.743255 
L 599.937799 397.767244 
L 613.82409 397.693283 
L 638.819416 397.959165 
L 638.819416 397.959165 
" clip-path="url(#p2af18eeaca)" style="fill: none; stroke: #ff7f0e; stroke-width: 1.5; stroke-linecap: square"/>
   </g>
   <g id="line2d_16">
    <path d="M 205.198622 397.959337 
L 224.559405 397.863238 
L 231.819699 397.711275 
L 236.659894 397.458565 
L 241.50009 396.958639 
L 243.920188 396.542752 
L 246.340286 395.966401 
L 248.760384 395.198602 
L 251.180482 394.222841 
L 253.600579 393.038542 
L 256.020677 391.654068 
L 258.440775 390.07449 
L 260.860873 388.290343 
L 263.280971 386.270732 
L 265.701069 383.960289 
L 268.121167 381.28018 
L 270.541265 378.136185 
L 272.961362 374.436318 
L 275.38146 370.115736 
L 277.801558 365.159452 
L 280.221656 359.606528 
L 282.641754 353.522415 
L 285.061852 346.947844 
L 287.48195 339.858417 
L 289.902048 332.16575 
L 292.322145 323.752244 
L 294.742243 314.500324 
L 297.162341 304.297781 
L 299.582439 293.053645 
L 302.002537 280.767935 
L 306.842733 254.016053 
L 314.103026 213.583062 
L 318.943222 186.125406 
L 326.203516 143.7264 
L 328.623614 130.557204 
L 331.043711 118.08407 
L 335.883907 94.830253 
L 338.304005 84.069229 
L 340.724103 74.125885 
L 343.144201 65.25072 
L 345.564299 57.644007 
L 347.984397 51.421613 
L 350.404494 46.632979 
L 352.824592 43.270784 
L 355.24469 41.220579 
L 357.664788 40.200697 
L 360.084886 39.814607 
L 362.504984 39.750448 
L 364.925082 39.990405 
L 367.34518 40.837845 
L 369.765277 42.705244 
L 372.185375 45.801634 
L 374.605473 49.943055 
L 381.865767 63.763797 
L 384.285865 68.1947 
L 386.705963 73.141685 
L 389.126061 79.137484 
L 391.546158 86.381347 
L 393.966256 94.63939 
L 403.646648 129.664163 
L 408.486844 146.071367 
L 410.906941 153.578268 
L 413.327039 160.488149 
L 420.587333 179.837911 
L 423.007431 186.989313 
L 427.847627 202.861161 
L 430.267724 210.93203 
L 432.687822 218.578398 
L 435.10792 225.636364 
L 449.628507 264.972066 
L 452.048605 271.235257 
L 456.888801 282.828958 
L 468.98929 310.362808 
L 471.409388 315.520952 
L 473.829486 320.366764 
L 476.249584 324.878632 
L 481.08978 333.18326 
L 488.350073 345.007839 
L 490.770171 348.73855 
L 493.190269 352.18426 
L 495.610367 355.204781 
L 498.030465 357.715834 
L 500.450563 359.747322 
L 507.710856 364.827959 
L 510.130954 366.866228 
L 517.391248 373.901626 
L 519.811346 375.880465 
L 522.231444 377.479672 
L 524.651542 378.784382 
L 534.331933 383.365576 
L 539.172129 385.390078 
L 546.432422 388.103737 
L 548.85252 388.919626 
L 551.272618 389.599331 
L 556.112814 390.570829 
L 560.95301 391.582283 
L 570.633401 394.183947 
L 573.053499 394.551996 
L 577.893695 394.905964 
L 585.153988 395.38266 
L 594.83438 396.150484 
L 602.094674 396.461994 
L 609.354967 396.69424 
L 616.615261 397.177452 
L 623.875554 397.59907 
L 631.135848 397.652385 
L 643.236337 397.723438 
L 662.59712 397.91195 
L 681.957903 397.95491 
L 686.798099 397.959338 
L 686.798099 397.959338 
" clip-path="url(#p2af18eeaca)" style="fill: none; stroke: #1f77b4; stroke-width: 1.5; stroke-linecap: square"/>
   </g>
   <g id="patch_3">
    <path d="M 54.74 397.96 
L 54.74 21.84 
" style="fill: none; stroke: #000000; stroke-width: 0.8; stroke-linejoin: miter; stroke-linecap: square"/>
   </g>
   <g id="patch_4">
    <path d="M 54.74 397.96 
L 745.65 397.96 
" style="fill: none; stroke: #000000; stroke-width: 0.8; stroke-linejoin: miter; stroke-linecap: square"/>
   </g>
   <g id="text_16">
    <text style="font: 9.6px 'DejaVu Sans', 'Bitstream Vera Sans', 'Computer Modern Sans Serif', 'Lucida Grande', 'Verdana', 'Geneva', 'Lucid', 'Arial', 'Helvetica', 'Avant Garde', sans-serif; text-anchor: middle" x="400.195" y="15.84" transform="rotate(-0 400.195 15.84)">Energy Distribution by Method</text>
   </g>
  </g>
  <g id="legend_1">
   <g id="text_17">
    <text style="font: 8px 'DejaVu Sans', 'Bitstream Vera Sans', 'Computer Modern Sans Serif', 'Lucida Grande', 'Verdana', 'Geneva', 'Lucid', 'Arial', 'Helvetica', 'Avant Garde', sans-serif; text-anchor: start" x="703.36" y="200.59375" transform="rotate(-0 703.36 200.59375)">method</text>
   </g>
   <g id="line2d_17">
    <path d="M 690.525 209.53625 
L 698.525 209.53625 
L 706.525 209.53625 
" style="fill: none; stroke: #1f77b4; stroke-width: 1.5; stroke-linecap: square"/>
   </g>
   <g id="text_18">
    <text style="font: 8px 'DejaVu Sans', 'Bitstream Vera Sans', 'Computer Modern Sans Serif', 'Lucida Grande', 'Verdana', 'Geneva', 'Lucid', 'Arial', 'Helvetica', 'Avant Garde', sans-serif; text-anchor: start" x="712.925" y="212.33625" transform="rotate(-0 712.925 212.33625)">raw</text>
   </g>
   <g id="line2d_18">
    <path d="M 690.525 221.27875 
L 698.525 221.27875 
L 706.525 221.27875 
" style="fill: none; stroke: #ff7f0e; stroke-width: 1.5; stroke-linecap: square"/>
   </g>
   <g id="text_19">
    <text style="font: 8px 'DejaVu Sans', 'Bitstream Vera Sans', 'Computer Modern Sans Serif', 'Lucida Grande', 'Verdana', 'Geneva', 'Lucid', 'Arial', 'Helvetica', 'Avant Garde', sans-serif; text-anchor: start" x="712.925" y="224.07875" transform="rotate(-0 712.925 224.07875)">rounded</text>
   </g>
   <g id="line2d_19">
    <path d="M 690.525 233.02125 
L 698.525 233.02125 
L 706.525 233.02125 
" style="fill: none; stroke: #2ca02c; stroke-width: 1.5; stroke-linecap: square"/>
   </g>
   <g id="text_20">
    <text style="font: 8px 'DejaVu Sans', 'Bitstream Vera Sans', 'Computer Modern Sans Serif', 'Lucida Grande', 'Verdana', 'Geneva', 'Lucid', 'Arial', 'Helvetica', 'Avant Garde', sans-serif; text-anchor: start" x="712.925" y="235.82125" transform="rotate(-0 712.925 235.82125)">sampled</text>
   </g>
  </g>
 </g>
 <defs>
  <clipPath id="p2af18eeaca">
   <rect x="54.74" y="21.84" width="690.91" height="376.12"/>
  </clipPath>
 </defs>
</svg>
